<svg width="118" height="56" viewBox="0 0 118 56" fill="none" xmlns="http://www.w3.org/2000/svg">
<path opacity="0.6" d="M115.016 10.3193C115.016 10.3193 109.875 24.0014 97.3935 29.1005C84.7066 34.2834 64.6805 30.9097 63.2153 17.1583C62.4271 9.76088 65.1872 4.06117 72.3933 2.514C79.5751 0.972026 85.2789 4.86868 88.2629 11.6539C94.6518 26.1809 77.9257 42.1082 62.572 45.5123C47.1874 48.9233 24.8674 41.5389 24.6225 25.6393C24.508 18.2028 27.8486 12.0809 35.0905 10.7115C42.1892 9.36916 48.1334 13.1311 50.9602 19.8514C56.9911 34.1892 41.6438 51.5941 26.3443 53.4735C16.3545 54.7007 8.71065 51.4919 2.50852 43.4676" stroke="#ffe47b" stroke-width="4" stroke-linecap="round"/>
</svg>
