<?xml version="1.0" encoding="UTF-8"?>
<svg xmlns="http://www.w3.org/2000/svg" xmlns:xlink="http://www.w3.org/1999/xlink" width="90px" height="72px" viewBox="0 0 89 72" version="1.1">
<g id="surface1">
<path style=" stroke:none;fill-rule:nonzero;fill:rgb(60.000002%,87.058824%,18.039216%);fill-opacity:1;" d="M 50.636719 54.664062 C 46.773438 55.171875 42.933594 55.535156 39.046875 55.785156 L 40.296875 54.917969 C 38.941406 57.726562 37.058594 60.242188 34.816406 62.300781 C 34.535156 62.554688 34.261719 62.820312 33.976562 63.070312 L 33.097656 63.792969 C 32.949219 63.910156 32.804688 64.035156 32.65625 64.148438 L 32.199219 64.484375 L 31.285156 65.152344 C 30.035156 65.992188 28.765625 66.796875 27.4375 67.480469 C 24.402344 69.109375 21.171875 70.300781 17.902344 71.253906 C 17.222656 71.449219 16.515625 71.058594 16.316406 70.375 C 16.175781 69.878906 16.339844 69.371094 16.699219 69.050781 L 16.714844 69.039062 C 18.015625 67.875 19.308594 66.699219 20.46875 65.417969 C 21.75 64.03125 22.941406 62.566406 23.9375 61.007812 L 24.304688 60.421875 C 24.421875 60.226562 24.53125 60.023438 24.644531 59.828125 L 24.8125 59.527344 C 24.867188 59.425781 24.914062 59.324219 24.964844 59.222656 C 25.0625 59.019531 25.171875 58.820312 25.261719 58.617188 L 25.523438 58 C 25.597656 57.796875 25.679688 57.589844 25.746094 57.386719 C 25.808594 57.183594 25.878906 56.980469 25.921875 56.785156 C 25.949219 56.683594 25.96875 56.589844 25.984375 56.496094 C 25.992188 56.453125 26.003906 56.402344 26.007812 56.367188 C 26.011719 56.335938 26.019531 56.277344 26.019531 56.300781 L 27.570312 57.703125 C 26.03125 57.964844 24.472656 58.070312 22.917969 58.011719 C 21.363281 57.933594 19.824219 57.679688 18.320312 57.292969 L 17.207031 56.96875 C 16.839844 56.847656 16.476562 56.710938 16.109375 56.582031 C 15.742188 56.457031 15.390625 56.292969 15.035156 56.140625 L 14.503906 55.910156 C 14.324219 55.835938 14.15625 55.738281 13.984375 55.65625 C 12.589844 54.984375 11.277344 54.148438 10.039062 53.222656 C 9.414062 52.765625 8.832031 52.25 8.246094 51.746094 L 7.410156 50.9375 L 7.199219 50.734375 L 7.003906 50.519531 L 6.609375 50.09375 L 6.214844 49.664062 L 5.84375 49.210938 L 5.292969 48.53125 L 5.121094 48.296875 L 4.441406 47.34375 L 3.816406 46.351562 C 3.015625 45.007812 2.34375 43.582031 1.828125 42.085938 C 1.328125 40.585938 1.003906 39.019531 0.867188 37.429688 L 0.828125 36.832031 C 0.816406 36.632812 0.792969 36.4375 0.800781 36.234375 L 0.816406 35.035156 C 0.878906 34.238281 0.933594 33.4375 1.097656 32.65625 L 1.203125 32.0625 C 1.238281 31.867188 1.300781 31.675781 1.347656 31.480469 C 1.453125 31.097656 1.539062 30.707031 1.664062 30.328125 L 2.066406 29.199219 C 2.125 29.011719 2.210938 28.828125 2.292969 28.644531 L 2.792969 27.542969 C 2.878906 27.363281 2.976562 27.203125 3.066406 27.035156 L 3.621094 26.039062 C 4 25.390625 4.375 24.742188 4.773438 24.105469 C 5.566406 22.824219 6.410156 21.570312 7.320312 20.355469 C 9.132812 17.921875 11.246094 15.675781 13.570312 13.722656 C 14.730469 12.742188 15.933594 11.839844 17.15625 10.976562 C 18.378906 10.101562 19.648438 9.296875 20.929688 8.523438 C 24.632812 6.3125 28.578125 4.511719 32.671875 3.171875 C 34.71875 2.5 36.804688 1.945312 38.914062 1.507812 C 41.019531 1.089844 43.132812 0.734375 45.269531 0.507812 C 49.53125 0.046875 53.851562 -0.0273438 58.144531 0.417969 L 58.949219 0.496094 L 59.75 0.605469 C 60.285156 0.683594 60.820312 0.742188 61.355469 0.835938 L 62.949219 1.125 C 63.21875 1.167969 63.480469 1.226562 63.746094 1.289062 L 64.539062 1.46875 L 65.328125 1.648438 C 65.59375 1.710938 65.851562 1.789062 66.117188 1.859375 C 66.636719 2.007812 67.164062 2.144531 67.683594 2.300781 L 69.230469 2.808594 L 69.617188 2.9375 L 70 3.082031 L 71.523438 3.667969 C 71.78125 3.765625 72.023438 3.886719 72.273438 3.996094 C 72.773438 4.21875 73.273438 4.429688 73.769531 4.671875 C 74.265625 4.933594 74.773438 5.179688 75.261719 5.460938 C 75.738281 5.757812 76.226562 6.035156 76.691406 6.351562 C 78.554688 7.597656 80.242188 9.089844 81.730469 10.753906 C 83.214844 12.425781 84.507812 14.269531 85.546875 16.269531 C 86.59375 18.265625 87.375 20.433594 87.710938 22.769531 C 87.730469 22.914062 87.761719 23.0625 87.773438 23.199219 L 87.816406 23.609375 L 87.894531 24.429688 C 87.929688 24.984375 87.976562 25.53125 87.988281 26.085938 C 88.035156 27.191406 88.019531 28.308594 87.9375 29.429688 C 87.773438 31.664062 87.332031 33.941406 86.40625 36.097656 C 86.179688 36.636719 85.910156 37.160156 85.625 37.675781 L 85.175781 38.417969 L 84.703125 39.128906 C 84.050781 40.058594 83.34375 40.929688 82.597656 41.753906 C 81.855469 42.585938 81.050781 43.351562 80.230469 44.09375 C 79.808594 44.453125 79.394531 44.820312 78.957031 45.15625 C 78.738281 45.328125 78.527344 45.507812 78.300781 45.667969 L 77.632812 46.15625 C 75.703125 47.539062 73.585938 48.671875 71.371094 49.546875 L 72.273438 47.644531 C 73.023438 50.1875 74.136719 52.589844 75.863281 54.410156 C 75.945312 54.515625 76.046875 54.601562 76.140625 54.695312 C 76.238281 54.785156 76.332031 54.875 76.421875 54.964844 C 76.515625 55.054688 76.605469 55.144531 76.699219 55.234375 C 76.792969 55.316406 76.890625 55.390625 76.984375 55.472656 C 77.175781 55.628906 77.359375 55.789062 77.542969 55.9375 C 77.738281 56.074219 77.925781 56.210938 78.109375 56.34375 C 78.289062 56.484375 78.480469 56.601562 78.667969 56.71875 C 78.851562 56.835938 79.03125 56.953125 79.207031 57.066406 C 79.390625 57.171875 79.570312 57.273438 79.742188 57.371094 C 79.917969 57.476562 80.085938 57.574219 80.257812 57.660156 C 81.617188 58.390625 82.757812 58.921875 83.613281 59.414062 L 83.671875 59.445312 C 83.699219 59.457031 83.722656 59.472656 83.75 59.484375 C 83.796875 59.507812 83.847656 59.535156 83.890625 59.5625 C 83.980469 59.613281 84.0625 59.667969 84.125 59.714844 C 84.257812 59.816406 84.332031 59.894531 84.378906 59.941406 C 84.464844 60.035156 84.457031 60.035156 84.382812 60.039062 C 84.304688 60.039062 84.140625 60.023438 83.929688 60.085938 C 83.824219 60.113281 83.714844 60.175781 83.628906 60.253906 C 83.542969 60.332031 83.496094 60.417969 83.449219 60.460938 C 83.4375 60.472656 83.421875 60.480469 83.410156 60.488281 C 83.375 60.488281 83.328125 60.484375 83.285156 60.484375 C 83.195312 60.480469 83.105469 60.472656 83.007812 60.46875 C 82.816406 60.453125 82.605469 60.433594 82.375 60.40625 C 81.917969 60.339844 81.386719 60.261719 80.789062 60.113281 C 79.597656 59.824219 78.109375 59.347656 76.515625 58.386719 C 75.648438 57.886719 74.84375 57.238281 74.070312 56.539062 C 73.882812 56.359375 73.707031 56.167969 73.523438 55.976562 L 73.253906 55.691406 C 73.164062 55.597656 73.074219 55.5 72.996094 55.394531 C 72.832031 55.191406 72.667969 54.984375 72.507812 54.777344 L 72.261719 54.464844 C 72.183594 54.359375 72.117188 54.246094 72.042969 54.136719 C 70.855469 52.398438 70.03125 50.449219 69.441406 48.519531 C 69.226562 47.816406 69.578125 47.078125 70.230469 46.792969 L 70.269531 46.777344 C 70.875 46.515625 71.46875 46.28125 72.039062 45.992188 C 72.589844 45.742188 73.121094 45.4375 73.660156 45.152344 C 74.179688 44.839844 74.710938 44.539062 75.21875 44.195312 C 76.238281 43.527344 77.21875 42.792969 78.144531 41.992188 C 79.066406 41.191406 79.945312 40.335938 80.753906 39.425781 C 81.558594 38.515625 82.300781 37.546875 82.917969 36.535156 C 83.234375 36.03125 83.492188 35.523438 83.726562 34.984375 C 83.96875 34.453125 84.160156 33.890625 84.335938 33.324219 C 84.671875 32.1875 84.890625 31 85.011719 29.789062 C 85.132812 28.582031 85.152344 27.351562 85.105469 26.117188 C 85.097656 25.808594 85.078125 25.5 85.054688 25.191406 C 85.03125 24.882812 85.015625 24.574219 84.980469 24.265625 C 84.945312 23.960938 84.925781 23.636719 84.878906 23.347656 L 84.742188 22.480469 C 84.507812 21.328125 84.132812 20.1875 83.671875 19.078125 C 83.410156 18.53125 83.179688 17.976562 82.878906 17.449219 C 82.730469 17.183594 82.597656 16.910156 82.4375 16.65625 L 81.957031 15.882812 C 81.808594 15.617188 81.617188 15.378906 81.449219 15.128906 L 81.1875 14.753906 C 81.101562 14.628906 81.011719 14.503906 80.917969 14.386719 C 80.539062 13.914062 80.175781 13.425781 79.761719 12.980469 C 78.972656 12.054688 78.078125 11.230469 77.167969 10.4375 L 76.101562 9.59375 C 75.980469 9.503906 75.855469 9.421875 75.734375 9.335938 L 74.992188 8.820312 C 74.742188 8.652344 74.476562 8.507812 74.222656 8.351562 L 73.835938 8.121094 L 73.644531 8.003906 L 73.441406 7.902344 L 72.644531 7.496094 C 72.382812 7.355469 72.09375 7.238281 71.8125 7.117188 L 70.96875 6.75 C 68.695312 5.804688 66.332031 5.078125 63.921875 4.546875 C 61.261719 3.964844 58.492188 3.625 55.726562 3.476562 C 52.960938 3.328125 50.203125 3.375 47.542969 3.53125 L 45.945312 3.640625 L 44.355469 3.804688 C 43.820312 3.851562 43.292969 3.9375 42.765625 4.007812 C 42.234375 4.082031 41.703125 4.152344 41.179688 4.25 C 39.0625 4.589844 36.988281 5.0625 34.933594 5.660156 C 30.832031 6.855469 26.871094 8.554688 23.152344 10.6875 C 21.292969 11.753906 19.496094 12.929688 17.769531 14.203125 C 16.039062 15.472656 14.414062 16.839844 12.921875 18.34375 C 11.429688 19.847656 10.078125 21.492188 8.835938 23.226562 C 8.222656 24.105469 7.621094 24.988281 7.058594 25.90625 C 6.484375 26.816406 5.945312 27.753906 5.425781 28.675781 C 4.035156 31.335938 3.335938 34.40625 3.636719 37.433594 C 3.910156 40.464844 5.054688 43.414062 6.78125 45.972656 C 7.640625 47.257812 8.660156 48.4375 9.78125 49.503906 C 10.90625 50.570312 12.136719 51.519531 13.453125 52.335938 C 13.785156 52.53125 14.113281 52.738281 14.453125 52.921875 L 15.480469 53.457031 L 16.539062 53.921875 C 16.714844 54.007812 16.898438 54.066406 17.078125 54.132812 L 17.621094 54.332031 C 19.074219 54.839844 20.578125 55.1875 22.097656 55.351562 C 23.773438 55.53125 25.472656 55.480469 27.128906 55.199219 L 27.175781 55.1875 C 27.8125 55.082031 28.417969 55.511719 28.527344 56.152344 C 28.542969 56.257812 28.546875 56.367188 28.535156 56.46875 L 28.523438 56.601562 L 28.511719 56.6875 L 28.484375 56.863281 L 28.417969 57.179688 C 28.367188 57.382812 28.320312 57.582031 28.261719 57.773438 C 28.199219 57.960938 28.140625 58.15625 28.078125 58.339844 L 27.871094 58.886719 C 27.574219 59.601562 27.246094 60.289062 26.875 60.945312 C 26.140625 62.257812 25.296875 63.484375 24.375 64.628906 C 22.550781 66.9375 20.464844 68.976562 18.285156 70.871094 L 17.242188 68.925781 C 21.523438 67.707031 25.675781 65.960938 29.351562 63.503906 C 31.1875 62.277344 32.894531 60.867188 34.378906 59.257812 C 35.863281 57.648438 37.125 55.839844 38.046875 53.871094 L 38.050781 53.863281 C 38.210938 53.523438 38.535156 53.316406 38.878906 53.292969 C 42.191406 53.070312 45.519531 52.753906 48.816406 52.339844 C 50.464844 52.128906 52.109375 51.898438 53.742188 51.617188 L 54.960938 51.394531 L 56.167969 51.144531 L 57.355469 50.863281 C 57.742188 50.75 58.136719 50.652344 58.511719 50.527344 C 58.75 50.445312 58.988281 50.367188 59.214844 50.289062 L 59.257812 50.273438 C 59.582031 50.160156 59.929688 50.253906 60.160156 50.480469 C 63.292969 53.570312 66.851562 56.023438 70.613281 57.648438 C 74.375 59.277344 78.292969 60.136719 82.070312 60.28125 C 82.964844 60.3125 83.628906 60.335938 84.0625 60.378906 C 84.277344 60.402344 84.4375 60.433594 84.539062 60.46875 C 84.5625 60.480469 84.585938 60.492188 84.605469 60.503906 C 84.679688 60.5 84.808594 60.449219 84.886719 60.375 C 84.972656 60.296875 85.011719 60.210938 85.035156 60.160156 C 85.058594 60.105469 85.070312 60.066406 85.078125 60.050781 C 85.085938 60.050781 85.089844 60.046875 85.097656 60.050781 C 85.105469 60.054688 85.113281 60.035156 85.117188 60.078125 C 85.117188 60.113281 85.117188 60.167969 85.089844 60.257812 C 85.0625 60.34375 84.988281 60.46875 84.867188 60.554688 C 84.804688 60.597656 84.742188 60.628906 84.679688 60.648438 L 84.636719 60.660156 C 84.632812 60.660156 84.632812 60.664062 84.632812 60.664062 L 84.625 60.667969 C 84.613281 60.6875 84.59375 60.703125 84.570312 60.722656 C 84.523438 60.757812 84.464844 60.792969 84.386719 60.835938 C 84.234375 60.910156 84.019531 60.992188 83.734375 61.070312 C 83.171875 61.226562 82.351562 61.367188 81.269531 61.417969 C 80.507812 61.453125 79.738281 61.453125 78.964844 61.425781 C 78.191406 61.386719 77.414062 61.335938 76.640625 61.234375 C 75.085938 61.050781 73.535156 60.730469 72.007812 60.289062 C 68.953125 59.40625 66.003906 58.019531 63.332031 56.234375 C 61.59375 55.078125 59.964844 53.734375 58.449219 52.253906 L 60.109375 52.589844 L 59.5 52.804688 C 59.296875 52.875 59.089844 52.953125 58.894531 53.003906 L 58.296875 53.171875 L 57.996094 53.257812 L 57.703125 53.328125 C 56.914062 53.527344 56.128906 53.691406 55.347656 53.847656 C 53.785156 54.148438 52.226562 54.390625 50.675781 54.613281 C 50.664062 54.628906 50.652344 54.644531 50.636719 54.664062 Z M 50.636719 54.664062 "/>
</g>
</svg>
