<svg xmlns="http://www.w3.org/2000/svg" width="87" height="87" viewBox="0 0 87 87" fill="none">
<g opacity="0.6" clip-path="url(#clip0_2015_608)">
<path d="M25.2564 22.6681C26.0349 23.5589 26.9099 24.3749 27.8836 25.0424C28.3691 25.3772 28.8723 25.683 29.3993 25.9419C29.926 26.1993 30.4686 26.4174 31.0258 26.5888C31.4965 26.7358 31.9783 26.8336 32.4624 26.9097L32.514 26.9173C33.0312 26.9998 33.3849 27.4857 33.3025 28.0029C33.2608 28.2677 33.1112 28.4905 32.9079 28.633C32.2106 29.1185 31.4986 29.5639 30.8202 30.0094C30.2293 30.3985 29.6629 30.7801 29.1477 31.1923C28.6305 31.6019 28.172 32.0513 27.7582 32.5462C27.655 32.6695 27.5521 32.7942 27.4582 32.9266L27.3128 33.1213C27.2663 33.1858 27.237 33.2443 27.1988 33.3043C27.1257 33.4254 27.0464 33.5368 26.9839 33.6834C26.9189 33.8244 26.8456 33.953 26.7868 34.1035L26.61 34.552C26.553 34.7038 26.5052 34.8645 26.4534 35.0199L26.3759 35.2544L26.3092 35.4977L26.1754 35.9828C25.8499 37.2983 25.6294 38.6653 25.4845 40.0373C25.4196 40.7235 25.3597 41.4119 25.3385 42.0949C25.3168 42.775 25.3097 43.4602 25.3596 44.0972C25.4086 44.7207 24.9427 45.2659 24.3192 45.3149C23.8443 45.3514 23.4145 45.0906 23.2154 44.687L23.2101 44.6742C22.837 43.9145 22.5566 43.1795 22.2802 42.4499L21.4863 40.2884C21.0544 39.1171 20.6105 37.9647 20.0906 36.9079C19.828 36.3861 19.5412 35.8914 19.2347 35.4748L19.0002 35.1902C18.9103 35.0948 18.8125 34.9978 18.7194 34.9016C18.5218 34.714 18.3186 34.529 18.0965 34.358C17.6592 34.0116 17.1815 33.6953 16.6785 33.4078C16.1732 33.1252 15.6453 32.8695 15.1023 32.6408C14.0167 32.1849 12.8697 31.8388 11.7171 31.608C11.0697 31.4784 10.6493 30.8473 10.7803 30.1997C10.8465 29.8667 11.0451 29.594 11.3109 29.4253L11.3204 29.4191C12.1113 28.9202 12.9005 28.42 13.621 27.868C14.3593 27.3296 15.0205 26.7348 15.6136 26.0986L16.044 25.6115L16.4266 25.0947C16.5631 24.9275 16.6639 24.7391 16.7767 24.5578C16.8827 24.373 17.0105 24.1997 17.0943 24.0006L17.3746 23.4227C17.4601 23.2248 17.5287 23.0178 17.6077 22.818L17.7232 22.5143C17.7565 22.4095 17.7834 22.3027 17.8137 22.1983L17.993 21.5651C18.2791 20.3631 18.4901 19.0891 18.6369 17.8143C18.6651 17.5077 18.7039 17.2267 18.7533 16.9713C18.778 16.8435 18.8052 16.7214 18.835 16.605C18.8425 16.5702 18.8486 16.5615 18.8563 16.5449C18.8629 16.53 18.8709 16.5149 18.8791 16.5013C18.8954 16.4725 18.9134 16.445 18.9343 16.4169C19.0151 16.3052 19.1324 16.184 19.2384 16.0252C19.3462 15.8675 19.4393 15.679 19.5058 15.486C19.6975 14.9146 19.681 14.5961 19.8983 14.7664C19.9518 14.8103 20.0203 14.8881 20.1034 15.0136C20.1862 15.1376 20.2828 15.314 20.3708 15.5452C20.4585 15.775 20.5312 16.0577 20.5737 16.3594C20.5838 16.4337 20.5934 16.5143 20.6012 16.5845C20.6057 16.6355 20.6118 16.6877 20.6168 16.7417C20.6267 16.8496 20.6341 16.961 20.6394 17.0774C20.6547 17.3717 20.6635 17.6717 20.6685 17.977C20.6707 18.2827 20.6465 18.5947 20.6299 18.9068C20.6074 19.5307 20.4955 20.1658 20.4021 20.7763C20.346 21.0542 20.2791 21.3311 20.2183 21.6083L20.1255 22.0237L20.0031 22.4352C19.9174 22.7093 19.8443 22.9857 19.7472 23.2556L19.431 24.0623C18.9679 25.1249 18.3582 26.1326 17.6247 27.0265L17.0535 27.674C16.8572 27.8823 16.6489 28.0744 16.4453 28.2763C16.2456 28.4821 16.0285 28.659 15.8142 28.843C15.5996 29.0255 15.3896 29.2164 15.1654 29.3793L14.5044 29.8888L13.8302 30.3672L13.4928 30.6049L13.1519 30.831L12.4689 31.285L12.1365 29.4519C13.3363 29.6653 14.5089 29.9749 15.657 30.3878C16.4036 30.6567 17.1565 30.9702 17.8787 31.3607C18.6008 31.7498 19.291 32.2175 19.8866 32.7796C20.0828 32.9766 20.2845 33.1618 20.4683 33.3747C20.5618 33.4816 20.6571 33.5729 20.7485 33.6939L21.0191 34.0452C21.1159 34.1622 21.1779 34.2807 21.2582 34.3991C21.3323 34.517 21.414 34.6351 21.4805 34.7528C21.6075 34.9894 21.7527 35.2257 21.8645 35.4619C22.3419 36.4074 22.7187 37.3523 23.0777 38.2912C23.4337 39.2307 23.7634 40.1672 24.0946 41.0866C24.4267 42.0029 24.7586 42.9176 25.1364 43.7299L23.2122 44.2458C23.1639 43.4532 23.1919 42.705 23.2396 41.9563C23.2997 41.0623 23.3955 40.1802 23.5187 39.298C23.6404 38.4159 23.7885 37.5368 23.9842 36.66C24.1799 35.7832 24.4003 34.9082 24.7278 34.0356C24.8931 33.5997 25.0752 33.164 25.3108 32.7295C25.3394 32.6757 25.3648 32.6209 25.3978 32.5664L25.5016 32.4034L25.7126 32.0798C25.7834 31.9714 25.8558 31.8901 25.9289 31.7949C26.0025 31.7027 26.0712 31.6084 26.1485 31.5201C26.5487 31.0338 27.0009 30.5839 27.4787 30.1752C27.9565 29.7665 28.4594 29.4052 28.9613 29.073C29.9687 28.411 30.9527 27.8415 31.8712 27.1937L32.2502 28.6606C31.22 28.5194 30.2169 28.2378 29.2677 27.8477C28.3217 27.4494 27.4314 26.9438 26.6022 26.362C25.7768 25.7749 25.0149 25.1081 24.3161 24.3844C23.6191 23.662 22.9957 22.8565 22.4449 22.0306C21.7413 20.9681 21.1894 19.8683 20.7661 18.7807C20.3399 17.6937 20.0432 16.6159 19.8584 15.5762C19.7908 15.1845 19.8333 14.9333 19.9445 14.8466L19.87 15.2101C19.8427 15.2454 19.7986 15.2806 19.7519 15.301C19.7053 15.3214 19.6595 15.3295 19.6265 15.3322C19.5587 15.3366 19.532 15.3321 19.5277 15.342C19.526 15.3499 19.5487 15.3749 19.6275 15.3899C19.6668 15.3967 19.722 15.3992 19.783 15.3823C19.8443 15.3669 19.9083 15.3328 19.9531 15.2929L20.0528 14.8047C20.2155 14.7943 20.4471 15.0108 20.6918 15.4658C21.4242 16.8293 22.1817 18.2402 23.0092 19.5641C23.6853 20.6512 24.3843 21.748 25.2197 22.6761C25.2295 22.6713 25.2393 22.6665 25.2521 22.6612L25.2564 22.6681Z" fill="#ff69ba"/>
<path d="M53.6843 33.1548C53.9858 33.6987 54.2998 34.2359 54.6212 34.7626C54.7018 34.8915 54.784 35.0294 54.863 35.1495C54.9408 35.2622 55.0119 35.3806 55.0953 35.4908C55.2577 35.712 55.4311 35.9266 55.6175 36.1283C56.3652 36.9393 57.3186 37.5784 58.3911 38.0199C59.3064 38.4084 60.3085 38.6582 61.3299 38.801C61.8452 38.8731 62.2033 39.3491 62.1324 39.8627C62.0975 40.1141 61.9661 40.3277 61.783 40.4727L61.7603 40.4904C61.5757 40.6357 61.3863 40.7711 61.2117 40.9298C60.1988 41.8106 59.3433 42.9104 58.6405 44.099C57.9365 45.2893 57.3871 46.5788 56.9966 47.9058C56.6075 49.2325 56.3755 50.6031 56.3638 51.9531C56.353 53.3 56.5635 54.6322 57.0744 55.7849L54.957 56.6213C54.499 55.38 54.0485 54.1465 53.5541 52.9497C53.1097 51.872 52.6345 50.818 52.0948 49.8134C51.554 48.8106 50.95 47.8555 50.265 46.9771C50.0928 46.7607 49.9133 46.5456 49.7362 46.3362C49.5572 46.1332 49.3746 45.9354 49.1835 45.7497C48.8021 45.3753 48.3982 45.0368 47.9763 44.7517C47.1305 44.1789 46.2133 43.8578 45.3379 43.8948C44.6788 43.9227 44.1208 43.4103 44.0929 42.7511C44.0773 42.3686 44.2414 42.0213 44.5101 41.7911L44.5181 41.7851C45.2194 41.1924 45.8461 40.5229 46.3569 39.7657C46.492 39.5819 46.6029 39.3811 46.7258 39.1888C46.8349 38.9868 46.9527 38.7909 47.0516 38.5831C47.2613 38.1744 47.4368 37.7444 47.5925 37.3057C48.2177 35.5474 48.4362 33.608 48.4421 31.6543C48.4436 30.3762 48.4318 29.0653 48.3637 27.772C48.3293 27.1535 48.3488 26.6338 48.4108 26.1994C48.4411 25.9823 48.4842 25.7859 48.5367 25.6091C48.5537 25.472 48.5814 25.3179 48.6259 25.1989C48.6696 25.0754 48.7259 24.9802 48.7744 24.9183C49.0608 24.6073 48.8851 25.0968 49.3431 25.3877C49.4534 25.452 49.5987 25.4553 49.6879 25.4259C49.7335 25.4163 49.7646 25.3941 49.7888 25.402C49.8217 25.4678 49.8552 25.5365 49.8867 25.6117C50.0185 25.9098 50.1367 26.2865 50.2326 26.7357C50.4744 27.8735 50.6045 29.1467 50.6235 30.3604C50.6421 31.5284 50.6082 32.7011 50.4851 33.8773C50.4226 34.4641 50.342 35.0525 50.2271 35.6364C50.1155 36.2211 49.9777 36.8044 49.8018 37.3792C49.458 38.5304 48.9665 39.6558 48.318 40.6947C47.9905 41.2125 47.6286 41.7088 47.2301 42.1782C46.8275 42.6421 46.3941 43.078 45.9343 43.485L45.2346 41.6847C46.3267 41.6155 47.4124 41.8734 48.3463 42.3149C49.1318 42.6836 49.8566 43.1666 50.487 43.718C50.8064 43.9922 51.1002 44.2846 51.3731 44.5884L51.5735 44.8181C51.6359 44.8954 51.6968 44.973 51.7591 45.0504C51.8795 45.2058 52.0025 45.3593 52.1127 45.5181C53.2586 47.1362 54.1622 48.8655 54.9408 50.6124C55.7185 52.3624 56.3697 54.1378 56.9899 55.8928L56.996 55.91C57.1822 56.4392 56.9055 57.0211 56.3748 57.2075C55.8643 57.3874 55.3049 57.1342 55.0975 56.6407C54.6969 55.6817 54.4576 54.679 54.3657 53.6824C54.1977 51.8142 54.4088 49.9705 54.861 48.2077C55.3212 46.4465 56.0254 44.7566 56.9749 43.2046C57.9426 41.6266 59.1664 40.171 60.7206 39.0516L61.1032 40.556C60.5326 40.4647 59.9626 40.3672 59.3981 40.2154C58.834 40.0742 58.2759 39.8893 57.7296 39.6673C57.1825 39.45 56.653 39.1763 56.1457 38.8652C55.6385 38.554 55.156 38.1928 54.7181 37.7826C54.279 37.3742 53.8794 36.9222 53.5328 36.4335C53.4503 36.3109 53.3581 36.1855 53.2822 36.0664L53.0567 35.7117C52.9068 35.4746 52.7627 35.2365 52.6184 34.9969C52.0459 34.0393 51.5047 33.0685 50.9947 32.077C50.4265 30.9709 49.9418 29.8546 49.5913 28.739C49.2459 27.6271 49.0171 26.5022 49.0634 25.4431C49.0882 25.1691 49.1461 24.9792 49.2246 24.88L49.1833 24.767C49.1651 24.7154 49.1258 24.6568 49.0756 24.6139C49.0251 24.5695 48.9716 24.5423 48.9303 24.5237C48.8475 24.4865 48.8044 24.4667 48.7919 24.4385C48.7827 24.4127 48.7954 24.3724 48.912 24.3427C48.9691 24.3295 49.0628 24.3252 49.1744 24.3619C49.2854 24.3956 49.3969 24.475 49.4704 24.5549L49.5812 24.8552C49.6406 24.9072 49.6976 24.9885 49.7514 25.0948C49.8069 25.2023 49.8437 25.3329 49.9054 25.5018C49.9642 25.6711 50.0075 25.8387 50.0774 26.0106C50.1426 26.1819 50.2081 26.3547 50.2751 26.5271C50.4246 26.874 50.5667 27.2221 50.7335 27.5719C51.0562 28.2705 51.4088 28.9745 51.7798 29.6706C52.3839 30.8161 52.9853 32.0154 53.6584 33.1548C53.6702 33.1528 53.6805 33.1509 53.6938 33.1486L53.6843 33.1548Z" fill="#ff69ba"/>
<path d="M38.3877 58.1813C38.9392 59.167 39.7157 59.9425 40.7179 60.4177C40.8129 60.4725 40.9195 60.507 41.0224 60.5467L41.3345 60.6669C41.5502 60.7324 41.7721 60.7816 41.9921 60.8373L42.0702 60.857C42.5708 60.9835 42.8735 61.4906 42.747 61.9912C42.6845 62.2414 42.5221 62.4436 42.3169 62.5666C42.1653 62.6573 42.0152 62.7478 41.8701 62.8404C41.5688 63.0321 41.2838 63.221 41.036 63.4139C40.7885 63.6084 40.5763 63.8042 40.3944 64.0251C40.0331 64.4635 39.7469 65.0349 39.528 65.6416C39.3125 66.2508 39.1607 66.8929 39.1099 67.5035C39.0552 68.1087 39.127 68.6977 39.308 69.0329L37.238 69.9569C36.9424 69.2565 36.6401 68.5787 36.3042 67.9434C35.788 66.9682 35.1833 66.0955 34.4329 65.4419C33.6832 64.7836 32.7929 64.3389 31.914 64.2608C31.258 64.2029 30.7751 63.6239 30.8331 62.9679C30.8619 62.6475 31.0151 62.3677 31.2411 62.1724L31.2889 62.132L31.5455 61.9116L31.6739 61.8022L31.7926 61.6807L32.0333 61.4387L32.2547 61.1743L32.3654 61.042L32.4669 60.9008L32.6712 60.6165L32.8558 60.3159L32.9481 60.1655C32.9772 60.1147 33.0041 60.0597 33.0314 60.0077C33.4852 59.1691 33.8188 58.236 34.0379 57.2591C34.1809 56.6445 34.3661 56.0193 34.5092 55.3879C34.5858 55.088 34.6835 54.8393 34.8276 54.6372C34.9638 54.4334 35.1323 54.2743 35.3222 54.1509C35.5982 53.9712 35.8769 53.9709 36.0995 54.1448C36.3203 54.3176 36.4945 54.6662 36.523 55.1562C36.5621 55.7753 36.4837 56.4532 36.3305 57.0788C36.2633 57.3892 36.1715 57.6978 36.0918 58.0058L35.9519 58.4646L35.881 58.6934L35.8008 58.9208C35.6003 59.5288 35.343 60.1256 35.0575 60.709C34.7708 61.2942 34.4189 61.8558 34.0299 62.3966C33.6293 62.9318 33.1654 63.4279 32.6518 63.884L32.112 62.0493C32.5867 62.0723 33.058 62.1537 33.5102 62.2826C34.4023 62.5304 35.2785 62.973 35.8866 63.5969C36.2973 64.0088 36.6655 64.4557 36.998 64.9073C37.3305 65.3589 37.6232 65.8267 37.8934 66.2969C38.4285 67.2414 38.8573 68.2045 39.2248 69.1572L39.2337 69.1815C39.4354 69.7034 39.1765 70.2913 38.6546 70.493C38.157 70.6858 37.5988 70.4568 37.3722 69.9835C37.1374 69.4902 37.0458 68.9961 37.0187 68.5318C36.9882 67.9873 37.0347 67.4734 37.1151 66.9795C37.197 66.4852 37.3171 66.0086 37.4678 65.5419C37.6188 65.0766 37.8008 64.6226 38.0269 64.1776C38.2548 63.7337 38.522 63.2967 38.8728 62.8937C39.2414 62.4616 39.6888 62.0964 40.1228 61.8112C40.5603 61.5193 40.9811 61.2882 41.3905 61.053L41.6788 62.5847C40.4795 62.3484 39.2968 61.8167 38.3444 61.0113C38.2288 60.9083 38.1183 60.7999 38.0051 60.6934L37.8381 60.5325C37.7855 60.4762 37.7371 60.4178 37.6858 60.3598L37.3854 60.0122L37.1178 59.6435L36.9849 59.4598L36.8674 59.2688L36.6337 58.8851L36.4285 58.4902C36.3597 58.3592 36.2924 58.2279 36.2364 58.0915C36.1684 57.939 36.1033 57.786 36.0429 57.6337C35.99 57.48 35.9385 57.3261 35.8916 57.1729C35.8419 57.0203 35.8042 56.867 35.7727 56.7141C35.7397 56.5615 35.7084 56.4102 35.6848 56.259C35.5992 55.6526 35.5897 55.0633 35.683 54.4955C35.7662 53.9736 36.2604 53.9002 36.5002 54.4047C36.844 55.1194 37.1671 55.8544 37.505 56.5442C37.7774 57.1131 38.0213 57.693 38.3493 58.1972C38.3592 58.1924 38.3692 58.1891 38.3805 58.1841L38.3877 58.1813Z" fill="#ff69ba"/>
<path d="M66.3156 15.55C66.5298 15.9875 66.7894 16.3971 67.0754 16.7838C67.1498 16.8773 67.2166 16.9798 67.2975 17.0676L67.5329 17.3398C67.6997 17.5084 67.8649 17.6849 68.0468 17.8356C68.3129 18.075 68.6088 18.2757 68.9145 18.4549L68.9281 18.4631C69.3866 18.7311 69.5421 19.319 69.2744 19.779C69.2324 19.8519 69.1776 19.9209 69.1207 19.9782C69.0183 20.08 68.9162 20.1833 68.8173 20.2876C68.187 21.0323 67.7202 21.9524 67.4549 22.9268C67.3196 23.4121 67.2293 23.9109 67.1962 24.3965C67.1914 24.5162 67.178 24.6388 67.1833 24.7552C67.1841 24.8723 67.1823 24.9915 67.1939 25.1006L67.2063 25.266L67.2329 25.4166L67.2417 25.4927C67.2459 25.5164 67.254 25.5363 67.2591 25.5567C67.2711 25.5988 67.2816 25.6411 67.2906 25.6837L67.3027 25.7348C67.4368 26.3402 67.0556 26.9421 66.4502 27.0763C65.9622 27.1852 65.4754 26.9557 65.2358 26.5471C65.0045 26.1507 64.797 25.7517 64.615 25.3756C64.4317 25.0012 64.2618 24.6337 64.0876 24.311C64.0456 24.2285 64.0027 24.1493 63.9594 24.0762C63.9158 24.0016 63.8746 23.9236 63.83 23.8523C63.739 23.716 63.6525 23.5713 63.556 23.4558C63.466 23.3255 63.3617 23.2266 63.2657 23.114C63.2142 23.0637 63.1593 23.0201 63.1081 22.9712L63.03 22.8997L62.9433 22.8404C62.4986 22.5121 61.9334 22.3041 61.2654 22.2132C60.6148 22.1253 60.1589 21.5264 60.2467 20.8758C60.2868 20.5763 60.4363 20.3184 60.6477 20.1349L60.6993 20.0908L60.9583 19.8669C61.0019 19.8287 61.0459 19.7936 61.088 19.7557L61.205 19.633C61.2819 19.5509 61.3657 19.4737 61.4407 19.3889L61.6535 19.1274C61.9201 18.7651 62.1683 18.3847 62.3409 17.9553C62.5206 17.5321 62.6671 17.0844 62.7544 16.612C62.8112 16.3812 62.8303 16.1356 62.8688 15.8958L62.8984 15.5281L62.9132 15.3442L62.9169 15.1577C62.9419 14.6431 62.9889 14.1063 63.0282 13.5693C63.0329 13.4405 63.053 13.3212 63.0835 13.2092C63.1154 13.0878 63.1598 13.0373 63.1985 12.799C63.2473 12.6091 63.3265 12.4535 63.4141 12.3543C63.5014 12.2536 63.5902 12.2044 63.6671 12.1909C63.8914 12.159 63.9985 12.4554 64.2624 12.6647C64.3877 12.7706 64.5644 12.8399 64.707 12.8194C64.7772 12.8116 64.8307 12.7869 64.8624 12.7676L64.8678 12.7636C64.8678 12.7636 64.8722 12.7628 64.8735 12.7702L64.8883 12.8026C64.8967 12.824 64.9068 12.8466 64.9154 12.8694C64.9326 12.9152 64.9485 12.9626 64.9636 13.0133C64.9995 13.1394 65.0318 13.2708 65.0597 13.403C65.0834 13.5374 65.1 13.6746 65.1136 13.8123C65.1468 14.0868 65.1418 14.3694 65.1337 14.6435C65.1002 15.2739 65.0531 15.9051 64.9377 16.5378C64.8265 17.1682 64.682 17.7999 64.4508 18.4149C64.0147 19.6478 63.2728 20.822 62.288 21.7496C62.232 21.8036 62.1778 21.8589 62.1203 21.9132L61.5905 19.9275C61.9297 19.9682 62.2736 19.9838 62.622 20.0853C62.7958 20.1293 62.9666 20.1738 63.1343 20.2524C63.2183 20.2878 63.2995 20.3253 63.3813 20.3657C63.4625 20.4032 63.5416 20.4456 63.6166 20.4994C64.1226 20.8123 64.5752 21.2199 64.9544 21.6511C65.3372 22.0862 65.629 22.5572 65.8731 23.0092C66.1188 23.4609 66.3255 23.9073 66.5161 24.323C66.7081 24.7384 66.8931 25.1308 67.081 25.4967L65.2458 26.2666C65.2075 26.0753 65.1595 25.8721 65.1511 25.6954C65.1038 25.2285 65.1245 24.8014 65.1642 24.3786L65.1972 24.0651L65.2464 23.7564C65.2753 23.5487 65.3239 23.3497 65.3659 23.1473C65.5485 22.3429 65.8355 21.5688 66.2284 20.8431C66.6641 20.0488 67.2214 19.3048 67.9167 18.6872L68.099 20.0319C67.2017 19.5215 66.4137 18.8532 65.7855 18.0805L65.5499 17.79L65.3323 17.4887L65.2236 17.3388L65.1245 17.1826L64.9263 16.8703C64.6794 16.4463 64.448 16.0149 64.2578 15.5671C63.8058 14.541 63.6735 13.454 63.9393 12.4993C63.9745 12.3712 64.043 12.2754 64.1263 12.2211C64.1412 12.2109 64.1455 12.1918 64.1352 12.1769C64.1347 12.1739 64.1312 12.1715 64.1278 12.1691L63.9656 12.0438C63.8985 11.9917 63.7908 11.9772 63.7267 11.9763C63.6594 11.9744 63.6191 11.9709 63.5999 11.9484C63.5825 11.9271 63.5826 11.8844 63.6478 11.8226C63.6806 11.7925 63.7338 11.7572 63.809 11.7348C63.8825 11.7112 63.9759 11.7054 64.0616 11.7162L64.4631 12.1617C64.5783 12.1932 64.6866 12.2807 64.7566 12.4268C65.0375 13.0094 65.3106 13.5994 65.5963 14.1659C65.829 14.6305 66.0253 15.1214 66.2842 15.5708C66.2941 15.566 66.3041 15.5627 66.3154 15.5577L66.3156 15.55Z" fill="#ff69ba"/>
<path d="M71.145 60.8374C71.1945 60.9536 71.2447 61.0742 71.296 61.1839C71.3215 61.2419 71.3474 61.2937 71.371 61.3413C71.3949 61.3904 71.419 61.441 71.4471 61.4878C71.5527 61.6809 71.6758 61.8694 71.8138 62.0385C72.0902 62.3797 72.4238 62.6651 72.7854 62.8496C72.9858 62.9498 73.1949 63.0211 73.409 63.0519L73.4779 63.0626C73.9891 63.137 74.344 63.6121 74.2681 64.1235C74.2329 64.3643 74.1066 64.5724 73.9321 64.7143C73.7456 64.866 73.5738 65.0319 73.4251 65.2165C73.1168 65.6014 72.8812 66.045 72.6746 66.5491C72.5712 66.8003 72.4735 67.0673 72.3763 67.345L72.2274 67.7703C72.1823 67.9031 72.1444 68.0164 72.1103 68.1428C71.9731 68.6346 71.8984 69.1351 71.9137 69.6107C71.9261 70.0868 72.0227 70.5313 72.2007 70.9187L70.1164 71.7706C69.8116 71.0354 69.4995 70.3273 69.1409 69.6762C68.7121 68.8943 68.219 68.1968 67.6225 67.647C67.0269 67.094 66.34 66.6882 65.6329 66.5219C64.9923 66.3699 64.5941 65.7272 64.7462 65.0866C64.8133 64.8021 64.9773 64.566 65.1955 64.4042L65.2467 64.3662L65.4904 64.1847L65.6134 64.096L65.7266 63.9953L65.9531 63.7939L66.1606 63.5715L66.2661 63.4615L66.3604 63.3397L66.5495 63.0993L66.717 62.8397C66.7444 62.7968 66.7751 62.7548 66.8008 62.7107L66.874 62.5729C66.9232 62.4805 66.9744 62.3907 67.0219 62.297L67.1506 62.0078C67.1963 61.9129 67.2319 61.8122 67.2674 61.7115C67.303 61.6108 67.3417 61.5111 67.3741 61.4094C67.4286 61.2003 67.4994 60.9974 67.5374 60.7805C67.5595 60.673 67.5837 60.5682 67.6041 60.4595L67.6516 60.1328C67.7156 59.6143 67.8292 59.084 67.8818 58.5447C67.913 58.2894 67.975 58.0622 68.0894 57.8821C68.1508 57.9017 68.275 57.9499 68.4177 57.9125C68.5609 57.8782 68.6759 57.7528 68.7197 57.6125C68.8403 57.1907 68.6245 56.8998 68.8349 56.8231C68.8885 56.8075 68.9788 56.8099 69.1103 56.8735C69.2399 56.9344 69.4062 57.0742 69.5221 57.2654C69.5815 57.3601 69.6283 57.4615 69.6657 57.5615C69.6814 57.6075 69.6972 57.6534 69.7131 57.7009C69.723 57.722 69.7328 57.7431 69.7429 57.7657C69.7814 57.8549 69.8139 57.9527 69.8406 58.0607C69.9144 58.3325 69.9356 58.6258 69.9539 58.9196C69.957 59.0668 69.9513 59.2155 69.9453 59.3628C69.9415 59.4366 69.9378 59.5104 69.9323 59.5829C69.9224 59.6563 69.9139 59.7293 69.9052 59.8009C69.754 61.008 69.4328 62.2009 68.8852 63.3195C68.6106 63.8782 68.2651 64.4067 67.8715 64.9041C67.4697 65.3984 67.0001 65.8361 66.4916 66.2349L66.1505 64.3348C66.4094 64.3866 66.6694 64.4444 66.9197 64.5251C67.6958 64.763 68.4657 65.1558 68.9903 65.7121C70.5176 67.3254 71.4451 69.1907 72.1018 70.9971L72.122 71.0514C72.3114 71.5724 72.0431 72.1498 71.5206 72.3394C71.0052 72.5263 70.4368 72.2655 70.2391 71.7581C70.153 71.5372 70.0796 71.311 70.0289 71.0839C69.8157 70.1512 69.8476 69.218 70.0269 68.3517C70.1166 67.9186 70.2455 67.4922 70.4047 67.0909C70.5449 66.7372 70.6884 66.3677 70.8583 65.992C71.0697 65.5237 71.3211 65.0407 71.6434 64.5878C71.9607 64.1328 72.3544 63.7222 72.7787 63.3732L73.2319 64.8119C72.6645 64.7383 72.1275 64.5436 71.6625 64.2646C71.1948 63.9876 70.7945 63.6348 70.4562 63.2451C70.2847 63.0499 70.1338 62.8419 69.9909 62.628C69.8543 62.4145 69.7234 62.1817 69.6217 61.9681C69.4098 61.5348 69.2351 61.1056 69.0717 60.6714C68.8726 60.1384 68.7327 59.604 68.6737 59.0707C68.615 58.5388 68.6322 58.0057 68.772 57.5119C68.8048 57.4041 68.8585 57.32 68.9251 57.2656L68.9263 57.2898C68.9442 57.3049 68.9518 57.3477 68.9364 57.39C68.9212 57.4338 68.888 57.4702 68.8634 57.4943C68.811 57.5431 68.7839 57.5708 68.786 57.6085C68.7917 57.641 68.8167 57.696 68.9449 57.6977C69.0073 57.6974 69.1074 57.6691 69.1976 57.5846C69.2884 57.5031 69.3412 57.3796 69.3549 57.2934L69.3492 57.2091C69.4477 57.2496 69.5304 57.3295 69.5895 57.4577C69.8676 58.0499 70.1597 58.6701 70.4499 59.2876C70.6892 59.7983 70.8704 60.3512 71.1104 60.8481C71.1205 60.8448 71.1305 60.8415 71.1421 60.8379L71.145 60.8374Z" fill="#ff69ba"/>
</g>
<defs fill="#f2f3f4">
<clipPath id="clip0_2015_608" fill="#f2f3f4">
<rect width="75" height="75" fill="#f2f3f4" transform="translate(0.0578566 13.0815) rotate(-10)"/>
</clipPath>
</defs>
</svg>