<?xml version="1.0" encoding="UTF-8"?>
<svg xmlns="http://www.w3.org/2000/svg" xmlns:xlink="http://www.w3.org/1999/xlink" width="250px" height="188px" viewBox="0 0 250 188" version="1.1">
<g id="surface1">
<path style=" stroke:none;fill-rule:nonzero;fill:rgb(0%,0%,0%);fill-opacity:1;" d="M 143.394531 121.667969 C 159.867188 122.257812 173.714844 116 186.125 105.664062 C 200.257812 93.890625 211.21875 79.515625 220.816406 63.980469 C 223.722656 59.273438 226.511719 54.492188 229.53125 49.859375 C 230.339844 48.617188 231.664062 47.351562 233.007812 46.941406 C 233.933594 46.65625 235.300781 47.824219 236.476562 48.347656 C 236.117188 49.039062 235.789062 49.75 235.386719 50.417969 C 234.308594 52.21875 233.042969 53.921875 232.136719 55.800781 C 229.179688 61.914062 226.449219 68.136719 223.429688 74.21875 C 221.402344 78.328125 219.167969 82.328125 216.734375 86.210938 C 215.195312 88.652344 212.980469 90.65625 211.277344 93.011719 C 208.582031 96.746094 206.398438 100.898438 203.40625 104.351562 C 198.738281 109.726562 193.980469 115.164062 188.527344 119.683594 C 176.472656 129.679688 162.566406 134.5625 146.664062 133.574219 C 139.265625 133.113281 131.929688 132.949219 124.933594 130.074219 C 124.171875 129.761719 122.742188 130.257812 121.996094 130.851562 C 114.472656 136.828125 105.832031 139.96875 96.378906 140.554688 C 89.308594 140.996094 82.0625 141.5625 75.140625 140.492188 C 69.324219 139.601562 63.648438 136.855469 58.3125 134.140625 C 53.566406 131.726562 49.164062 128.488281 44.972656 125.152344 C 39.011719 120.398438 34.765625 114.183594 31.957031 107.097656 C 31.550781 106.078125 32.246094 104.195312 33.054688 103.238281 C 33.949219 102.167969 35.234375 102.683594 36.699219 103.339844 C 41.28125 105.398438 43.140625 109.691406 45.636719 113.402344 C 50.363281 120.4375 57.160156 124.59375 64.933594 126.800781 C 78.191406 130.570312 91.386719 128.984375 104.191406 124.34375 C 111.109375 121.835938 111.042969 121.550781 106 116.574219 C 99.363281 110.019531 95.695312 102.199219 96.203125 92.773438 C 96.792969 81.832031 105.859375 74.140625 116.777344 74.949219 C 120.207031 75.199219 122.539062 77.304688 124.777344 79.46875 C 129.871094 84.386719 132.714844 90.523438 133.707031 97.488281 C 134.734375 104.691406 134.925781 111.839844 131.507812 118.609375 C 130.679688 120.246094 131.472656 120.960938 133.195312 121.042969 C 136.597656 121.199219 139.996094 121.453125 143.394531 121.667969 Z M 123.882812 97.914062 C 123.308594 94.847656 122.796875 91.769531 122.140625 88.722656 C 121.738281 86.839844 120.535156 86.339844 118.621094 86.757812 C 112.628906 88.0625 108.191406 93.355469 107.664062 99.703125 C 107.082031 106.621094 111.078125 110.890625 116.003906 114.613281 C 116.390625 114.90625 117.820312 114.398438 118.316406 113.859375 C 122.429688 109.371094 123.617188 103.875 123.882812 97.914062 Z M 163.40625 122.164062 L 163.71875 122.75 L 176.089844 117.480469 C 175.964844 117.1875 175.835938 116.890625 175.710938 116.59375 Z M 105.289062 127.550781 L 105.628906 128.328125 L 113.066406 124.25 C 112.910156 123.960938 112.753906 123.679688 112.597656 123.390625 C 110.164062 124.777344 107.726562 126.164062 105.289062 127.550781 Z M 105.289062 127.550781 "/>
<path style=" stroke:none;fill-rule:nonzero;fill:rgb(0%,0%,0%);fill-opacity:1;" d="M 13.527344 105.585938 C 14.050781 99.414062 14.847656 92.773438 15.066406 86.109375 C 15.144531 83.785156 14.425781 81.585938 17.003906 80.269531 C 17.535156 79.996094 18.308594 79.566406 18.699219 79.757812 C 25.355469 83.035156 32.78125 83.121094 39.757812 85.003906 C 44.429688 86.269531 48.78125 88.3125 51.742188 92.398438 C 52.332031 93.210938 52.292969 94.484375 52.539062 95.546875 C 51.492188 95.757812 50.375 96.3125 49.398438 96.128906 C 42.308594 94.773438 35.230469 93.335938 28.183594 91.773438 C 25.96875 91.285156 25.570312 92.140625 25.308594 94.085938 C 24.703125 98.570312 23.746094 103.007812 23.089844 107.488281 C 22.804688 109.402344 22.914062 111.375 22.863281 113.320312 C 22.863281 113.480469 23.113281 113.671875 23.085938 113.8125 C 22.785156 115.269531 22.640625 117.867188 22.082031 117.960938 C 20.347656 118.21875 18.578125 117.910156 17.023438 117.09375 C 12.542969 114.59375 13.925781 110.015625 13.527344 105.585938 Z M 13.527344 105.585938 "/>
</g>
</svg>
