<?xml version="1.0"?>
<svg width="32" height="32" xmlns="http://www.w3.org/2000/svg" xmlns:svg="http://www.w3.org/2000/svg" enable-background="new 0 0 32 32" version="1.1" xml:space="preserve">
 <g class="layer">
  <title>Layer 1</title>
  <path d="m7.75,4.19a0.5,0.5 0 0 0 -0.5,0.5l0,10a0.5,0.5 0 0 0 0.5,0.5l5.71,0l0.77,8.8a2.97,2.97 0 0 0 -0.98,2.2c0,1.65 1.35,3 3,3s3,-1.35 3,-3c0,-0.85 -0.35,-1.64 -0.98,-2.2l0.77,-8.8l5.71,0a0.5,0.5 0 0 0 0.5,-0.5l0,-10a0.5,0.5 0 0 0 -0.5,-0.5l-17,0zm0.5,1l16,0l0,7l-16,0l0,-7zm0,8l5.04,0l0.09,1l-5.13,0l0,-1zm6.04,0l3.91,0l-0.08,1l-3.74,0l-0.09,-1zm4.92,0l5.04,0l0,1l-5.13,0l0.09,-1zm-4.74,2l3.56,0l-0.78,8.97a0.5,0.5 0 0 0 0.2,0.44c0.51,0.39 0.8,0.97 0.8,1.59c0,1.1 -0.9,2 -2,2s-2,-0.9 -2,-2c0,-0.62 0.29,-1.2 0.8,-1.59a0.5,0.5 0 0 0 0.2,-0.44l-0.78,-8.97z" fill="#010101" id="path5" transform="rotate(180 16.25 16.6875)"/>
  <rect fill="#000000" height="7.06" id="svg_1" stroke="#000000" width="16.38" x="7.72" y="20.75"/>
 </g>
</svg>