<?xml version="1.0" encoding="UTF-8"?>
<svg xmlns="http://www.w3.org/2000/svg" xmlns:xlink="http://www.w3.org/1999/xlink" width="60px" height="60px" viewBox="0 0 60 60" version="1.1">
<g id="surface1">
<path style=" stroke:none;fill-rule:nonzero;fill:rgb(0%,0%,0%);fill-opacity:1;" d="M 54.375 50.625 L 5.625 50.625 C 2.523438 50.625 0 48.101562 0 45 L 0 15 C 0 11.898438 2.523438 9.375 5.625 9.375 L 54.375 9.375 C 57.476562 9.375 60 11.898438 60 15 L 60 45 C 60 48.101562 57.476562 50.625 54.375 50.625 Z M 5.625 46.875 L 54.375 46.875 C 55.40625 46.875 56.25 46.035156 56.25 45 L 56.25 15.59375 L 31.21875 37.046875 C 30.867188 37.351562 30.433594 37.5 30 37.5 C 29.566406 37.5 29.132812 37.351562 28.78125 37.046875 L 3.75 15.59375 L 3.75 45 C 3.75 46.035156 4.59375 46.875 5.625 46.875 Z M 53.371094 13.125 L 6.628906 13.125 L 30 33.15625 Z M 53.371094 13.125 "/>
</g>
</svg>
