<?xml version="1.0"?>
<svg width="800" height="600" xmlns="http://www.w3.org/2000/svg" xmlns:svg="http://www.w3.org/2000/svg" data-name="Layer 0 Image" version="1.1">
 <title>1</title>
 <g class="layer">
  <title>Layer 1</title>
  <path d="m507.46,496.02l-4.61,-4.58l0,-2.33c-2.77,-3.03 -5.47,-5.92 -8.1,-8.87c-2.22,-2.5 -4.21,-5.21 -6.55,-7.58c-2.61,-2.63 -4.89,-5.54 -7.66,-8.09c-2.5,-2.29 -5.83,-4.03 -7.38,-7.14c-1.8,-3.63 -5.74,-4.73 -8.01,-7.78a102.05,102.05 0 0 0 -7.09,-7.83l-0.9,0.9c-8.1,-6.78 -16.07,-13.8 -26.47,-18.29l-0.89,-2.33l-1.68,1.34c-5.4,-2.85 -11.08,-5.41 -16.37,-8.41c-6.52,-3.69 -13.82,-5.82 -19.85,-10.55a27.59,27.59 0 0 0 -10.81,-4.76c-2.32,-0.52 -1.86,-2.02 -2.72,-3.24l-2.58,1.59l-13.23,-6.98l2.2,-2.4c-1.4,-1.97 -1.33,-5.15 -6.29,-5.97l5.8,-2.03l-4.34,-4.02l-2.69,1.64l-4.06,-2.3c0.1,-0.66 0.02,-1.48 0.29,-1.61c1.98,-1.03 4.03,-1.92 6.05,-2.85c0.7,-3.8 -3.03,-3.46 -4.65,-5.06l1.29,-1.29l-1.52,-3.02l6.38,-4.44c6.65,-0.5 14.37,-0.46 21.81,-1.91c3.83,-0.74 8.08,-0.13 11.3,-1.65c3.99,-1.89 7.98,-0.09 11.47,-1.47c3.84,-1.53 7.86,-0.52 11.39,-1.66c3.87,-1.25 7.88,-0.44 11.41,-1.57c8.4,-2.68 17.5,-2.3 25.54,-6.26c3.58,0.98 7.15,-2.15 10.73,0c3.7,-2.34 7.94,-2.93 12.11,-3.78c5.89,-1.2 11.29,-4.3 17.53,-4.37c1.76,-0.02 3.5,-1.4 6.36,-2.64l-21.93,-6.35l-3.43,-4.28l-5.75,1.66c-7.24,-2.8 -16.02,-3.04 -22.38,-9.06c-2.44,3 -5.94,0.72 -8.55,1.54c-8.58,-4.37 -17.75,-4.83 -27.5,-7.28c-0.11,-0.12 -1,-1.1 -1.86,-2.04c-3.47,-1.32 -7.15,0.46 -10.68,-1.79c-2.57,-1.63 -6.47,-1.98 -9.64,-1.64a18.85,18.85 0 0 1 -10.45,-2.1c-3.51,-1.82 -6.71,-0.6 -10.3,-1.55c-0.61,-0.67 -1.52,-1.65 -2.77,-3.02c-7.97,0.74 -16.03,-0.81 -24.39,-1.45l-2.57,-3.39l-8.25,0l2.49,-2.9c-4.13,0.4 -6.49,-1.8 -8.68,-4.87c0.43,-0.74 0.92,-1.61 1.34,-2.34l-12,-12.32c0.61,-2.13 1.08,-3.75 1.68,-5.84l2.75,-1.33l0,-1.88l-3.17,-1.07c-0.35,-4.75 2.46,-7.9 5.65,-10.78c3.74,-0.64 3.74,-0.64 6.28,-5.3l-3.41,1.92c-0.19,-0.73 -0.4,-1.55 -0.7,-2.7l5.12,-0.76c-0.63,-0.8 -1.05,-1.33 -1.36,-1.72l9.18,-12.68l3.58,0l-1.9,-2.24l3,-1.01l0,-3.41c1.04,-1.04 1.8,-1.8 2.56,-2.56c1.75,1.46 4.59,1.74 5.01,4.66c2.57,-3.58 -0.73,-5.13 -2.84,-7.71l4.14,-0.36c2,-3.3 4.66,-6.15 4.79,-10.7c0.11,-3.79 3.87,-5.66 7.65,-7.2l-1.73,-2.33l4.34,-0.84c-0.05,-0.38 -0.13,-0.94 -0.36,-2.62c1.5,-2.11 4.25,-4.78 5.5,-8.02c1.79,-4.63 6.84,-6.17 8.59,-10.94c1.53,-4.17 4.4,-7.9 7.59,-11.4c4.34,-4.78 7.55,-10.59 11.51,-16.35l-4.41,0c-0.36,0.77 -0.88,1.87 -1.59,3.38l-3.49,-2.19a55.83,55.83 0 0 0 -6.29,3.76c-1.64,1.27 -4.51,1.42 -4.5,4.4c-3.05,-0.8 -4.69,1.45 -6.47,3.2l-1.21,-1.22c-6.57,6.39 -14.52,10.5 -22.84,14.06l-6.06,6.35l-2.67,0l-10.15,7.27c-0.93,-1.64 -1.59,-2.8 -2.44,-4.29l-6.47,3.69l1.39,5.68l-14.81,9.88c0.71,-3.12 2.32,-3.94 3.46,-5.35c-3.18,-1.95 -3.89,1.49 -5.62,2.44c-0.79,-0.57 -1.57,-1.14 -3.24,-2.36l-1.12,4.32l-1.23,-1.19l1.87,3.19l-5.64,2.8l-1.99,-1.74l-1.81,1.66c0.41,2.19 0.84,4.52 1.23,6.64c-6.46,3.8 -12.62,7.42 -18.77,11.04q-0.33,-0.32 -0.65,-0.65l2,-2.79l-11.3,2.08c-0.91,-3.08 -1.75,-5.93 -2.97,-10.07l-2.96,-2.33c8.09,-5.24 14.44,-11.81 21.15,-17.83c9.27,-8.32 19.85,-14.67 29.54,-22.31c10.1,-7.96 21.24,-14.58 31.91,-21.82c6.08,-4.12 12.03,-8.44 18.18,-12.44c8.64,-5.61 17.21,-11.37 26.22,-16.34c3.96,-2.19 6.9,-5.7 11.47,-7.24c3.92,-1.32 7.17,-4.67 10.69,-7.16c8.98,-6.36 18.14,-12.45 26.4,-19.82c5.37,-4.8 11.38,-8.9 17.95,-13.96l9.6,0c0.07,2.33 0.98,4.84 -1.58,7.39l5.96,0.66c3.84,6.59 4.5,13.68 3.48,21.95l-5.03,3.6l-4.93,1.97c0.91,2.52 1.6,4.42 2.24,6.2c-2.14,2.89 -4.08,5.93 -6.44,8.59c-2.02,2.27 -1.89,6.53 -6.92,5.97l2.27,2.27c-3.73,1.44 -2.79,7.32 -7.9,7.39c-0.17,1.4 -0.32,2.67 -0.5,4.17l-2.2,0.5c-3.64,9.56 -10.51,17.11 -16.89,25.2c0,0.59 0.3,1.58 -0.05,2.17c-1.43,2.38 -2.6,5.8 -4.74,6.67c-3.48,1.41 -3.29,6.61 -7.89,6.26c-0.11,1.95 -0.22,3.76 -0.33,5.69l-2.95,1.08c-0.06,0.95 -0.11,1.98 -0.2,3.57l-6.75,6.41c-0.85,-1.8 -1.35,-2.87 -2.04,-4.35c-1.35,2.02 -2.57,3.84 -3.79,5.67c0.5,0.8 1,1.6 1.8,2.87c-1.28,0.76 -2.66,1.25 -3.54,2.21c-0.76,0.84 -0.95,2.2 -1.39,3.31l2,2.91l-4.4,2.58l-4,-1.13l0,3.26c-2.73,1.46 -4.66,2.46 -5.41,6c-1.28,6.01 -5.03,11.28 -7.89,16.78c-0.44,0.84 -2.01,1.09 -3.05,1.61l0.95,1.14c-2.25,2.64 -4.01,5.4 -6.42,7.33c-2.46,1.96 -5.57,3.11 -9.1,5c-0.72,1.76 0.97,2.22 5.33,1.34l-4.9,3.93l-4.03,-2.02l2.1,5.41l-1.58,2.13c0.75,0.7 1.7,2.26 2.45,2.17c3.66,-0.45 6.43,1.3 9.11,2.74c5.89,-1.54 11.05,1.71 16.51,2.32a93.72,93.72 0 0 1 17.84,3.48c5.5,1.75 11.08,3.68 16.67,4.19c5.93,0.54 11.35,2.68 17.11,3.62a101.87,101.87 0 0 1 17.3,4.77c5.43,1.92 11.15,2.49 16.61,4.51a106.28,106.28 0 0 0 17.26,4.83c5.76,1.07 10.86,3.73 16.44,5.1c5.56,1.37 11.06,3.02 16.5,4.82c5.65,1.86 11.16,4.1 16.77,6.1c5.39,1.91 10.82,3.71 16.68,5.72l5.15,5.14l-1.44,1.63c-0.25,3.44 2.71,3.4 4.31,4.31c0.64,3.45 1.23,6.69 1.88,10.18l-1.31,1.42c3.76,4.2 0.9,7.79 -1.48,10.93c-2.4,3.18 -5.59,5.76 -8.63,8.8c-7.75,1.09 -14.47,7.37 -23.31,4.99l-0.65,3.15l-15.47,2.54c-0.05,0.19 -0.33,1.1 -0.53,1.78c-4.47,1.24 -8.77,2.55 -13.15,3.59c-1.72,0.4 -3.99,0.9 -5.3,0.13a8.36,8.36 0 0 0 -9.42,0c-1.52,0.89 -3.77,0.52 -5.63,1.82l6.31,0c-0.46,0.97 -0.66,1.67 -0.8,1.66c-4.21,-0.39 -8.1,1.22 -11.88,2.48c-3.19,1.06 -6.76,1.63 -9.08,0.33c-3,-1.69 -5.59,-0.42 -9.54,-1.75l1.88,2.62c-4.76,3.06 -6.75,3.92 -10.5,2.07c-3,-1.48 -5.49,-0.33 -8.28,0.35l7.94,0.9l-14.01,2.97c12.71,5.73 22.24,13.73 32.53,20.59c10.47,6.99 15.34,11.43 21.79,19.64c1.17,1.49 3.28,2.21 4.58,3.63c2.26,2.47 4.02,5.4 6.36,7.77c2.16,2.17 5.16,3.53 7.17,5.8c5.32,6.01 9.61,12.89 15.36,18.58c0.56,0.56 0.23,2.02 0.32,3.18c1.14,0.7 2.79,1.19 3.56,2.29c3.74,5.37 7.65,10.7 10.72,16.46c2.45,4.58 5.26,8.95 7.38,13.81c2.09,4.8 2.43,9.74 3.78,14.5c1.39,4.92 0.04,10.22 -2.35,15.36c-5.67,-4.89 -11.02,1.3 -16.74,0.96l8.09,0.63l-0.08,1.28l-5.33,0c-1.61,0 -3.22,-0.02 -4.82,0.01c-1.8,0.04 -3.8,-0.5 -5,1.52c-1,-2.37 -2.94,0.42 -3.94,-0.64c-1.81,-1.88 -2.67,2.11 -4.56,0.5a8.3,8.3 0 0 0 -4.23,-1.33a43.48,43.48 0 0 0 -5.31,-0.05l-1.31,-3.75l-1.23,3.57l-3.5,0.3l-5.02,-5.02l-3.39,0.19l-1.23,3.34c-0.65,-1.36 -1.15,-2.4 -1.64,-3.44l-1.77,0l-1.58,3.36c-4.62,-1.5 -8.93,-3.66 -13.99,-3.54c-2.29,0.05 -4.62,-1.62 -7.18,-2.6l-0.91,0.7l-13.42,-3.58l3.99,-3.25a12.19,12.19 0 0 0 -6.9,0.85a6.47,6.47 0 0 1 -0.61,-0.46c-0.39,-0.36 -0.76,-0.75 -1.21,-1.2c-0.35,0.39 -0.7,0.79 -1.07,1.17a7.17,7.17 0 0 1 -0.62,0.5l-7.05,-2.3l0,-7.07l-1.09,-0.53c-0.66,1.02 -1.32,2.03 -2.26,3.47l1.96,3.56l-9.71,-2.4l-0.54,-2.46c-4.05,2.74 -7.03,0.52 -10.07,-1.82a10.73,10.73 0 0 0 -3.31,-1.69c-2.62,-0.82 -5.3,-1.46 -8.49,-2.32c-0.02,-0.1 -0.23,-0.81 -0.67,-2.28l-6.12,0.41c0.45,0.38 0,-0.26 -0.61,-0.47c-4.92,-1.73 -10.04,-2.87 -14.82,-5c-0.45,-0.2 -1.05,-0.04 -1.55,-0.17c-3.24,-0.81 -4.7,-4.98 -8.51,-4.65c-3.36,0.29 -5.46,-2.38 -8.3,-3.29c-3.07,-0.98 -6.04,-2.24 -9.03,-3.43a19.85,19.85 0 0 0 -2.67,-1.3a19.04,19.04 0 0 0 -3.7,-0.05l-2.42,-3.2l-5.45,0c-3.23,-3.38 -6.43,-6.86 -11.77,-6.47a1.97,1.97 0 0 1 -1.43,-0.37c-4.58,-5.2 -11.81,-5.2 -17.28,-8.9c-5.28,-3.56 -11.72,-5.35 -17.34,-8.48c-7.44,-4.15 -14.58,-8.83 -21.83,-13.32a4.87,4.87 0 0 1 -1.69,-1.7c-3.43,-6.34 -6.79,-12.71 -9.85,-18.48c0.77,-3.95 1.4,-7.2 2.21,-11.38l5.47,-3.36c4.3,1.67 8.56,3.07 12.6,4.94a88.5,88.5 0 0 1 11.8,6.43c8.13,5.42 17.27,8.87 25.72,13.63c5,2.83 10.85,4.16 14.99,8.48c9.45,2.5 17.82,7.48 26.65,11.41c3.81,1.7 7.41,4 11.56,5.1c3.82,1.02 7.48,2.63 11.22,3.96c11.67,4.18 23.33,8.4 35.03,12.49q9.15,3.19 18.43,5.97c6.24,1.85 12.78,3.08 18.79,5.17c10.55,3.67 21.65,4.28 32.23,7.52c5.59,1.71 11.81,1.48 17.77,1.76c5.8,0.27 11.63,0.06 19.12,0.06z" id="svg_1" transform="rotate(26.2319 400 300.001)"/>
 </g>
</svg>