<?xml version="1.0"?>
<svg width="851.034" height="557.34684" xmlns="http://www.w3.org/2000/svg" xmlns:svg="http://www.w3.org/2000/svg">
 <g class="layer">
  <title>Layer 1</title>
  <path d="m785.2,269.13l-690.09,0c-9.25,0 -16.78,-7.53 -16.78,-16.78l0,-235.57c0,-9.25 7.53,-16.78 16.78,-16.78l690.09,0c9.25,0 16.78,7.53 16.78,16.78l0,235.57c0,9.25 -7.53,16.78 -16.78,16.78zm-690.09,-267.13c-8.15,0 -14.78,6.63 -14.78,14.78l0,235.57c0,8.15 6.63,14.78 14.78,14.78l690.09,0c8.15,0 14.78,-6.63 14.78,-14.78l0,-235.57c0,-8.15 -6.63,-14.78 -14.78,-14.78l-690.09,0z" fill="#3f3d56" id="svg_1"/>
  <rect fill="#e6e6e6" height="1.68" id="uuid-dac6dc9f-03bc-4283-a90c-97bcdcbf45dc" width="851.03" y="550.56"/>
  <rect fill="#e6e6e6" height="1.68" id="uuid-2f9646f7-bb94-4523-8d2e-fd8f0877664c" width="851.03" y="464.56"/>
  <g id="svg_2">
   <path d="m387.84,277.79c0.61,7.68 5.07,13.59 9.96,13.2c4.88,-0.39 8.35,-6.93 7.74,-14.61c-0.21,-3.07 -1.14,-6.05 -2.73,-8.69l-3,-32.51l-15.23,1.74l4.58,31.86c-1.15,2.86 -1.61,5.95 -1.32,9.01z" fill="#ffb6b6" id="uuid-bb35f39c-94aa-41c4-b5d9-34ca9a9e88f1-1223"/>
   <path d="m369.65,126.13s14.23,-7.53 21.45,3.73c7.22,11.26 12.2,133.02 12.2,133.02l-20,2.13l-3.8,-85.8l-9.85,-53.08z" fill="#e6e6e6" id="svg_3"/>
   <g id="svg_4">
    <polygon fill="#ffb6b6" id="svg_5" points="340.11391 458.20431 351.70127 458.20318 357.21344 413.50859 340.11158 413.50978 340.11391 458.20431"/>
    <path d="m379.81,457.94l0,0c0.36,0.61 0.55,2.57 0.55,3.28l0,0c0,2.17 -1.76,3.93 -3.93,3.93l-35.88,0c-1.48,0 -2.69,-1.2 -2.69,-2.68l0,-1.5s-1.77,-4.49 1.88,-10.02c0,0 4.55,4.33 11.33,-2.46l2.01,-3.62l14.48,10.59l8.04,0.99c1.75,0.22 3.31,-0.03 4.21,1.49l0,0z" fill="#2f2e41" id="svg_6"/>
   </g>
   <g id="svg_7">
    <polygon fill="#ffb6b6" id="svg_8" points="407.16841 456.28595 418.39497 453.41695 412.67359 408.74865 396.10412 412.98257 407.16841 456.28595"/>
    <path d="m445.57,446.21l0,0c0.5,0.49 1.17,2.35 1.34,3.03l0,0c0.54,2.11 -0.73,4.25 -2.83,4.79l-34.77,8.88c-1.44,0.36 -2.9,-0.5 -3.27,-1.94l-0.37,-1.44s-2.83,-3.92 -0.66,-10.18c0,0 5.48,3.07 10.37,-5.18l1.05,-4.01l16.66,6.68l8.02,-1.03c1.76,-0.23 3.21,-0.86 4.46,0.4l0,0z" fill="#2f2e41" id="svg_9"/>
   </g>
   <polygon fill="#ffb6b6" id="svg_10" points="330.5274 116.5252 329.97801 112.53821 336.50788 96.59024 354.44935 94.59675 358.32324 117.42831 330.5274 116.5252"/>
   <polygon id="svg_11" opacity="0.1" points="330.5274 116.5252 329.97801 112.53821 336.50788 96.59024 354.44935 94.59675 358.32324 117.42831 330.5274 116.5252"/>
   <polygon fill="#2f2e41" id="svg_12" points="309.59569 229.15772 301.6217 251.08618 307.60219 263.04715 337.50463 436.4813 357.38465 436.4813 353.4526 282.98211 399.30301 436.4813 418.97897 436.4813 403.15657 332.81951 391.32902 237.13171 384.15521 232.6999 349.46561 213.20976 309.59569 229.15772"/>
   <polygon fill="#e6e6e6" id="svg_13" points="360.42983 244.10894 348.46886 246.10244 332.52089 208.22602 368.40382 208.22602 360.42983 244.10894"/>
   <polygon fill="#2f2e41" id="svg_14" points="384.35179 234.14146 360.42983 244.10894 352.45585 226.16748 348.46886 246.10244 306.60544 232.62639 312.58593 208.22602 306.60544 128.48618 327.71662 114.41198 330.5274 112.53821 356.44284 114.53171 358.71546 115.76767 374.38431 124.49919 378.3713 190.28455 384.35179 234.14146"/>
   <polygon fill="#e6e6e6" id="svg_15" points="358.71546 115.76767 347.47211 163.37236 327.71662 114.41198 330.5274 112.53821 356.44284 114.53171 358.71546 115.76767"/>
   <polygon fill="#2f2e41" id="svg_16" points="339.49813 112.53821 335.51114 119.4047 339.49813 121.69353 337.50463 163.49619 345.47862 174.33659 353.4526 158.31478 347.47211 121.69353 349.46561 112.53821 339.49813 112.53821"/>
   <circle cx="345.48" cy="89.61" fill="#ffb6b6" id="svg_17" r="18.94"/>
   <path d="m333.38,91.27l4.09,1.79l1.78,-10.71s7.15,-3.58 12.5,-1.79s14.29,0 14.29,0c0,0 0,-17.86 -12.5,-17.86s-25,1.79 -25,7.14s-5.36,10.72 -5.36,10.72c0,0 -7.14,10.71 0,17.86c7.14,7.14 10.72,7.14 10.72,7.14l-0.52,-14.29z" fill="#2f2e41" id="svg_18"/>
   <path d="m296.63,277.23c-0.21,7.7 3.6,14.05 8.5,14.18s9.04,-6 9.25,-13.7c0.12,-3.08 -0.49,-6.14 -1.79,-8.93l0.46,-32.65l-15.32,0.11l1.17,32.17c-1.45,2.72 -2.23,5.74 -2.27,8.82z" fill="#ffb6b6" id="uuid-97233535-ec91-4408-928f-bf1e5273ca3e-1224"/>
   <path d="m315.59,124.46s-12.96,-3.99 -18.94,7.98c-5.98,11.96 1.99,133.56 1.99,133.56l20.12,0l-5.34,-85.72l2.17,-55.82z" fill="#e6e6e6" id="svg_19"/>
  </g>
  <g id="svg_20">
   <path d="m812.66,351.01l-48.32,-14.79c-1.07,-0.33 -2.19,-0.45 -3.31,-0.36l-244.9,20.85c-3.49,0.29 -4.37,5 -1.22,6.54l7.85,3.82l-0.21,0l0,182.95l7.39,0l0,-179.45l24.58,11.98c1.88,0.91 3.98,1.29 6.07,1.08l2.61,-0.27l0,166.66l7.39,0l0,-167.4l189.42,-19.14l0,186.54l7.4,0l0,-187.28l31.41,-3.18l0,190.46l7.39,0l0,-191.2l5.73,-0.58c4.03,-0.41 4.58,-6.05 0.72,-7.23z" fill="#3f3d56" id="svg_21"/>
   <path d="m587.23,355.98c4.62,0 72.99,-8.31 72.99,-8.31l10.17,13.86l-71.15,13.86l-12.01,-19.41z" fill="#fff" id="svg_22"/>
   <g id="svg_23">
    <polygon fill="#a0616a" id="svg_24" points="662.26939 542.91667 650.39 542.89512 644.81757 497.06436 662.35045 497.09569 662.26939 542.91667"/>
    <path d="m621.57,542.58l0,0c-0.37,0.62 -0.57,2.63 -0.57,3.35l0,0c-0.01,2.23 1.8,4.04 4.02,4.04l36.79,0.07c1.52,0 2.76,-1.23 2.76,-2.75l0,-1.53s1.83,-4.6 -1.91,-10.28c0,0 -4.66,4.43 -11.61,-2.54l-2.05,-3.72l-14.87,10.84l-8.23,1c-1.8,0.22 -3.4,-0.04 -4.33,1.52l0,0z" fill="#2f2e41" id="svg_25"/>
   </g>
   <g id="svg_26">
    <polygon fill="#a0616a" id="svg_27" points="726.02735 521.60456 716.65452 528.67376 684.92538 495.88695 698.75852 485.45309 726.02735 521.60456"/>
    <path d="m693.76,545.62l0,0c0.08,0.71 1.12,2.41 1.55,2.98l0,0c1.32,1.76 3.82,2.11 5.58,0.78l29.02,-21.89c1.2,-0.91 1.44,-2.61 0.54,-3.81l-0.91,-1.21s-1.31,-4.71 -7.64,-6.96c0,0 -1.03,6.28 -10.66,4.93l-3.83,-1.71l-5.26,17.41l-5.89,5.7c-1.29,1.24 -2.7,1.99 -2.5,3.77l0,0.01z" fill="#2f2e41" id="svg_28"/>
   </g>
   <path d="m701.2,284.74c0,10.95 -8.88,19.84 -19.84,19.84c-10.95,0 -19.83,-8.89 -19.83,-19.84s8.88,-19.84 19.83,-19.84s19.84,8.88 19.84,19.84z" fill="#a0616a" id="svg_29"/>
   <path d="m699.33,399.11s-73.03,-4.14 -77.16,4.13s22.34,121.83 22.34,121.83l23.63,-4.95l-11.53,-79.67s60.95,16.14 69.22,-3.16c8.26,-19.29 5.88,-26.47 5.88,-26.47l-32.38,-11.71z" fill="#2f2e41" id="svg_30"/>
   <path d="m718.04,385.23s-71.52,15.33 -73.32,24.4s53.78,111.58 53.78,111.58l21.48,-11.03l-32.2,-73.79s63.05,-0.55 65.92,-21.34c2.87,-20.79 -1.33,-27.09 -1.33,-27.09l-34.33,-2.73z" fill="#2f2e41" id="svg_31"/>
   <path d="m726.2,307.47l-34.36,0l-23.51,38.59s-5.51,24.93 0,27.62c5.51,2.69 5.51,31.63 5.51,31.63l57.87,5.51s8.27,-86.81 5.52,-95.08c-2.76,-8.27 -11.03,-8.27 -11.03,-8.27z" fill="#c81e78" id="svg_32"/>
   <path d="m671.77,332.96l-3.44,40.72l-38.75,-16.45l-9.25,-4.65c-1.81,-2.36 -4.16,-4.25 -6.85,-5.52c-6.7,-3.26 -13.81,-2.45 -15.89,1.81c-2.07,4.26 1.67,10.36 8.37,13.62c2.65,1.34 5.59,2.02 8.57,1.99l27.06,15.37l0.03,-0.06l0.12,0.22l42.43,17.72l9.77,-53.45l-22.17,-11.32z" fill="#a0616a" id="svg_33"/>
   <path d="m667.64,287.49s-20.67,2.76 -12.4,-15.16c0,0 -1.26,-9.71 4.88,-10.36s14.41,-11.68 14.41,-11.68c0,0 18.95,-9.65 28.77,0c9.81,9.64 38.75,66.14 38.75,66.14l-19.29,20.67s-11.6,-30.49 -25.09,-26.96c-13.5,3.53 -25.9,14.06 -25.9,14.06c0,0 -13.69,-6.85 -7.53,-12.82c6.15,-5.97 3.4,-23.89 3.4,-23.89z" fill="#2f2e41" id="svg_34"/>
   <path d="m695.2,317.81s-9.65,-12.4 -16.54,-2.76c-6.89,9.65 -12.4,22.05 -12.4,22.05l27.56,9.64l1.38,-28.93z" fill="#c81e78" id="svg_35" transform="matrix(1 0 0 1 0 0)"/>
   <path d="m799.84,547.28l-32.02,-101.77l0,0l0.08,0l-0.13,-0.17l-0.01,0l-2.28,-7.25l0,0c3.48,-3 5.84,-7.27 6.31,-12.2l-14.63,-80.5c1.01,-10.57 -7.1,-19.81 -17.71,-20.19l-33.03,-0.08c-9.39,-0.33 -17.52,6.45 -18.88,15.75l-0.73,4.93l-10.12,68.83c-0.37,2.47 -0.22,4.91 0.36,7.2l-7.28,0.95l-2.21,0.29l-8.73,1.14l-0.03,0.01l-1.09,0.14l-1.18,0l0,29.57l0.07,0l0,94.5c0,0.61 0.5,1.11 1.11,1.11c0.62,0 1.12,-0.5 1.12,-1.11l0,-94.5l12.95,0l12.93,94.39c0.08,0.56 0.55,0.96 1.11,0.96c0.04,0 0.1,0 0.14,-0.01c0.61,-0.08 1.04,-0.64 0.96,-1.25l-12.88,-94.09l62.15,0c6.17,0 11.89,-1.96 16.55,-5.32l24.64,99.54c0.13,0.5 0.59,0.84 1.08,0.84c0.09,0 0.19,-0.01 0.28,-0.04c0.59,-0.15 0.95,-0.75 0.8,-1.35l-24.88,-100.5c0.33,-0.27 0.66,-0.57 0.97,-0.87l9.9,-0.58l32.18,102.3c0.15,0.47 0.59,0.78 1.06,0.78c0.11,0 0.23,-0.02 0.34,-0.05c0.58,-0.19 0.91,-0.81 0.73,-1.4zm-36.47,-107.61c0.08,-0.05 0.15,-0.1 0.23,-0.15l0,0l0.24,0.76l-0.47,-0.61z" fill="#e6e6e6" id="svg_36"/>
  </g>
  <g id="svg_37">
   <g id="svg_38">
    <polygon fill="#ffb6b6" id="svg_39" points="171.56525 374.77477 193.11428 361.07087 201.87509 366.35537 171.56525 401.18319 171.56525 374.77477"/>
    <path d="m142.1,321.73s-14.32,3.37 -7.58,22.73s28.63,59.78 35.36,57.26c6.74,-2.53 7.58,-27.79 7.58,-27.79c0,0 -0.84,0.84 -4.21,-2.52c-3.37,-3.37 -3.37,-1.83 -3.37,-5.55s-2.75,-6.47 -2.75,-6.47l-3.14,-6.51s0,-30.31 -12.63,-31.99c-12.63,-1.68 -9.26,0.84 -9.26,0.84z" fill="#e6e6e6" id="svg_40"/>
    <ellipse cx="202.72" cy="359.2" fill="#ffb6b6" id="svg_41" rx="14.31" ry="8.84" transform="translate(-194.61752 248.54951) rotate(-45)"/>
   </g>
   <g id="svg_42">
    <polygon fill="#e6e6e6" id="svg_43" points="86.34807 433.29001 101.05215 457.62779 186.74142 452.55742 163.92475 423.14927 86.34807 433.29001"/>
    <path d="m111.95,547.12c-0.5,0 -0.93,-0.37 -1,-0.88l-25.61,-187c-0.07,-0.56 0.32,-1.07 0.87,-1.15c0.55,-0.08 1.07,0.32 1.14,0.87l25.61,187.01c0.07,0.55 -0.31,1.06 -0.87,1.14c-0.05,0.01 -0.09,0.01 -0.14,0.01z" fill="#e6e6e6" id="svg_44"/>
    <path d="m86.35,547.36c-0.56,0 -1.02,-0.46 -1.02,-1.02l0,-187.21c0,-0.56 0.46,-1.01 1.02,-1.01c0.56,0 1.01,0.45 1.01,1.01l0,187.21c0,0.56 -0.45,1.02 -1.01,1.02z" fill="#e6e6e6" id="svg_45"/>
    <path d="m214.88,546.61c-0.43,0 -0.83,-0.27 -0.97,-0.71l-60.59,-192.58c-0.16,-0.54 0.13,-1.1 0.67,-1.27c0.53,-0.17 1.1,0.13 1.27,0.66l60.59,192.58c0.17,0.54 -0.13,1.11 -0.66,1.28c-0.1,0.03 -0.21,0.04 -0.31,0.04z" fill="#e6e6e6" id="svg_46"/>
    <path d="m196.37,546.85c-0.45,0 -0.86,-0.3 -0.98,-0.76l-42.08,-169.97c-0.14,-0.55 0.19,-1.1 0.73,-1.24c0.55,-0.13 1.1,0.19 1.23,0.74l42.09,169.97c0.14,0.54 -0.19,1.09 -0.73,1.23c-0.09,0.02 -0.17,0.03 -0.26,0.03z" fill="#e6e6e6" id="svg_47"/>
    <polygon fill="#e6e6e6" id="svg_48" points="86.34807 362.11717 156.57271 361.03722 169.50216 434.81112 87.36214 434.81112 86.34807 362.11717"/>
   </g>
   <g id="svg_49">
    <polygon fill="#ffb6b6" id="svg_50" points="194.26591 470.59655 176.56797 501.75497 197.11665 506.27891 205.68358 484.11776 194.26591 470.59655"/>
    <path d="m182.92,495.87s-0.68,-5.08 -4.73,-3.47s-15.71,7.61 -15.71,7.61c0,0 30.44,49.45 36.21,47.15c5.78,-2.31 -1.14,-16.29 -1.14,-16.29l1.53,-24.7l-16.16,-10.3z" fill="#2f2e41" id="svg_51"/>
    <path d="m116,410.14s-6.32,29.04 13.05,39.15c19.36,10.1 85.45,-14.74 85.45,-14.74l-30.31,45.42l21.05,8.47s47.99,-63.15 44.63,-73.25c-3.37,-10.11 -26.1,-10.95 -26.1,-10.95l-51.36,2.53l-13.47,-4.21l-42.94,7.58z" fill="#2f2e41" id="svg_52"/>
   </g>
   <g id="svg_53">
    <polygon fill="#ffb6b6" id="svg_54" points="168.08352 484.4253 140.26086 507.00768 157.75463 518.69879 173.79831 501.17426 168.08352 484.4253"/>
    <path d="m148.32,503.84s1.21,-4.98 -3.14,-4.95s-17.4,1.37 -17.4,1.37c0,0 10.35,57.13 16.57,57.09c6.22,-0.05 4.86,-15.58 4.86,-15.58l10.41,-22.46l-11.3,-15.47z" fill="#2f2e41" id="svg_55"/>
    <path d="m117.18,399.63s-16.45,24.76 -2.09,41.21c14.36,16.46 84.96,17.38 84.96,17.38l-44.76,31.27l16.53,15.55s67.67,-41.36 68.21,-51.99c0.54,-10.64 -20.32,-19.7 -20.32,-19.7l-48.76,-16.33l-11.02,-8.82l-42.75,-8.57z" fill="#2f2e41" id="svg_56"/>
   </g>
   <path d="m159.44,342.28s-15.99,-5.89 -23.57,-5.89c-0.73,0 -1.44,0.08 -2.16,0.24c-4.85,1.02 -9.31,5.19 -11.45,7.46c-0.83,0.9 -1.31,1.49 -1.31,1.49c0,0 0.05,-0.58 0.15,-1.59c0.5,-5.36 2.33,-22.93 5.63,-34.18c1.17,-4.02 2.53,-7.22 4.09,-8.78c3.63,-3.64 5.3,-8 6.08,-11.25c0.65,-2.79 0.65,-4.75 0.65,-4.75l-6.13,-2.64l-1.14,-7.43c-0.2,0.88 -1.14,2.59 -4.28,5.86c-0.27,0.28 -0.56,0.52 -0.87,0.72c-4.53,2.84 -13.77,-2.11 -18.75,-5.22c2.08,-7.2 5.83,-13.78 12.65,-14.86c16,-2.53 16,-11.79 26.1,-1.69c0.83,0.84 1.68,1.64 2.52,2.41c3.23,6.18 4.41,14.47 4.83,20.23c0.3,4.03 0.23,6.83 0.23,6.83c0,0 4.21,25.26 10.94,30.31c6.74,5.05 -4.21,22.73 -4.21,22.73z" fill="#2f2e41" id="svg_57"/>
   <polygon fill="#ffb6b6" id="svg_58" points="128.29151 301.87125 116.91538 318.55786 142.6045 325.44557 142.6045 301.87125 128.29151 301.87125"/>
   <polygon id="svg_59" opacity="0.1" points="128.29151 301.87125 116.91538 318.55786 142.6045 325.44557 142.6045 301.87125 128.29151 301.87125"/>
   <path d="m144.2,317.94l-24.41,-10.1s-32.84,14.31 -30.31,42.1c2.52,27.78 26.1,75.77 26.1,75.77l47.14,-20.2l-5.05,-53.89l-13.47,-33.68z" fill="#e6e6e6" id="svg_60"/>
   <circle cx="133.73" cy="287.78" fill="#ffb6b6" id="svg_61" r="21.54"/>
   <path d="m162.81,279.98c-4.21,4.21 -7.58,8.42 -7.58,8.42l-1.68,-6.74s-0.39,0.29 -1.07,0.75c-2.67,1.81 -9.83,6.39 -15.58,7.37c-2.56,0.44 -4.84,0.16 -6.32,-1.38c-3.14,-3.27 -4.07,-4.98 -4.28,-5.86l-1.13,7.43l-6.14,2.64s0,9.24 6.74,16c0.32,0.33 0.64,0.73 0.96,1.2c3.21,4.85 5.52,16.72 6.98,26.82c1.3,8.97 1.92,16.53 1.92,16.53c0,0 -6.37,-7.98 -13.37,-9.07c-0.38,-0.05 -0.77,-0.1 -1.16,-0.1c-0.12,-0.02 -0.26,-0.02 -0.39,-0.02c-7.57,0 -23.57,5.89 -23.57,5.89c0,0 -10.95,-17.68 -4.21,-22.73c6.74,-5.05 10.95,-30.31 10.95,-30.31c0,0 -0.28,-10.81 2.5,-20.5c2.08,-7.2 5.83,-13.78 12.65,-14.86c16,-2.53 16,-11.79 26.1,-1.69c0.83,0.84 1.68,1.64 2.52,2.41c9.41,8.66 19.03,13.94 15.16,17.8z" fill="#2f2e41" id="svg_62"/>
   <rect fill="#3f3d56" height="158" id="svg_63" width="8" x="60.33" y="393"/>
   <rect fill="#3f3d56" height="158" id="svg_64" width="8" x="254.33" y="393"/>
   <rect fill="#c81e78" height="53" id="svg_65" width="53" x="163.33" y="325"/>
   <g id="svg_66">
    <polygon fill="#ffb6b6" id="svg_67" points="127.78436 382.35224 149.33339 368.64833 158.09421 373.93283 127.78436 408.76065 127.78436 382.35224"/>
    <path d="m98.32,329.31s-14.32,3.37 -7.58,22.73c6.73,19.37 28.62,59.78 35.36,57.25c6.74,-2.52 7.58,-27.78 7.58,-27.78c0,0 -0.84,0.84 -4.21,-2.53c-3.37,-3.36 -3.37,-1.83 -3.37,-5.54s-2.75,-6.47 -2.75,-6.47l-3.14,-6.51s0,-30.31 -12.63,-31.99c-12.63,-1.69 -9.26,0.84 -9.26,0.84z" fill="#e6e6e6" id="svg_68"/>
    <ellipse cx="158.94" cy="366.78" fill="#ffb6b6" id="svg_69" rx="14.31" ry="8.84" transform="translate(-212.79872 219.81113) rotate(-45)"/>
   </g>
   <rect fill="#3f3d56" height="18" id="svg_70" width="242" x="36.33" y="387"/>
  </g>
  <rect fill="#3f3d56" height="25" id="svg_71" rx="5.13" ry="5.13" width="46" x="483.33" y="243"/>
  <rect fill="#c81e78" height="10.26" id="svg_72" rx="5.13" ry="5.13" transform="matrix(1 0 0 1 0 0)" width="46" x="558.33" y="257.74"/>
 </g>
</svg>