<?xml version="1.0"?>
<svg width="833.72326" height="554.00006" xmlns="http://www.w3.org/2000/svg" xmlns:svg="http://www.w3.org/2000/svg">
 <g class="layer">
  <title>Layer 1</title>
  <circle cx="512.4" cy="148.87" fill="#f2f2f2" id="svg_1" r="36"/>
  <circle cx="298.4" cy="82.87" fill="#f2f2f2" id="svg_2" r="30"/>
  <circle cx="200.4" cy="366.87" fill="#f2f2f2" id="svg_3" r="30"/>
  <path d="m169.91,412.87c8.69,10.3 18.09,84.56 28.12,93.54l470.58,1c10.03,-8.98 19.43,-83.24 28.12,-93.54l-526.82,-1z" fill="#e6e6e6" id="svg_4"/>
  <path d="m316.6,325.65l0,102.56l71.85,0l0,-102.56c0,-1.52 -0.98,-2.86 -2.43,-3.3c-0.33,-0.11 -0.68,-0.17 -1.03,-0.16l-64.92,0c-1.91,-0.01 -3.47,1.54 -3.47,3.45l0,0.01zm28.04,35.24c0.04,-4.24 3.5,-7.64 7.74,-7.6c4.18,0.04 7.56,3.41 7.6,7.6l0,11.9c-0.02,4.23 -3.47,7.65 -7.71,7.63c-4.21,-0.02 -7.61,-3.43 -7.63,-7.63l0,-11.9z" fill="#3f3d56" id="svg_5"/>
  <path d="m203.57,171.13l0,187.26c0,4.96 4.03,8.99 9,9l277.5,0c4.97,-0.01 8.99,-4.04 9,-9l0,-187.26c-0.01,-4.97 -4.04,-8.99 -9,-8.99l-277.5,0c-4.97,0 -8.99,4.02 -9,8.99z" fill="#3f3d56" id="svg_6"/>
  <path d="m210.08,173.46l0,182.62c0,2.65 2.15,4.8 4.81,4.81l272.87,0c2.65,-0.01 4.8,-2.16 4.81,-4.81l0,-182.62c0,-2.66 -2.15,-4.82 -4.81,-4.82l-272.87,0c-2.66,0 -4.81,2.16 -4.81,4.82z" fill="#c81e78" id="svg_7"/>
  <path d="m265.72,439.09c0.56,0.7 1.42,1.11 2.32,1.11l162.34,0c1.65,-0.01 2.98,-1.35 2.98,-3c0,-0.2 -0.02,-0.4 -0.06,-0.6l-2.52,-11.97c-0.21,-1 -0.91,-1.81 -1.86,-2.17c-0.34,-0.14 -0.7,-0.2 -1.06,-0.2l-157.31,0c-0.36,0 -0.72,0.06 -1.06,0.2c-0.95,0.36 -1.65,1.17 -1.86,2.17l-2.52,11.97c-0.18,0.88 0.04,1.79 0.61,2.49z" fill="#3f3d56" id="svg_8"/>
  <path d="m223.66,193.79l255.33,0c0.56,-0.01 1,-0.47 0.99,-1.03c-0.01,-0.55 -0.45,-0.99 -0.99,-1l-255.33,0c-0.56,0.01 -1,0.48 -0.99,1.04c0.01,0.54 0.45,0.98 0.99,0.99z" fill="#3f3d56" id="svg_9"/>
  <path d="m795.94,392.2c-0.02,-0.05 -0.03,-0.09 -0.05,-0.13c-0.38,-1.04 -0.83,-2.06 -1.35,-3.04c-2.91,-5.47 0.17,-13.87 -3.11,-23.15c-5.3,-15.04 -11.76,-23.91 -21.23,-31.86c-0.28,-0.24 -0.56,-0.47 -0.85,-0.71l-0.01,-0.01c-6.32,-5.19 -13.94,-10.04 -23.4,-16.08c-1.97,-1.26 -8.78,2.38 -8.62,-3.86c0.18,-6.93 0.37,-14.11 -3.03,-18.59l-0.22,-0.29l-0.35,-0.09c-11.65,-2.31 -23.54,-3.23 -35.42,-2.73l-0.01,0c-5.04,0.18 -10.04,0.92 -14.93,2.19c-0.36,0.1 -0.72,0.2 -1.07,0.32c-0.27,0.07 -0.54,0.16 -0.81,0.25l-0.22,0.08l-0.17,0.16c-3.29,3.29 -4.05,9.19 -4.41,15.34l0,0.01c-0.07,1.12 -0.13,2.24 -0.18,3.36c-0.28,5.98 -14.71,10.81 -20.21,13.52c-10.33,5.1 -8.77,16.98 -8.89,16.98c0,0 -17.37,35.66 -17.58,71.77c-0.01,2.01 -0.02,4.03 -0.04,6.06c-0.12,16.82 -0.44,33.93 -1.7,49.52c-0.55,6.7 -1.26,13.11 -2.21,19.1c-4.62,29.17 -25.55,4.95 -35.56,24.36c0.33,1.91 0.89,3.77 1.65,5.55c1.15,0.68 2.33,1.34 3.5,2c5.19,2.89 10.48,5.58 15.86,8.09c0.3,0.14 0.6,0.28 0.9,0.41c9.88,4.57 20.05,8.45 30.46,11.62c2.03,0.62 4.06,1.21 6.11,1.77c18.14,5 36.81,7.8 55.61,8.33c0.08,-0.01 0.16,-0.02 0.23,-0.01c22.24,-0.62 44.34,-3.8 65.84,-9.49c0.3,-0.08 0.6,-0.16 0.9,-0.24c1.41,-0.38 2.81,-0.76 4.21,-1.16c12.38,-3.53 24.51,-7.88 36.3,-13.02c0.02,0.44 0.06,0.87 0.13,1.31c0.01,0.14 0.03,0.28 0.06,0.42c0.02,-0.16 0.04,-0.32 0.05,-0.48c0.06,-0.47 0.11,-0.95 0.16,-1.43c6.12,-59.68 -6.59,-110.35 -16.34,-136.15z" fill="#ccc" id="svg_10"/>
  <circle cx="707.42" cy="228.4" fill="#ffb6b6" id="svg_11" r="58.07"/>
  <path d="m711.72,287.52c8.85,-1.58 17.55,-3.92 26.01,-6.98c8.3,-3.44 24.88,-21.38 28.61,-30.96l0,0c2.77,-7.12 3.41,-17.51 3.45,-24.98c0.19,-19.99 -8.11,-39.12 -22.84,-52.65c-2.85,-2.84 -6.41,-4.85 -10.31,-5.82c-0.34,-0.07 -0.69,-0.11 -1.04,-0.14c-5.47,-0.36 -10.71,-2.34 -15.05,-5.7c-0.85,-0.68 -1.75,-1.31 -2.68,-1.86c-4.68,-2.61 -9.9,-4.07 -15.24,-4.27c-8.69,-0.6 -20.2,3.92 -34.23,13.44c-7.05,4.78 -15.69,5.23 -22.43,5.09c-0.76,0 -1.47,0.4 -1.86,1.07c-2.24,3.12 -5.59,5.27 -9.36,6.02c-2.29,0.55 -4.09,4.23 -6.21,8.97c-0.48,1.08 -1.04,2.34 -1.47,3.12l-0.33,-1.28l-1.03,1.7c-5.28,8.72 -2.49,20.08 6.24,25.36c2.34,1.42 4.97,2.3 7.7,2.58c2.45,0.16 4.9,0.08 7.33,-0.26c1.48,-0.15 3.01,-0.31 4.51,-0.34c9.79,0.1 18.81,5.33 23.76,13.78c2.06,3.46 6.53,4.59 9.98,2.54c0.54,-0.33 1.04,-0.72 1.48,-1.17c2.59,-2.97 6.47,-4.48 10.38,-4.06c1.75,0.57 3.24,1.72 4.23,3.26c1.18,1.7 2.84,3.01 4.76,3.77c6.45,1.88 9.46,15.18 9.53,26.74c0.06,11.15 -2.43,19.71 -6.07,20.82c-2.8,0.85 -3.08,1.12 -3.19,1.66l-0.1,0.49l0.4,0.36c1.69,0.27 3.42,0.16 5.07,-0.3z" fill="#2f2e41" id="svg_12"/>
  <path d="m490.74,384.55c2.52,9.23 12.05,14.67 21.28,12.15c0.98,-0.27 1.94,-0.63 2.86,-1.07l43.18,43.88l6.68,-31.28l-42.03,-36.88c-4.69,-8.39 -15.3,-11.4 -23.7,-6.7c-7.03,3.92 -10.45,12.15 -8.27,19.9l0,0z" fill="#ffb6b6" id="svg_17"/>
  <path d="m716.3,338.74l-0.27,-0.16l-31.49,-10.83c-8.09,-2.78 -16.98,-1.95 -24.41,2.27c-1.71,0.97 -3.32,2.1 -4.79,3.39l-0.01,0c-4.94,4.26 -8.34,10.03 -9.68,16.41l-16.54,78.51l-33.25,-17.92l-13.55,-3.23l-12.34,-12.38l-30.8,-12.54l-1.71,2.04l-15.5,18.52l-1.21,1.46l34.12,49.37l15.3,1.66l4.28,7.63l0.31,0.14l12.54,5.65l53.48,24.09l25.9,-19.82l4.05,-3.11c33.51,-31.04 49.17,-56.01 55.71,-75.03c3.46,-10.05 4.37,-18.42 4.03,-25.17c-1.07,-20.86 -13.64,-30.56 -14.17,-30.95z" fill="#ccc" id="svg_18"/>
  <path d="m745.9,357.87l-15,0c-43.35,0 -78.5,35.15 -78.5,78.5l0,0c-13.99,17.3 -13.13,39.03 0,64.42l-42.99,-17.92c-6.13,-2.54 -13.15,0.36 -15.68,6.49c-2.53,6.1 0.35,13.1 6.44,15.66l52.23,21.77l0,4.06c0,12.71 10.31,23.02 23.02,23.02l125.96,0c12.71,0 23.02,-10.31 23.02,-23.02c9.34,-34.26 15.18,-67.48 0,-94.48c0,-43.35 -35.14,-78.5 -78.5,-78.5z" fill="#3f3d56" id="svg_19"/>
  <path d="m78.67,407.59c-0.97,0 -1.94,0.1 -2.9,0.27l-15.9,-100.66l15.93,-96.91c2.19,-13.3 -6.82,-25.86 -20.12,-28.05c-12.01,-1.97 -23.63,5.2 -27.26,16.81l0,0c-5.97,19.11 -8.93,39.03 -8.76,59.05l0.56,66.09l42.39,101.5c1.06,8.88 9.12,15.21 17.99,14.15c8.87,-1.06 15.2,-9.12 14.14,-17.99c-0.97,-8.14 -7.87,-14.26 -16.07,-14.26l0,0z" fill="#ffb8b8" id="svg_28"/>
  <path d="m49.55,175.81c-21.19,0.04 -38.36,17.2 -38.39,38.39l7.8,78.8l0.7,7.06l0.36,0.02l27.39,1.36l0.01,0l13.29,0.66l2.28,0.11l2.61,-9.21l22.34,-78.8c-0.02,-21.19 -17.2,-38.37 -38.39,-38.39z" fill="#e6e6e6" id="svg_29"/>
  <path d="m50.73,554l-12.6,-38.66s-23.1,-23.49 6.53,-85.85c0.65,-1.38 1.33,-2.77 2.04,-4.19c1.24,-2.49 2.57,-5.04 3.98,-7.66c2.14,-3.8 4.31,-7.73 6.76,-11.79l2.24,0.4l2.12,0.37l7.25,1.28l0.01,0l104.99,18.5s-1.93,8.62 -2.97,17.87c-0.83,7.59 -1.1,15.27 0.86,18.52c4.24,7.26 -1.49,26.88 -1.49,26.88c0,0 0.32,1.9 0.86,5.26l0,0.01c0.53,3.27 1.27,7.91 2.11,13.53c0.04,0.38 0.09,0.76 0.15,1.14c1.33,9.1 2.92,20.59 4.34,32.94c0.44,3.75 0.86,7.58 1.26,11.45l-128.44,0z" fill="#2f2e41" id="svg_30"/>
  <path d="m20.8,196.19c2.64,-7.27 8.8,-12.69 16.34,-14.39c5.51,-1.57 11.24,-2.19 16.95,-1.86c16.72,0.66 12.5,-36.8 29.06,-34.37c0,0 15.58,-5.56 27.77,4.63c11.08,9.26 18.72,34.44 21.56,33c0.6,-0.3 2.05,-0.26 4.08,0.01c23.73,3.14 40.8,24.43 39.39,48.32l-1.21,20.42s8.52,12.82 -3.84,35.46l-15.57,69.59s38.96,77.17 21,93s-88.39,-8.85 -88.39,-8.85c0,0 -39.49,-12.21 -47.82,-17.5c-17.59,-11.18 4.9,-36.66 18.8,-35.46c0.75,-2.97 -0.24,-6.1 -2.55,-8.1c-3.84,-2.46 0.47,-8.01 0.79,-8.52c-0.37,0.37 -3.29,3.42 -5.51,-3.01s4.63,-14.54 4.63,-14.54l-19.35,-41.66l-15.23,-32.92l-1.85,-3.79l3.18,-20.48l-0.3,-0.62c-6.77,-14.11 -8.27,-30.18 -4.23,-45.3c1.47,-5.56 2.53,-10.63 2.3,-13.06z" fill="#e6e6e6" id="svg_31"/>
  <path d="m179.17,554l-6.68,0c1.85,-3.97 3.68,-7.82 5.42,-11.45c0.44,3.75 0.86,7.58 1.26,11.45z" fill="#2f2e41" id="svg_32"/>
  <path d="m310.29,321.05c-0.59,0.78 -1.11,1.6 -1.56,2.46l-89.33,-49.06l-66.87,-71.92c-9.18,-9.88 -24.62,-10.44 -34.5,-1.26c-8.9,8.28 -10.35,21.86 -3.4,31.84l0.01,0c11.45,16.42 25.39,30.96 41.33,43.08l52.59,40.02l106.21,28.63c7.67,4.59 17.61,2.1 22.2,-5.57c4.59,-7.66 2.1,-17.6 -5.57,-22.19c-7.03,-4.22 -16.09,-2.51 -21.11,3.97z" fill="#ffb8b8" id="svg_33"/>
  <path d="m189.37,301.61l26.52,-30.93l1.48,-1.73l-54.32,-73.61c-2.35,-1.83 -4.9,-3.37 -7.62,-4.6l0,0c-19.3,-8.77 -42.06,-0.24 -50.83,19.06c-7.36,16.2 -2.62,35.34 11.45,46.23l15.85,9.94l57.24,35.91l0.23,-0.27z" fill="#e6e6e6" id="svg_34"/>
  <path d="m141.78,111.91c-13.54,24.76 -44.59,33.85 -69.34,20.31c-24.76,-13.54 -33.86,-44.58 -20.32,-69.34c13.54,-24.76 44.59,-33.85 69.35,-20.31c10.4,5.68 18.49,14.81 22.91,25.81c0.23,0.59 0.44,1.17 0.65,1.78c4.94,13.74 3.76,28.94 -3.25,41.75z" fill="#ffb6b6" id="svg_35"/>
  <path d="m149.12,70.16c-2.19,-6.15 -1.24,-2.95 -3.46,-9.08c1.45,5.43 -0.84,8.47 -0.63,9.08l-60.84,0l0,-35.37c17.83,-7.06 35.25,-13.07 45.78,0c19.53,0 35.36,15.84 35.36,35.37l-16.21,0z" fill="#2f2e41" id="svg_36"/>
  <path d="m127.56,168.47c-0.05,-0.66 -0.12,-1.34 -0.21,-1.99c-0.82,-4.81 -2.14,-9.51 -3.96,-14.04c-1.75,-4.93 -3.53,-9.89 -5.3,-14.83c2.28,8.96 1.59,18.42 -1.99,26.95c-10.27,-8 -3.79,-26.29 -17.22,-26.29c-32.28,0 -65.49,-26.17 -65.49,-58.47c0,-32.28 13.85,-56.42 46.13,-56.42c32.3,0 58.49,14.78 59.13,47.06c-39.77,9.36 -3.58,94.75 -11.09,98.03z" fill="#2f2e41" id="svg_37"/>
  <circle cx="37.42" cy="37.42" fill="#2f2e41" id="svg_38" r="37.42"/>
  <ellipse cx="234.72" cy="180.3" fill="#3f3d56" id="svg_39" rx="4.52" ry="4.62"/>
  <ellipse cx="250.33" cy="180.3" fill="#3f3d56" id="svg_40" rx="4.52" ry="4.62"/>
  <ellipse cx="265.94" cy="180.3" fill="#3f3d56" id="svg_41" rx="4.52" ry="4.62"/>
  <path d="m283.74,183.95c-0.14,0 -0.28,-0.05 -0.39,-0.16l-3.04,-3.11c-0.21,-0.21 -0.21,-0.54 0,-0.75l3.04,-3.12c0.21,-0.21 0.55,-0.21 0.76,0c0.21,0.2 0.21,0.54 0.01,0.75l-2.69,2.74l2.69,2.75c0.2,0.21 0.2,0.55 -0.01,0.75c-0.1,0.1 -0.24,0.15 -0.37,0.15z" fill="#3f3d56" id="svg_42"/>
  <path d="m288.86,183.95c-0.14,0 -0.27,-0.05 -0.38,-0.15c-0.21,-0.2 -0.21,-0.54 0,-0.75l2.68,-2.75l-2.68,-2.74c-0.21,-0.21 -0.21,-0.55 0,-0.75c0.22,-0.21 0.55,-0.21 0.76,0l3.05,3.12c0.2,0.21 0.2,0.54 0,0.75l-3.05,3.11c-0.1,0.11 -0.24,0.16 -0.38,0.16z" fill="#3f3d56" id="svg_43"/>
  <path d="m458.31,176.22l-5.67,0c-0.64,0 -1.17,0.52 -1.17,1.17l0,5.67c0,0.65 0.53,1.17 1.17,1.17l5.67,0c0.65,0 1.18,-0.52 1.18,-1.17l0,-5.67c0,-0.65 -0.53,-1.17 -1.18,-1.17z" fill="#3f3d56" id="svg_44"/>
  <path d="m444.42,176.22l-5.67,0c-0.64,0 -1.17,0.52 -1.17,1.17l0,5.67c0,0.65 0.53,1.17 1.17,1.17l5.67,0c0.65,0 1.18,-0.52 1.18,-1.17l0,-5.67c0,-0.65 -0.53,-1.17 -1.18,-1.17z" fill="#3f3d56" id="svg_45"/>
  <path d="m471.4,176.49l-5.67,0c-0.64,0 -1.17,0.52 -1.17,1.17l0,5.67c0,0.65 0.53,1.17 1.17,1.17l5.67,0c0.65,0 1.18,-0.52 1.18,-1.17l0,-5.67c0,-0.65 -0.53,-1.17 -1.18,-1.17z" fill="#3f3d56" id="svg_46"/>
  <path d="m377.22,178.65l-49.93,0c-0.79,0 -1.42,0.64 -1.42,1.42s0.63,1.43 1.42,1.43l49.93,0c0.79,0 1.43,-0.64 1.43,-1.43s-0.64,-1.42 -1.43,-1.42z" fill="#3f3d56" id="svg_47"/>
 </g>
</svg>