<?xml version="1.0"?>
<svg width="512" height="512" xmlns="http://www.w3.org/2000/svg" xmlns:svg="http://www.w3.org/2000/svg">
 <g class="layer">
  <title>Layer 1</title>
  <path d="m256,34.79a120.17,120.17 0 0 0 -10,239.93l0,192.49a10,10 0 1 0 20,0l0,-192.42a118.17,118.17 0 0 0 74.76,-34.19a120.49,120.49 0 0 0 -84.76,-205.81zm-35.37,80.48c-14.08,18.31 -17.9,43.57 -9.97,65.92a10,10 0 1 1 -18.85,6.69c-10.18,-28.68 -5.21,-61.18 12.97,-84.8a10,10 0 0 1 15.85,12.2l0,-0.01z" id="svg_1" transform="rotate(-42.1055 255.96 256)"/>
 </g>
</svg>