<?xml version="1.0"?>
<svg width="878.63" height="496.388" xmlns="http://www.w3.org/2000/svg" xmlns:svg="http://www.w3.org/2000/svg">
 <g class="layer">
  <title>Layer 1</title>
  <g data-name="Group 69" id="Group_69">
   <path d="m-225.96,336.09c-19.52,14.54 -25.04,40.14 -25.04,40.14s26.1,2 45.61,-12.54s25.04,-40.13 25.04,-40.13s-26.1,-2.01 -45.61,12.53z" data-name="Path 1089" fill="#f1f1f1" id="Path_1089-2141" transform="translate(360 90)"/>
   <path d="m-217.84,342.92c-9.37,22.46 -32.86,34.03 -32.86,34.03s-8.28,-24.84 1.1,-47.29s32.86,-34.03 32.86,-34.03s8.28,24.84 -1.1,47.29z" data-name="Path 1090" fill="#f1f1f1" id="Path_1090-2142" transform="translate(360 90)"/>
   <path d="m343.51,278l0,0a194.65,194.65 0 0 1 -1.64,-42.2l1.64,-23.3l0,0c-9,17.91 -6.97,41.48 0,65.5z" data-name="Path 1091" fill="#cacaca" id="Path_1091-2143" transform="translate(360 90)"/>
   <path d="m-70.87,51.17s23.45,77.38 16.41,86.75s75.03,-51.58 75.03,-51.58s-30.48,-21.1 -18.75,-51.58l-72.69,16.41z" data-name="Path 274" fill="#ffb9b9" id="Path_274-2144" transform="translate(482.023 122.697)"/>
   <path d="m350.53,281.9l0,0a143.09,143.09 0 0 1 -0.79,-25.11l0.79,-13.88l0,0c-4.33,10.66 -3.36,24.69 0,38.99z" data-name="Path 1092" fill="#cacaca" id="Path_1092-2145" transform="translate(360 90)"/>
   <path d="m381.72,299.06l0,7.8a2.35,2.35 0 0 1 -2.34,2.34l-3.9,0a0.78,0.78 0 0 0 -0.78,0.78l0,63.94a2.35,2.35 0 0 1 -2.34,2.34l-47.56,0a2.34,2.34 0 0 1 -2.34,-2.34l0,-63.94a0.78,0.78 0 0 0 -0.78,-0.78l-4.68,0a2.34,2.34 0 0 1 -2.34,-2.34l0,-7.8a2.34,2.34 0 0 1 2.34,-2.34l62.38,0a2.35,2.35 0 0 1 2.34,2.34z" data-name="Path 1093" fill="#f2f2f2" id="Path_1093-2146" transform="translate(360 90)"/>
   <rect data-name="Rectangle 346" fill="#e6e6e6" height="2.34" id="Rectangle_346" transform="translate(1203.21 685.945)" width="52.25" x="-520.68" y="-285.11"/>
   <path d="m374.7,345.26c-17.48,7.23 -35.15,7.31 -53.02,0l0,-16.48a83.27,83.27 0 0 1 53.02,0l0,16.48z" data-name="Path 1094" fill="#e6e6e6" id="Path_1094-2147" transform="translate(360 90)"/>
   <circle cx="-450.02" cy="-214.45" data-name="Ellipse 276" fill="#feb8b8" id="Ellipse_276" r="70.67" transform="translate(891.872 327.045)"/>
   <path d="m593.84,294.32c-2.43,-14.62 -4.94,-29.52 -11.73,-42.69c-4.47,-8.62 -11.55,-16.85 -21.11,-18.55a20.42,20.42 0 0 1 -5.5,-1.27c-2.8,-1.35 -40.43,-22.83 -46.41,-26.57c-5.13,-3.21 -13.24,-9.16 -17.32,-9.16c-4.11,-0.09 -19.88,3.58 -81.42,-1.23c0,0 -16.9,6.66 -29.98,14.74c-0.2,-0.13 -63.87,34.06 -66.26,33.97c-4.53,-0.19 -8.74,2.71 -11.34,6.37s-3.82,8.17 -5.09,12.54c13.91,30.97 26.63,61.98 40.54,92.95a7.93,7.93 0 0 1 1,3.82a9.31,9.31 0 0 1 -1.73,3.81c-6.82,10.96 -6.6,24.74 -5.85,37.61s1.66,26.48 -4.09,38.02c-1.57,3.17 -3.6,6.07 -5.09,9.24c-3.49,7.18 -4.75,30.13 -2.71,37.84l255.12,7.31c-5.48,-15.08 18.97,-198.75 18.97,-198.75z" data-name="Path 1095" fill="#c81e78" id="Path_1095-2148" transform="matrix(1 0 0 1 0 0)"/>
   <path d="m-84.37,266.79a45.05,45.05 0 0 0 -0.15,11.11l3.65,52.51c0.35,4.95 0.68,9.89 1.15,14.83c0.88,9.58 2.19,19.08 3.81,28.57a5.09,5.09 0 0 0 5.22,4.95c16.1,3.41 32.73,3.27 49.15,2.34c25.07,-1.4 89.2,-4.04 93.12,-9.13s1.63,-13.32 -3.48,-17.44s-89.73,-14.15 -89.73,-14.15c0.82,-6.55 3.32,-12.72 5.68,-18.94c4.25,-11.04 8.22,-22.44 8.3,-34.26s-4.37,-24.25 -14.06,-31.02c-7.96,-5.56 -18.22,-6.59 -27.93,-6.36c-7.06,0.2 -19.26,-1.49 -25.71,1.27c-5.11,2.25 -8.07,10.72 -9.02,15.72z" data-name="Path 1421" fill="#fbbebe" id="Path_1421-2149" transform="translate(360 90)"/>
   <path d="m296.95,263.41a13.17,13.17 0 0 0 -2.83,4.52a213.59,213.59 0 0 0 -17.94,73.32a7.33,7.33 0 0 1 -0.82,3.55a15.54,15.54 0 0 1 -1.87,2.02a7.02,7.02 0 0 0 0.83,9.9q0.18,0.15 0.36,0.28c2.1,-3.95 7.13,-5.24 11.59,-5.59c21.39,-1.69 42.28,8.26 63.74,7.51c-1.52,-5.23 -3.69,-10.25 -4.93,-15.55c-5.46,-23.5 8.16,-49.08 -0.19,-71.72c-1.67,-4.53 -4.45,-8.98 -8.84,-10.97a23.55,23.55 0 0 0 -5.66,-1.5c-5.43,-0.98 -16.22,-5.17 -21.46,-3.49c-1.93,0.63 -2.7,2.45 -4.3,3.55c-2.43,1.55 -5.66,2.12 -7.68,4.17z" data-name="Path 1430" fill="#c81e78" id="Path_1430-2150" transform="matrix(1 0 0 1 0 0)"/>
   <path d="m233.99,251.07c-6.45,-2.76 -18.65,-1.07 -25.71,-1.27c-9.71,-0.23 -19.97,0.8 -27.93,6.36c-9.69,6.77 -14.14,19.2 -14.06,31.02s4.04,23.22 8.3,34.26c2.36,6.22 4.86,12.39 5.68,18.94c0,0 -84.63,10.04 -89.73,14.15s-7.4,12.35 -3.48,17.44s126.17,10.2 142.27,6.8a5.09,5.09 0 0 0 5.22,-4.95c1.62,-9.49 2.93,-19 3.81,-28.58c0.47,-4.94 0.8,-9.88 1.15,-14.83l3.65,-52.51a45.05,45.05 0 0 0 -0.15,-11.11c-0.95,-5 -3.91,-13.47 -9.02,-15.72z" data-name="Path 1421" fill="#fbbebe" id="Path_1421-2-2151" transform="translate(360 90)"/>
   <path d="m574.01,259.24c-1.6,-1.1 -2.37,-2.92 -4.3,-3.55c-5.24,-1.68 -16.03,2.51 -21.46,3.49a23.55,23.55 0 0 0 -5.66,1.5c-4.39,1.99 -7.17,6.44 -8.84,10.97c-8.35,22.64 5.27,48.22 -0.19,71.72c-1.24,5.3 -3.41,10.32 -4.93,15.55c21.46,0.75 42.35,-9.2 63.74,-7.51c4.46,0.35 9.49,1.64 11.59,5.59q0.18,-0.13 0.36,-0.28a7.02,7.02 0 0 0 0.84,-9.9a15.53,15.53 0 0 1 -1.87,-2.02a7.33,7.33 0 0 1 -0.83,-3.55a213.59,213.59 0 0 0 -17.94,-73.32a13.17,13.17 0 0 0 -2.82,-4.52c-2.03,-2.05 -5.26,-2.62 -7.69,-4.17z" data-name="Path 1430" fill="#c81e78" id="Path_1430-2-2152" transform="matrix(1 0 0 1 0 0)"/>
   <circle cx="-501.61" cy="-266.04" data-name="Ellipse 188" fill="#fbbebe" id="Ellipse_188" r="19.07" transform="translate(922.536 718.237)"/>
   <circle cx="-501.61" cy="-266.04" data-name="Ellipse 189" fill="#fbbebe" id="Ellipse_189" r="19.07" transform="translate(964.768 718.237)"/>
   <path d="m220.89,405.18l-262.03,0a11.55,11.55 0 0 1 -11.54,-11.54l0,-158.97a11.55,11.55 0 0 1 11.54,-11.54l262.03,0a11.55,11.55 0 0 1 11.54,11.54l0,158.97a11.55,11.55 0 0 1 -11.54,11.54z" data-name="Path 1096" fill="#090814" id="Path_1096-2153" transform="translate(360 90)"/>
   <circle cx="-513.05" cy="-277.48" data-name="Ellipse 263" fill="#fff" id="Ellipse_263" r="7.64" transform="translate(962.287 681.632)"/>
   <path d="m357.95,164.61l-878.63,0l0,27l51.97,0l0,6.28l774.71,0l0,-6.28l51.95,0l0,-27z" data-name="Path 1097" fill="#f1f1f1" id="Path_1097-2154" transform="translate(520.685 298.5)"/>
   <path d="m-169.57,46.09l-11.52,-4.61s24.11,-26.53 57.63,-24.22l-9.43,-10.39s23.05,-9.23 44.01,15c11.02,12.74 23.76,27.71 31.72,44.57l12.34,0l-5.15,11.34l18.03,11.35l-18.5,-2.03a62.78,62.78 0 0 1 -1.76,29.38l0.51,8.97s-21.46,-33.21 -21.46,-37.82l0,11.54s-11.53,-10.4 -11.53,-17.32l-6.29,8.08l-3.14,-12.69l-38.77,12.69l6.28,-10.39l-24.1,3.46l9.43,-12.69s-27.25,15 -28.29,27.69s-14.67,28.84 -14.67,28.84l-6.29,-11.54s-9.43,-51.91 20.95,-69.21z" data-name="Path 983" fill="#090814" id="Path_983-2155" transform="translate(560.596 -5.14)"/>
   <path d="m376.88,138.94l0,0c-11.36,0 -20.56,-9.95 -20.56,-22.23l0,0l0,-11.12c0,-12.28 9.2,-22.23 20.56,-22.23l0,0l0,55.58z" data-name="Path 1098" fill="#c81e78" id="Path_1098-2156" transform="matrix(1 0 0 1 0 0)"/>
   <path d="m508.1,83.37l0,0c11.35,0 20.56,9.95 20.56,22.22l0,11.12c0,12.28 -9.2,22.23 -20.56,22.23l0,0l0,-55.57z" data-name="Path 1099" fill="#c81e78" id="Path_1099-2157"/>
   <path d="m518.87,107.34l-3.26,0c0,-44.73 -33.65,-81.12 -75.02,-81.12s-75.03,36.39 -75.03,81.12l-3.26,0c0,-46.67 35.12,-84.65 78.29,-84.65s78.28,37.98 78.28,84.65z" data-name="Path 1100" fill="#c81e78" id="Path_1100-2158" transform="matrix(1 0 0 1 0 0)"/>
  </g>
 </g>
</svg>