<?xml version="1.0"?>
<svg width="800" height="600" xmlns="http://www.w3.org/2000/svg" xmlns:svg="http://www.w3.org/2000/svg" data-name="Layer 0 Image" version="1.1">
 <title>1</title>
 <g class="layer">
  <title>Layer 1</title>
  <path d="m300.49,477.52l-6.25,-2.21l-1.6,-6.63l-3.31,1.38l-5.66,-6.47l1.04,-5.51l-4.42,0.79l-1.12,-10.18l2.97,0.04l1.44,-4.06c5.25,0.05 10.24,-2.74 15.06,0.52c1.58,-3.49 5.29,-3.51 7.54,-3.24c5.34,0.66 10.87,-1.78 15.56,-0.22c5.48,1.81 10.66,0.28 15.87,0.6c6.26,0.39 12.72,0.72 19.11,0.54c6.25,-0.18 13.01,-0.91 19.24,1.52c12.01,-2.26 23.83,1.18 35.72,1.68c9.28,0.4 18.84,0.19 28.09,2.72c3.21,0.88 7.36,-1.31 8.93,4.64c3.92,-3.52 7.56,-4.93 12.18,-3.12a-29.23,-29.23 0 0 0 10.49,1.78c9.21,0.19 18.12,2.36 27.17,3.61c8.31,1.15 16.47,3.42 24.66,4.42c11.03,1.35 20.52,6.48 30.85,9.41c1.82,0.52 3.14,2.62 4.91,3.54c1.92,1.02 4.92,0.94 5.97,2.41c1.37,1.89 3.11,1.24 4.48,2.05c2.02,1.2 3.95,2.59 6.32,4.15c0.37,2.03 3.35,3.84 2.17,7.15c-0.3,0.84 0.72,2.99 1.53,3.23c6.06,1.76 5.71,7.14 6.81,12.17c-1.84,8.39 -7.73,12.63 -16.49,13.44a-12.13,-12.13 0 0 1 -3.47,-0.04c-4.42,-0.82 -8.82,-2.52 -13.2,-2.43c-4.81,0.11 -8.91,-1.47 -13.2,-2.87c-4.13,-1.34 -8.54,-4.21 -12.32,-3.55c-4.22,0.74 -7.5,-3.96 -11.41,-0.9c-1.74,-3.9 -6.02,-0.5 -8.28,-2.88c-3.85,1.49 -7.04,-1.16 -10.56,-1.58c-3.25,-0.38 -6.49,-1.09 -9.64,-1.35a-206.8,-206.8 0 0 1 -30.69,-5.08c-5.53,2.2 -10.11,-3.36 -15.79,-1.7c-4.88,1.42 -9.9,-0.93 -14.77,-1.53c-5.53,-0.68 -11.21,-1.71 -16.78,-2.72c-5.21,-0.93 -10.52,-1.28 -15.8,-2.12c-7.77,-1.22 -15.83,-0.52 -23.57,-2.63c-4.5,2.63 -8.37,-2.37 -13.17,-0.86c-4.02,1.27 -8.87,0.01 -12.95,-0.73c-9.94,-1.82 -19.88,-0.17 -29.74,-1.42c-2.34,-0.3 -4.67,-0.55 -7.39,-0.87c0.44,-2.29 0.77,-4 1.28,-6.72l-7.81,1.81z" id="svg_1" transform="matrix(1 0 0 1 0 0) rotate(4.68461 432.7 479.491)"/>
  <path d="m410.62,296.36c0.22,-0.7 0.41,-1.29 0.6,-1.88l6.3,3.61c-0.24,-1.78 -0.4,-2.92 -0.63,-4.74c2.6,-0.96 5.64,-3.22 8.1,-2.7c3.99,0.83 4.16,-3.38 7.04,-3.76c2.62,-0.34 5.31,-3.04 7.57,-2.61c3.68,0.71 5.74,-1.8 8.6,-2.45a-68.57,-68.57 0 0 1 8.85,-0.99l4.34,-4.28l5.89,4.09c-0.55,-3.21 -0.74,-4.26 -1.04,-5.98c9.94,0.48 17.87,-6.74 27.54,-6.8c0.64,0.77 1.21,1.45 2.68,3.22c-0.34,-2.34 -0.48,-3.33 -0.65,-4.49l7.03,-1.54c0.81,1.24 1.64,2.47 2.84,4.3l1.27,-2.5l4.33,-0.04l-0.23,-4.25c2.54,0.36 5.09,0.73 8.11,1.15c0.49,0.74 1.31,1.98 2.37,3.59l4.37,-5.97c5.12,2.75 12.13,1.65 16.94,6.41l-0.81,3c2.42,0.78 2.93,-0.04 2.78,-4.53a-11.49,-11.49 0 0 1 1.59,-0.91c0.23,-0.1 0.58,0.08 1.57,0.26q0.14,2.2 0.31,4.9l4.61,4.1l-5.98,0.75c1.53,1.74 2.67,3.02 4.6,5.22l-8.42,0.4l0.55,-2.59l-5.89,0.02l2.89,5.63l-3.88,5.36l-14.74,1.17c-1.47,1.67 -9.01,4.38 -12.97,4.58l-1.08,2.87l-6.85,0.2l0.64,-2.56c-0.52,-0.08 -1.35,-0.46 -1.58,-0.23c-2.68,2.63 -4.43,6.61 -9.58,5.14c-0.95,-0.28 -2.64,1.99 -3.97,3.1c-6.09,5.11 -12.92,7.36 -20.77,5.74c-1.12,1.02 -2.19,2.47 -3.6,3.16c-1.68,0.82 -5.11,0.66 -5.29,1.49c-0.96,4.29 -4.14,1.3 -6.02,2.23a-12.51,-12.51 0 0 1 -5.94,1.78c-4.01,0.19 -8.03,1.85 -11.91,3.26a-207.04,-207.04 0 0 1 -40.09,10.65c-10.6,1.83 -21.12,4.24 -31.86,4.92c-7.24,0.46 -14.89,1.37 -21.68,-0.43c-6.14,-1.64 -12.84,-2.43 -18.88,-6.15c0.09,-0.97 0.2,-2.13 0.33,-3.46l-2.29,-0.93l3.2,-9.08c2.96,-0.54 6.19,-0.82 9.57,2.1c-0.76,-2.27 -1.32,-3.93 -1.93,-5.72l2.39,-1.22c0.98,0.88 1.85,1.65 2.73,2.45l1.92,-3.29l3.44,0.59l2.12,-5.8c3.32,1.47 5.89,2.98 8.65,3.71c2.69,0.71 5.73,-2.87 8.78,0.93c-0.07,0.7 -0.18,1.86 -0.36,3.66l5.73,-2.57l-4.34,-1.69c2.18,-0.97 3.73,-2.27 5.25,-2.24a-39.44,-39.44 0 0 0 10.41,-1.32a-53.58,-53.58 0 0 0 9.32,-2.98c2.73,-1.05 5.75,-1.35 8.49,-2.38c2.89,-1.09 5.5,-3.03 8.45,-3.89c2.6,-0.76 5.5,-0.55 8.25,-0.77z" id="svg_2"/>
  <path d="m477.41,104.2l6.84,3.98c1.31,4.47 0.86,8.51 -2.42,13.06c-1.01,0.01 -2.88,0.04 -5.09,0.07c0.19,7.29 -8.18,5.17 -9.5,10.06c-7.53,3.73 -15.77,4.99 -22.88,9.17a-7.08,-7.08 0 0 1 -3.61,1a-73.27,-73.27 0 0 0 -24.64,9.16a-63.24,-63.24 0 0 1 -17.25,6a-37.79,-37.79 0 0 0 -18.24,7.59a-7.14,-7.14 0 0 1 -3.61,1.01c-4.81,1.32 -9.87,2.1 -14.34,4.17c-3.6,1.66 -7.42,2.21 -11.07,3.42c-6.29,2.09 -12.99,2.97 -19.53,4.29c-6.59,1.33 -13.16,2.83 -19.8,3.76c-2.77,0.39 -5.73,-0.52 -8.72,-0.86l-2.22,-11.36c0.03,-3.06 5.03,-1.7 7.6,-3.84l-0.42,-3.24l8.36,-9.32c12.58,-4.72 26.47,-10.64 40.91,-15.31a-54.96,-54.96 0 0 0 20.3,-8.94c4.64,-2.66 10.3,-3.55 15.45,-5.41c13.66,-4.92 27.57,-9.76 41.79,-12.36c13.35,-2.44 26.36,-7.37 42.1,-6.1z" id="svg_3" transform="rotate(-3.89142 393.13 142.518)"/>
 </g>
</svg>