<?xml version="1.0" encoding="UTF-8"?>
<svg xmlns="http://www.w3.org/2000/svg" xmlns:xlink="http://www.w3.org/1999/xlink" width="30px" height="30px" viewBox="0 0 30 30" version="1.1">
<g id="surface1">
<path style="fill:none;stroke-width:2;stroke-linecap:round;stroke-linejoin:round;stroke:rgb(0%,0%,0%);stroke-opacity:1;stroke-miterlimit:4;" d="M 3 5.5 C 3 14.059375 9.940625 21 18.5 21 C 18.8875 21 19.26875 20.984375 19.646875 20.959375 C 20.084375 20.925 20.3 20.909375 20.5 20.796875 C 20.6625 20.703125 20.81875 20.534375 20.9 20.3625 C 21 20.159375 21 19.91875 21 19.4375 L 21 16.621875 C 21 16.215625 21 16.015625 20.934375 15.840625 C 20.875 15.690625 20.778125 15.553125 20.65625 15.446875 C 20.515625 15.325 20.325 15.25625 19.946875 15.115625 L 16.740625 13.95 C 16.3 13.790625 16.078125 13.709375 15.86875 13.725 C 15.684375 13.734375 15.50625 13.8 15.35625 13.90625 C 15.184375 14.028125 15.0625 14.228125 14.821875 14.63125 L 14 16 C 11.35 14.8 9.203125 12.65 8 10 L 9.36875 9.178125 C 9.771875 8.9375 9.971875 8.815625 10.09375 8.64375 C 10.2 8.49375 10.265625 8.315625 10.275 8.13125 C 10.290625 7.921875 10.209375 7.7 10.05 7.259375 L 8.884375 4.053125 C 8.74375 3.675 8.675 3.484375 8.553125 3.34375 C 8.446875 3.221875 8.309375 3.125 8.159375 3.065625 C 7.984375 3 7.784375 3 7.378125 3 L 4.5625 3 C 4.08125 3 3.840625 3 3.6375 3.1 C 3.465625 3.18125 3.296875 3.3375 3.203125 3.5 C 3.090625 3.7 3.075 3.915625 3.040625 4.353125 C 3.015625 4.73125 3 5.1125 3 5.5 Z M 3 5.5 " transform="matrix(1.25,0,0,1.25,0,0)"/>
</g>
</svg>
