<svg xmlns="http://www.w3.org/2000/svg" width="50" height="50"><path d="M34.566 15.688h.036c.324 0 .628.101.875.277l-.004-.004a.96.96 0 0 1 .332.629v.004a3.994 3.994 0 0 1 .039.937v-.015c-.352 3.703-1.875 12.68-2.653 16.82-.328 1.758-.972 2.344-1.597 2.398-1.36.13-2.39-.894-3.703-1.757-2.063-1.352-3.227-2.192-5.223-3.508-2.313-1.524-.813-2.36.504-3.727.344-.36 6.328-5.805 6.445-6.297a.475.475 0 0 0-.11-.414.505.505 0 0 0-.288-.086.565.565 0 0 0-.2.04h.004c-.207.046-3.496 2.218-9.867 6.519a4.388 4.388 0 0 1-2.531.937h-.008a16.493 16.493 0 0 1-3.754-.894l.117.035c-1.464-.477-2.628-.73-2.53-1.539.054-.422.632-.852 1.741-1.293 6.82-2.969 11.368-4.93 13.645-5.875 2.512-1.332 5.422-2.43 8.484-3.14l.242-.047ZM24.891 1.601c-12.973.03-23.477 10.554-23.477 23.53 0 12.997 10.535 23.532 23.531 23.532 12.996 0 23.532-10.535 23.532-23.531 0-12.977-10.504-23.5-23.473-23.531h-.114Zm0 0" style="stroke:none;fill-rule:nonzero;fill:#000;fill-opacity:1"/></svg>