<?xml version="1.0" encoding="UTF-8"?>
<svg xmlns="http://www.w3.org/2000/svg" xmlns:xlink="http://www.w3.org/1999/xlink" width="50px" height="50px" viewBox="0 0 50 50" version="1.1">
<g id="surface1">
<path style=" stroke:none;fill-rule:nonzero;fill:rgb(0%,0%,0%);fill-opacity:1;" d="M 25 1 C 11.746094 1 1 11.746094 1 25 C 1 38.253906 11.746094 49 25 49 C 38.253906 49 49 38.253906 49 25 C 49 11.746094 38.253906 1 25 1 Z M 34.230469 28.078125 C 34.230469 28.078125 36.351562 30.171875 36.875 31.144531 C 36.890625 31.164062 36.898438 31.183594 36.902344 31.195312 C 37.113281 31.550781 37.164062 31.828125 37.058594 32.039062 C 36.886719 32.382812 36.285156 32.550781 36.078125 32.566406 L 32.328125 32.566406 C 32.070312 32.566406 31.523438 32.5 30.863281 32.046875 C 30.359375 31.691406 29.859375 31.109375 29.371094 30.539062 C 28.640625 29.695312 28.011719 28.964844 27.378906 28.964844 C 26.660156 29.15625 26.046875 29.84375 26.046875 31.667969 C 26.046875 32.238281 25.59375 32.566406 25.277344 32.566406 L 23.558594 32.566406 C 22.976562 32.566406 19.925781 32.359375 17.226562 29.511719 C 13.921875 26.023438 10.949219 19.03125 10.921875 18.964844 C 10.734375 18.511719 11.121094 18.269531 11.546875 18.269531 L 15.332031 18.269531 C 15.835938 18.269531 16.003906 18.578125 16.117188 18.851562 C 16.253906 19.167969 16.746094 20.429688 17.558594 21.851562 C 18.878906 24.164062 19.683594 25.105469 20.332031 25.105469 C 21.523438 24.546875 21.367188 21.53125 21.328125 20.90625 C 21.328125 20.789062 21.328125 19.558594 20.894531 18.96875 C 20.585938 18.542969 20.058594 18.378906 19.738281 18.320312 C 19.867188 18.140625 20.039062 17.996094 20.234375 17.898438 C 20.816406 17.609375 21.859375 17.566406 22.898438 17.566406 L 23.476562 17.566406 C 24.601562 17.578125 24.890625 17.652344 25.296875 17.753906 C 26.121094 17.953125 26.140625 18.484375 26.066406 20.308594 C 26.046875 20.824219 26.023438 21.410156 26.023438 22.101562 C 26.023438 22.25 26.015625 22.410156 26.015625 22.578125 C 25.988281 23.507812 25.960938 24.558594 26.613281 24.992188 C 27.128906 25.074219 27.8125 25.074219 29.667969 21.890625 C 30.238281 20.867188 30.738281 19.804688 31.15625 18.707031 C 31.191406 18.640625 31.300781 18.441406 31.433594 18.363281 L 36.195312 18.292969 C 36.679688 18.292969 37.011719 18.363281 37.074219 18.550781 C 37.183594 18.851562 37.054688 19.757812 35.023438 22.511719 L 34.113281 23.707031 C 32.273438 26.121094 32.273438 26.246094 34.230469 28.078125 Z M 34.230469 28.078125 "/>
</g>
</svg>
