<svg width="118" height="56" fill="none" xmlns="http://www.w3.org/2000/svg"><path opacity=".6" d="M115.016 10.32S109.875 24 97.393 29.1c-12.686 5.183-32.713 1.81-34.178-11.942-.788-7.397 1.972-13.097 9.178-14.644 7.182-1.542 12.886 2.355 15.87 9.14 6.389 14.527-10.337 30.454-25.691 33.858-15.385 3.411-37.705-3.973-37.95-19.873-.114-7.436 3.227-13.558 10.468-14.928 7.1-1.342 13.043 2.42 15.87 9.14 6.031 14.338-9.316 31.743-24.616 33.623C16.354 54.7 8.711 51.492 2.51 43.468" stroke="#ffe47b" stroke-width="4" stroke-linecap="round"/></svg>