<svg xmlns="http://www.w3.org/2000/svg" width="90" height="72" viewBox="0 0 89 72"><path d="M50.637 54.664c-3.864.508-7.703.871-11.59 1.121l1.25-.867a24.53 24.53 0 01-5.48 7.383c-.282.254-.555.52-.84.77l-.88.722c-.148.117-.292.242-.44.355l-.458.336-.914.668c-1.25.84-2.52 1.645-3.848 2.328-3.035 1.63-6.265 2.82-9.535 3.774a1.282 1.282 0 01-1.586-.879 1.296 1.296 0 01.383-1.324l.016-.012c1.3-1.164 2.594-2.34 3.754-3.621 1.281-1.387 2.472-2.852 3.468-4.41l.368-.586c.117-.195.226-.399.34-.594l.168-.3c.054-.102.101-.204.152-.305.098-.203.207-.403.297-.606l.261-.617c.075-.203.157-.41.223-.613.063-.203.133-.407.176-.602.027-.101.047-.195.062-.289.008-.043.02-.094.024-.129.004-.031.012-.09.012-.066l1.55 1.402a22.66 22.66 0 01-4.652.309 23.14 23.14 0 01-4.598-.719l-1.113-.324c-.367-.121-.73-.258-1.098-.387-.367-.125-.718-.289-1.074-.441l-.531-.23c-.18-.075-.348-.173-.52-.255-1.394-.672-2.707-1.508-3.945-2.433-.625-.457-1.207-.973-1.793-1.477l-.836-.809-.21-.203-.196-.214-.395-.426-.394-.43-.371-.453-.551-.68-.172-.234-.68-.953-.625-.992a22.93 22.93 0 01-1.988-4.266 20.22 20.22 0 01-.96-4.656l-.04-.598c-.012-.2-.035-.395-.027-.598l.015-1.199c.063-.797.118-1.597.282-2.379l.105-.593c.035-.196.098-.387.145-.583.105-.382.191-.773.316-1.152l.402-1.129c.059-.187.145-.37.227-.554l.5-1.102c.086-.18.184-.34.273-.508l.555-.996c.379-.648.754-1.297 1.152-1.934a51.046 51.046 0 012.547-3.75 39.574 39.574 0 016.25-6.632 51.917 51.917 0 013.586-2.746 57.69 57.69 0 013.774-2.454 58.322 58.322 0 0111.742-5.351 57.396 57.396 0 016.242-1.664c2.106-.418 4.219-.774 6.356-1 4.261-.461 8.582-.535 12.875-.09l.804.078.801.11c.535.078 1.07.136 1.605.23l1.594.289c.27.043.531.102.797.164l.793.18.79.18c.265.062.523.14.788.21.52.149 1.047.286 1.567.442l1.546.508.387.128.383.145 1.523.586c.258.098.5.219.75.328.5.223 1 .434 1.497.676.496.262 1.003.508 1.492.789.476.297.965.574 1.43.89a26.685 26.685 0 015.038 4.403 27.225 27.225 0 013.817 5.516c1.047 1.996 1.828 4.164 2.164 6.5.02.144.05.293.062.43l.043.41.079.82c.035.554.082 1.101.093 1.656a28.999 28.999 0 01-.05 3.344c-.165 2.234-.606 4.511-1.532 6.668a16.393 16.393 0 01-.781 1.578l-.45.742-.472.71c-.652.93-1.36 1.802-2.105 2.626-.743.832-1.547 1.598-2.368 2.34-.421.36-.835.726-1.273 1.062-.219.172-.43.352-.656.512l-.668.488a29.134 29.134 0 01-6.262 3.39l.902-1.901c.75 2.542 1.864 4.945 3.59 6.765.082.106.184.192.278.285.097.09.191.18.28.27.095.09.184.18.278.27.094.081.192.156.285.238.192.156.375.316.559.465.195.136.383.273.566.406.18.14.371.258.559.375.184.117.363.234.539.347l.535.305c.176.106.344.203.516.29 1.36.73 2.5 1.26 3.355 1.753l.059.031c.027.012.05.028.078.04.047.023.098.05.14.078.09.05.172.105.235.152.133.101.207.18.254.226.086.094.078.094.004.098-.078 0-.242-.016-.453.047a.744.744 0 00-.301.168c-.086.078-.133.164-.18.207-.011.012-.027.02-.039.027-.035 0-.082-.004-.125-.004-.09-.004-.18-.011-.277-.015a17.193 17.193 0 01-.633-.063 15.66 15.66 0 01-1.586-.293c-1.191-.289-2.68-.765-4.273-1.726-.868-.5-1.672-1.149-2.446-1.848-.187-.18-.363-.371-.547-.562l-.27-.286a3.12 3.12 0 01-.257-.296 36.79 36.79 0 01-.488-.618l-.246-.312c-.078-.106-.145-.219-.219-.328-1.188-1.739-2.012-3.688-2.602-5.617a1.428 1.428 0 01.79-1.727l.039-.016c.605-.261 1.199-.496 1.77-.785.55-.25 1.081-.554 1.62-.84.52-.312 1.05-.613 1.559-.957 1.02-.668 2-1.402 2.926-2.203.921-.8 1.8-1.656 2.609-2.566a20.64 20.64 0 002.164-2.89 11.68 11.68 0 00.809-1.552c.242-.53.433-1.093.609-1.66a19.21 19.21 0 00.676-3.535c.12-1.207.14-2.437.093-3.672a18.37 18.37 0 00-.05-.926c-.024-.308-.04-.617-.075-.925-.035-.305-.054-.63-.101-.918l-.137-.868c-.234-1.152-.61-2.293-1.07-3.402-.262-.547-.492-1.101-.793-1.629-.149-.265-.281-.539-.442-.793l-.48-.773c-.148-.266-.34-.504-.508-.754l-.261-.375a6.335 6.335 0 00-.27-.367c-.379-.473-.742-.961-1.156-1.407-.79-.925-1.684-1.75-2.594-2.543l-1.066-.843c-.122-.09-.247-.172-.368-.258l-.742-.516c-.25-.168-.515-.312-.77-.468l-.386-.23-.191-.118-.204-.102-.796-.406c-.262-.14-.551-.258-.832-.379l-.844-.367a41.758 41.758 0 00-7.047-2.203c-2.66-.582-5.43-.922-8.195-1.07-2.766-.149-5.524-.102-8.184.054l-1.598.11-1.59.164c-.535.047-1.062.132-1.59.203-.53.074-1.062.144-1.585.242-2.117.34-4.192.813-6.246 1.41a54.204 54.204 0 00-11.782 5.027 56.064 56.064 0 00-5.382 3.516c-1.73 1.27-3.356 2.637-4.848 4.14-1.492 1.505-2.844 3.15-4.086 4.884a53.94 53.94 0 00-1.777 2.68 64.942 64.942 0 00-1.633 2.769c-1.39 2.66-2.09 5.73-1.79 8.758.274 3.03 1.419 5.98 3.145 8.539a21.046 21.046 0 003 3.53 22.824 22.824 0 003.672 2.833c.332.195.66.402 1 .586l1.027.535 1.06.465c.175.086.358.144.538.21l.543.2c1.453.508 2.957.855 4.477 1.02 1.675.18 3.375.128 5.03-.153l.048-.011a1.177 1.177 0 011.351.964c.016.106.02.215.008.317l-.012.133-.011.086-.028.175-.066.317c-.05.203-.098.402-.156.593-.063.188-.121.383-.184.567l-.207.547a18.898 18.898 0 01-.996 2.058 26.527 26.527 0 01-2.5 3.684c-1.824 2.308-3.91 4.348-6.09 6.242l-1.043-1.945c4.281-1.219 8.434-2.965 12.11-5.422 1.835-1.227 3.543-2.637 5.027-4.246 1.484-1.61 2.746-3.418 3.668-5.387l.004-.008a.992.992 0 01.828-.57c3.312-.223 6.64-.54 9.937-.953 1.649-.211 3.293-.442 4.926-.723l1.219-.222 1.207-.25 1.187-.282c.387-.113.782-.21 1.157-.336.238-.082.476-.16.703-.238l.043-.016a.877.877 0 01.902.207c3.133 3.09 6.692 5.543 10.453 7.168 3.762 1.63 7.68 2.489 11.457 2.633.895.032 1.559.055 1.993.098.214.023.374.055.476.09a.675.675 0 01.066.035.52.52 0 00.282-.129.61.61 0 00.148-.215c.024-.055.035-.094.043-.11.008 0 .012-.003.02 0 .007.005.015-.015.02.028 0 .035 0 .09-.028.18a.619.619 0 01-.41.39l-.043.012c-.004 0-.004.004-.004.004l-.008.004c-.012.02-.031.035-.055.055a1.61 1.61 0 01-.183.113 3.82 3.82 0 01-.653.234c-.562.157-1.382.297-2.464.348-.762.035-1.532.035-2.305.008-.774-.04-1.55-.09-2.324-.192a28.924 28.924 0 01-4.633-.945 31.391 31.391 0 01-8.676-4.055 33.82 33.82 0 01-4.883-3.98l1.66.336-.609.215c-.203.07-.41.148-.605.199l-.598.168-.3.086-.294.07c-.789.2-1.574.363-2.355.52-1.563.3-3.121.543-4.672.765l-.04.051zm0 0" fill="#99de2e"/></svg>