<svg xmlns="http://www.w3.org/2000/svg" width="87" height="87" fill="none"><g opacity=".6" clip-path="url(#clip0_2015_608)" fill="#ff69ba"><path d="M25.256 22.668c.779.89 1.654 1.707 2.628 2.374.485.335.988.641 1.515.9.527.257 1.07.475 1.627.647.47.147.952.245 1.436.32l.052.008a.95.95 0 01.394 1.716c-.697.486-1.41.93-2.088 1.376-.59.39-1.157.771-1.672 1.183a9.44 9.44 0 00-1.69 1.735l-.145.194c-.047.065-.076.123-.114.183-.073.121-.153.233-.215.38-.065.14-.138.269-.197.42l-.177.448c-.057.152-.105.313-.157.468l-.077.234-.067.244-.134.485a30.104 30.104 0 00-.69 4.054 32.716 32.716 0 00-.146 2.058 18.56 18.56 0 00.02 2.002 1.133 1.133 0 01-2.144.59l-.005-.013c-.373-.76-.653-1.495-.93-2.224l-.794-2.162c-.432-1.17-.876-2.323-1.395-3.38a10.144 10.144 0 00-.856-1.433L19 35.19c-.09-.095-.188-.192-.28-.288a7.967 7.967 0 00-.623-.544 11.374 11.374 0 00-1.419-.95 15.778 15.778 0 00-1.576-.767 17.823 17.823 0 00-3.385-1.033 1.195 1.195 0 01-.406-2.183l.01-.006c.79-.499 1.58-.999 2.3-1.551.738-.538 1.4-1.133 1.993-1.77l.43-.486.383-.517c.136-.168.237-.356.35-.537.106-.185.233-.358.317-.557l.28-.578c.086-.198.155-.405.234-.605l.115-.304c.034-.104.06-.211.09-.316l.18-.633c.286-1.202.497-2.476.644-3.75a8.61 8.61 0 01.116-.844c.025-.128.052-.25.082-.366.008-.035.014-.044.021-.06a.802.802 0 01.078-.128c.081-.112.198-.233.304-.392a2.3 2.3 0 00.268-.539c.192-.571.175-.89.392-.72.054.044.122.122.205.248.083.124.18.3.268.531.088.23.16.513.203.814.01.075.02.155.027.225l.016.158c.01.108.017.219.022.335.016.295.024.595.03.9.002.306-.023.618-.04.93-.022.624-.134 1.259-.227 1.87-.056.277-.123.554-.184.831l-.093.416-.122.411c-.086.274-.159.55-.256.82l-.316.807a12.663 12.663 0 01-1.806 2.964l-.572.648c-.196.208-.404.4-.608.602-.2.206-.416.383-.63.567-.215.183-.425.373-.65.536l-.66.51-.675.478-.337.238-.341.226-.683.454-.332-1.833c1.2.213 2.372.523 3.52.936.747.269 1.5.582 2.222.973a9.457 9.457 0 012.008 1.419c.196.197.398.382.581.595.094.107.19.198.28.319l.271.351c.097.117.159.236.24.354.073.118.155.236.221.354.128.236.273.473.384.709.478.945.855 1.89 1.214 2.83.356.939.685 1.875 1.017 2.795.332.916.664 1.83 1.041 2.643l-1.924.516a18.12 18.12 0 01.028-2.29c.06-.894.155-1.776.279-2.658.121-.882.27-1.761.465-2.638.196-.877.416-1.752.744-2.624.165-.436.347-.872.583-1.306.028-.054.054-.11.087-.164l.104-.163.21-.323c.071-.109.144-.19.217-.285.074-.092.142-.187.22-.275.4-.486.852-.936 1.33-1.345.477-.409.98-.77 1.482-1.102 1.008-.662 1.992-1.232 2.91-1.88l.38 1.468a12.233 12.233 0 01-2.983-.813 14.335 14.335 0 01-2.666-1.486 16.398 16.398 0 01-2.286-1.978 17.158 17.158 0 01-3.55-5.604 16.886 16.886 0 01-.908-3.204c-.067-.392-.025-.643.087-.73l-.075.364a.317.317 0 01-.118.091.4.4 0 01-.125.031c-.068.005-.095 0-.1.01-.001.008.022.033.1.048.04.007.095.01.156-.008a.425.425 0 00.17-.09l.1-.487c.162-.01.394.206.639.66.732 1.364 1.49 2.775 2.317 4.1.676 1.086 1.375 2.183 2.21 3.111l.033-.015.004.007zm28.428 10.487c.302.544.616 1.08.937 1.608.08.129.163.266.242.387.078.112.149.23.232.34.163.222.336.437.523.638.747.811 1.7 1.45 2.773 1.892.915.388 1.918.638 2.939.781a.942.942 0 01.453 1.672l-.023.017c-.184.146-.374.281-.548.44-1.013.88-1.869 1.98-2.572 3.169a16.822 16.822 0 00-1.643 3.807c-.39 1.327-.621 2.697-.633 4.047-.011 1.347.2 2.68.71 3.832l-2.117.836c-.458-1.241-.909-2.474-1.403-3.671a34.041 34.041 0 00-1.46-3.137 20.17 20.17 0 00-1.829-2.836 27.948 27.948 0 00-.529-.64 9.95 9.95 0 00-.552-.587 8.658 8.658 0 00-1.208-.998c-.846-.573-1.763-.894-2.638-.857a1.196 1.196 0 01-.828-2.104l.008-.006a9.93 9.93 0 001.839-2.02c.135-.183.246-.384.369-.576.109-.202.227-.398.326-.606.21-.409.385-.839.54-1.277.626-1.759.844-3.698.85-5.652a72.561 72.561 0 00-.078-3.882 8.059 8.059 0 01.047-1.573 4.03 4.03 0 01.126-.59c.017-.137.044-.291.089-.41.044-.124.1-.219.148-.28.287-.312.111.178.57.469.11.064.255.067.344.038.045-.01.077-.032.1-.024.034.066.067.134.099.21.132.298.25.675.346 1.124.241 1.137.372 2.41.39 3.624a29.256 29.256 0 01-.138 3.517 20.17 20.17 0 01-.258 1.76c-.111.584-.25 1.167-.425 1.742a13.635 13.635 0 01-1.484 3.316c-.328.517-.69 1.014-1.088 1.483-.402.464-.836.9-1.296 1.307l-.7-1.8c1.093-.07 2.178.188 3.112.63.786.369 1.51.852 2.141 1.403.32.274.613.567.886.87l.2.23.186.232c.12.156.243.31.354.468 1.146 1.618 2.05 3.347 2.828 5.094.777 1.75 1.429 3.526 2.049 5.28l.006.018a1.017 1.017 0 01-1.899.73c-.4-.958-.64-1.961-.731-2.958-.168-1.868.043-3.712.495-5.474a18.578 18.578 0 012.114-5.003c.968-1.578 2.191-3.034 3.746-4.153l.382 1.504c-.57-.091-1.14-.189-1.705-.34a12.504 12.504 0 01-1.668-.549 10.354 10.354 0 01-1.584-.802 8.884 8.884 0 01-2.613-2.431c-.083-.123-.175-.248-.25-.368l-.226-.354a52.346 52.346 0 01-2.062-3.635c-.569-1.106-1.053-2.222-1.404-3.338-.345-1.112-.574-2.237-.528-3.296.025-.274.083-.464.162-.563l-.042-.113a.38.38 0 00-.107-.153.57.57 0 00-.146-.09c-.083-.038-.126-.057-.138-.085-.01-.026.003-.067.12-.096a.5.5 0 01.262.019.714.714 0 01.296.193l.111.3c.06.052.117.133.17.24.056.107.093.238.154.407.06.17.102.337.172.509l.198.516c.15.347.292.695.459 1.045.322.698.675 1.402 1.046 2.099.604 1.145 1.205 2.344 1.878 3.484l.036-.006-.01.006zM38.388 58.181c.551.986 1.328 1.762 2.33 2.237.095.054.201.089.304.129l.313.12c.215.065.437.115.657.17l.078.02a.933.933 0 01.247 1.71 14.729 14.729 0 00-1.281.847c-.248.194-.46.39-.642.611-.36.438-.647 1.01-.866 1.617a7.568 7.568 0 00-.418 1.862c-.055.605.017 1.194.198 1.529l-2.07.924c-.296-.7-.598-1.378-.934-2.014-.516-.975-1.12-1.847-1.871-2.501-.75-.658-1.64-1.103-2.519-1.181a1.191 1.191 0 01-.673-2.089l.048-.04.256-.22.129-.11.119-.121.24-.242.222-.265.11-.132.102-.141.204-.285.185-.3.092-.15c.03-.051.056-.106.083-.158.454-.839.788-1.772 1.007-2.749.143-.614.328-1.24.471-1.871.077-.3.175-.549.319-.75.136-.205.304-.364.494-.487.276-.18.555-.18.777-.006.221.173.396.521.424 1.011.04.62-.04 1.297-.193 1.923-.067.31-.158.619-.238.927l-.14.459-.071.228-.08.228c-.2.608-.458 1.205-.744 1.788a11.8 11.8 0 01-1.027 1.688c-.4.535-.865 1.03-1.378 1.487l-.54-1.835c.475.023.946.105 1.398.234.892.247 1.769.69 2.377 1.314.41.412.779.859 1.111 1.31.333.452.625.92.895 1.39.535.944.964 1.907 1.332 2.86l.009.025a1.014 1.014 0 01-1.862.802 3.848 3.848 0 01-.353-1.452 7.102 7.102 0 01.096-1.552 9.965 9.965 0 01.912-2.802 6.32 6.32 0 01.846-1.284 5.95 5.95 0 011.25-1.083c.437-.292.858-.523 1.268-.758l.288 1.532c-1.2-.237-2.382-.768-3.335-1.574-.115-.103-.226-.211-.339-.318l-.167-.16c-.053-.057-.1-.115-.152-.173l-.3-.348-.268-.368-.133-.184-.118-.191-.233-.384-.206-.395a4.708 4.708 0 01-.192-.398 11.896 11.896 0 01-.193-.458 14.142 14.142 0 01-.151-.461 7.99 7.99 0 01-.207-.914 5.828 5.828 0 01-.002-1.764c.083-.521.577-.595.817-.09.344.714.667 1.45 1.005 2.14.272.568.516 1.148.844 1.652l.032-.013.007-.003zM66.316 15.55c.214.438.473.847.76 1.234.074.093.14.196.222.284l.235.272c.167.168.332.345.514.496.266.239.562.44.868.619l.013.008a.962.962 0 01.193 1.515 14.73 14.73 0 00-.304.31 6.923 6.923 0 00-1.362 2.639 7.39 7.39 0 00-.259 1.47c-.005.12-.018.242-.013.358.001.117 0 .236.01.346l.013.165.027.15.009.077c.004.023.012.043.017.064.012.042.023.084.032.127l.012.05a1.125 1.125 0 01-2.067.813 17.202 17.202 0 01-.621-1.171c-.183-.375-.353-.742-.527-1.065a4.225 4.225 0 00-.129-.235c-.043-.074-.084-.152-.129-.224-.091-.136-.177-.28-.274-.396-.09-.13-.194-.23-.29-.342-.052-.05-.107-.094-.158-.143l-.078-.071-.087-.06c-.444-.328-1.01-.536-1.678-.627a1.189 1.189 0 01-.617-2.078l.051-.044.26-.224c.043-.038.087-.073.129-.111l.117-.123c.077-.082.16-.16.236-.244l.212-.262c.267-.362.515-.742.688-1.172.18-.423.326-.87.413-1.343.057-.23.076-.476.115-.716l.03-.368.014-.184.004-.186c.025-.515.072-1.052.111-1.589.005-.129.025-.248.056-.36.031-.121.076-.172.114-.41.05-.19.129-.345.216-.445a.45.45 0 01.253-.163c.224-.032.331.264.595.474.126.106.302.175.445.154a.383.383 0 00.155-.051l.006-.004s.004-.001.006.006l.014.033.027.066c.018.046.033.094.049.144.035.126.068.258.096.39a5.59 5.59 0 01.074 1.24c-.034.63-.08 1.262-.196 1.895-.112.63-.256 1.262-.487 1.877a8.523 8.523 0 01-2.163 3.335c-.056.054-.11.109-.168.163l-.53-1.986c.34.041.684.057 1.032.158.174.044.345.089.512.167.084.036.166.073.247.114.081.037.16.08.236.133.506.313.958.72 1.337 1.152.383.435.675.906.92 1.358.245.452.452.898.642 1.314.192.415.377.808.565 1.174l-1.835.77c-.038-.192-.087-.395-.095-.572a6.624 6.624 0 01.013-1.316l.033-.314.05-.309c.028-.207.077-.406.119-.609.183-.804.47-1.578.862-2.304a8.035 8.035 0 011.689-2.156l.182 1.345a8.234 8.234 0 01-2.314-1.951l-.235-.291-.218-.301-.108-.15-.1-.156-.198-.313a11.674 11.674 0 01-.668-1.303c-.452-1.026-.584-2.113-.319-3.068a.475.475 0 01.187-.278c.015-.01.02-.03.01-.044-.001-.003-.005-.005-.008-.008l-.162-.125a.432.432 0 00-.24-.068c-.067-.002-.107-.005-.126-.028-.017-.02-.017-.064.048-.125a.413.413 0 01.161-.088.614.614 0 01.253-.019l.401.446a.47.47 0 01.294.265c.28.582.554 1.172.84 1.739.232.464.428.955.687 1.405l.031-.013v-.008zm4.829 45.287c.05.117.1.237.151.347.025.058.051.11.075.157a3.63 3.63 0 00.443.697c.276.342.61.627.971.812.2.1.41.171.624.202l.069.01a.934.934 0 01.454 1.652 3.406 3.406 0 00-.507.502c-.308.385-.544.829-.75 1.333-.104.251-.201.518-.299.796l-.149.425a5.927 5.927 0 00-.117.373 4.933 4.933 0 00-.196 1.468c.012.476.109.92.287 1.308l-2.085.852c-.304-.736-.617-1.444-.975-2.095-.429-.782-.922-1.48-1.519-2.029-.595-.553-1.282-.959-1.99-1.125a1.193 1.193 0 01-.437-2.118l.052-.038.243-.181.123-.089.114-.1.226-.202.208-.222.105-.11.094-.122.19-.24.167-.26c.027-.043.058-.085.084-.13l.073-.137c.05-.093.1-.182.148-.276l.129-.29c.045-.094.08-.195.116-.295.036-.101.075-.2.107-.303.055-.209.125-.412.163-.628.022-.108.047-.213.067-.322l.048-.326c.064-.519.177-1.049.23-1.588.031-.256.093-.483.207-.663.062.02.186.068.329.03a.443.443 0 00.302-.3c.12-.421-.096-.712.115-.789.053-.016.144-.013.275.05.13.061.296.201.412.392.06.095.106.197.144.297l.047.139.03.065c.038.089.07.187.098.295.073.272.095.565.113.859.003.147-.003.295-.009.443a5.302 5.302 0 01-.013.22l-.027.218c-.151 1.207-.472 2.4-1.02 3.518a8.875 8.875 0 01-1.014 1.585 8.605 8.605 0 01-1.38 1.33l-.34-1.9c.258.053.518.11.769.191.776.238 1.546.63 2.07 1.187 1.528 1.613 2.455 3.479 3.112 5.285l.02.054a1.005 1.005 0 01-1.883.707 4.671 4.671 0 01-.21-.674c-.213-.933-.181-1.866-.002-2.732.09-.433.219-.86.378-1.261.14-.354.283-.723.453-1.099.212-.468.463-.951.785-1.404a6.148 6.148 0 011.136-1.215l.453 1.439a4.087 4.087 0 01-1.57-.547 4.934 4.934 0 01-1.206-1.02 5.846 5.846 0 01-.465-.617 6.252 6.252 0 01-.37-.66 14.703 14.703 0 01-.55-1.297 6.69 6.69 0 01-.397-1.6c-.059-.532-.042-1.065.098-1.56a.501.501 0 01.153-.245l.001.024c.018.015.026.058.01.1a.287.287 0 01-.073.104c-.052.05-.08.077-.077.114.006.033.03.088.159.09a.393.393 0 00.253-.113.532.532 0 00.157-.292l-.006-.084a.46.46 0 01.24.249l.86 1.83c.24.51.421 1.063.661 1.56l.032-.01h.003z"/></g><defs fill="#f2f3f4"><clipPath id="clip0_2015_608" fill="#f2f3f4"><path transform="rotate(-10 74.79 6.21)" d="M0 0h75v75H0z"/></clipPath></defs></svg>