<svg xmlns="http://www.w3.org/2000/svg" width="250" height="188"><path d="M143.395 121.668c16.472.59 30.32-5.668 42.73-16.004 14.133-11.773 25.094-26.148 34.691-41.684 2.907-4.707 5.696-9.488 8.715-14.12.809-1.243 2.133-2.508 3.477-2.919.926-.285 2.293.883 3.469 1.407-.36.691-.688 1.402-1.09 2.07-1.078 1.8-2.344 3.504-3.25 5.383-2.957 6.113-5.688 12.336-8.707 18.418a135.268 135.268 0 01-6.696 11.992c-1.539 2.441-3.754 4.445-5.457 6.8-2.695 3.735-4.879 7.887-7.87 11.34-4.669 5.376-9.427 10.813-14.88 15.333-12.054 9.996-25.96 14.879-41.863 13.89-7.398-.46-14.734-.625-21.73-3.5-.762-.312-2.192.184-2.938.778-7.523 5.976-16.164 9.117-25.617 9.703-7.07.441-14.317 1.007-21.238-.063-5.817-.89-11.493-3.637-16.829-6.351-4.746-2.414-9.148-5.653-13.34-8.989-5.96-4.754-10.206-10.968-13.015-18.054-.406-1.02.29-2.903 1.098-3.86.894-1.07 2.18-.554 3.644.102 4.582 2.058 6.442 6.351 8.938 10.062 4.726 7.035 11.523 11.192 19.297 13.399 13.257 3.77 26.453 2.183 39.257-2.457 6.918-2.508 6.852-2.793 1.809-7.77-6.637-6.554-10.305-14.375-9.797-23.8.59-10.942 9.656-18.633 20.574-17.825 3.43.25 5.762 2.356 8 4.52 5.094 4.918 7.938 11.054 8.93 18.02 1.027 7.202 1.219 14.35-2.2 21.12-.827 1.637-.034 2.352 1.688 2.434 3.403.156 6.801.41 10.2.625zm-19.512-23.754c-.574-3.066-1.086-6.144-1.742-9.191-.403-1.883-1.606-2.383-3.52-1.965-5.992 1.305-10.43 6.597-10.957 12.945-.582 6.918 3.414 11.188 8.34 14.91.387.293 1.816-.215 2.312-.754 4.114-4.488 5.301-9.984 5.567-15.945zm39.523 24.25l.313.586 12.37-5.27c-.124-.293-.253-.59-.378-.886zm-58.117 5.387l.34.777 7.437-4.078c-.156-.29-.312-.57-.468-.86a8278.849 8278.849 0 01-7.309 4.16zm0 0"/><path d="M13.527 105.586c.524-6.172 1.32-12.813 1.54-19.477.078-2.324-.641-4.523 1.937-5.84.531-.273 1.305-.703 1.695-.511 6.656 3.277 14.082 3.363 21.059 5.246 4.672 1.266 9.023 3.308 11.984 7.394.59.813.551 2.086.797 3.149-1.047.21-2.164.766-3.14.582a739.464 739.464 0 01-21.215-4.356c-2.215-.488-2.614.368-2.875 2.313-.606 4.484-1.563 8.922-2.22 13.402-.284 1.914-.175 3.887-.226 5.832 0 .16.25.352.223.493-.3 1.457-.445 4.054-1.004 4.148a8.266 8.266 0 01-5.059-.867c-4.48-2.5-3.097-7.078-3.496-11.508zm0 0"/></svg>