<svg width="32" height="32" xmlns="http://www.w3.org/2000/svg"><g class="layer"><path d="M24.75 29.185a.5.5 0 00.5-.5v-10a.5.5 0 00-.5-.5h-5.71l-.77-8.8a2.97 2.97 0 00.98-2.2c0-1.65-1.35-3-3-3s-3 1.35-3 3c0 .85.35 1.64.98 2.2l-.77 8.8H7.75a.5.5 0 00-.5.5v10a.5.5 0 00.5.5h17zm-.5-1h-16v-7h16v7zm0-8h-5.04l-.09-1h5.13v1zm-6.04 0H14.3l.08-1h3.74l.09 1zm-4.92 0H8.25v-1h5.13l-.09 1zm4.74-2h-3.56l.78-8.97a.5.5 0 00-.2-.44c-.51-.39-.8-.97-.8-1.59 0-1.1.9-2 2-2s2 .9 2 2c0 .62-.29 1.2-.8 1.59a.5.5 0 00-.2.44l.78 8.97z" fill="#010101"/><path stroke="#000" d="M7.72 20.75H24.1v7.06H7.72z"/></g></svg>