<svg width="800" height="600" xmlns="http://www.w3.org/2000/svg" data-name="Layer 0 Image"><path d="M409.752 523.33l-2.111-6.146 1.03-2.09c-1.146-3.942-2.29-7.728-3.346-11.536-.886-3.224-1.473-6.535-2.525-9.695-1.178-3.513-1.937-7.13-3.295-10.642-1.23-3.16-3.448-6.192-3.464-9.667-.01-4.052-3.058-6.78-3.746-10.52a102.05 102.05 0 00-2.9-10.157l-1.204.41c-4.27-9.662-8.316-19.482-15.66-28.106l.232-2.484-2.1.46c-3.584-4.944-7.547-9.75-10.967-14.78-4.217-6.192-9.824-11.33-13.142-18.237a27.59 27.59 0 00-7.593-9.048c-1.851-1.492-.775-2.634-1.008-4.109l-3.017.286-8.782-12.109 3.034-1.18c-.385-2.386 1.084-5.208-3.003-8.136l6.1.743-2.116-5.524-3.138.282-2.626-3.858c.382-.548.673-1.318.972-1.316 2.232-.048 4.464.06 6.687.118 2.307-3.1-1.189-4.443-1.935-6.594l1.728-.587-.029-3.381 7.686-1.163c6.186 2.491 13.093 5.94 20.408 7.927 3.762 1.03 7.305 3.455 10.865 3.515 4.415.068 7.198 3.446 10.939 3.75 4.12.326 7.28 3.009 10.95 3.546 4.024.59 7.263 3.089 10.93 3.635 8.719 1.31 16.713 5.672 25.676 5.674 2.778 2.461 7.364 1.232 9.625 4.742 4.353-.463 8.417.882 12.533 1.962 5.814 1.527 12.028 1.134 17.657 3.829 1.587.76 3.758.291 6.871.443l-16.864-15.39-1.185-5.355-5.892-1.052c-5.257-5.712-13.026-9.808-16.07-18.02-3.515 1.613-5.647-1.979-8.35-2.397-5.765-7.712-13.788-12.178-21.45-18.685-.046-.157-.411-1.429-.767-2.652-2.53-2.718-6.617-2.748-8.79-6.327-1.584-2.598-4.928-4.635-7.922-5.732a18.85 18.85 0 01-8.445-6.502c-2.344-3.184-5.754-3.504-8.554-5.943-.251-.87-.634-2.152-1.15-3.934-7.476-2.859-14.021-7.812-21.237-12.08l-.807-4.178-7.4-3.646 3.515-1.5c-3.882-1.468-5.026-4.484-5.634-8.206.713-.474 1.537-1.038 2.237-1.507l-5.32-16.355c1.49-1.641 2.627-2.886 4.09-4.496l3.054.023.83-1.687-2.37-2.36c1.786-4.416 5.699-6 9.833-7.173 3.638 1.079 3.638 1.079 7.976-1.979l-3.907.215c.152-.738.326-1.567.565-2.73l4.929 1.58c-.212-.996-.354-1.657-.46-2.144l13.84-7.316 3.21 1.582-.714-2.849 3.138.42 1.507-3.059 3.428-1.164c.924 2.083 3.348 3.59 2.434 6.394 3.888-2.075 1.613-4.924.86-8.171l3.873 1.507c3.253-2.076 6.899-3.457 9.026-7.481 1.774-3.351 5.974-3.367 10.045-3.077l-.522-2.855 4.264 1.165c.123-.363.3-.9.836-2.51 2.278-1.229 5.925-2.409 8.478-4.762 3.652-3.362 8.863-2.512 12.54-6.017 3.216-3.064 7.44-5.141 11.848-6.871 6.006-2.37 11.453-6.162 17.551-9.579l-3.955-1.949c-.664.532-1.616 1.289-2.92 2.33l-2.163-3.508a55.83 55.83 0 00-7.304.593c-2.033.414-4.674-.72-5.982 1.958-2.382-2.066-4.848-.773-7.218.01l-.546-1.629c-8.718 2.828-17.666 3-26.702 2.517l-8.243 3.017-2.395-1.18-12.318 2.035c-.11-1.882-.189-3.215-.293-4.927l-7.434.45-1.264 5.71-17.652 2.316c2.016-2.485 3.823-2.509 5.469-3.27-1.99-3.154-4.148-.382-6.12-.295-.457-.86-.904-1.716-1.863-3.549l-2.914 3.38-.578-1.61.268 3.687-6.297.019-1.016-2.44-2.357.688c-.6 2.146-1.245 4.426-1.832 6.5-7.474.554-14.6 1.078-21.717 1.607q-.154-.433-.295-.87l3.027-1.62-11.056-3.128c.545-3.165 1.052-6.093 1.787-10.346l-1.625-3.398c9.573-1.125 18.173-4.211 26.853-6.645 11.992-3.366 24.29-4.386 36.359-6.956 12.578-2.676 25.497-3.69 38.268-5.468 7.275-1.009 14.521-2.254 21.806-3.124 10.23-1.213 20.463-2.592 30.742-3.067 4.52-.214 8.709-2.063 13.489-1.425 4.1.549 8.496-1.02 12.754-1.697 10.866-1.736 21.774-3.15 32.441-6.11 6.939-1.932 14.142-2.954 22.272-4.589l8.611 4.244c-.967 2.12-1.26 4.774-4.683 5.93l5.054 3.227c.532 7.608-2.01 14.26-6.58 21.227l-6.103 1.006-5.293-.412c-.298 2.663-.519 4.672-.732 6.552-3.197 1.646-6.28 3.516-9.573 4.859-2.815 1.143-4.582 5.022-8.846 2.296l1.033 3.04c-3.983-.357-5.739 5.333-10.353 3.137-.771 1.18-1.467 2.253-2.292 3.52l-2.194-.525c-7.491 6.967-16.99 10.703-26.29 15.14-.26.529-.429 1.55-1.003 1.924-2.335 1.503-4.896 4.053-7.2 3.888-3.745-.273-5.873 4.475-9.845 2.128-.96 1.7-1.859 3.275-2.81 4.958l-3.124-.335c-.474.825-.974 1.727-1.758 3.114l-8.888 2.766c.033-1.99.058-3.171.093-4.804-2.104 1.216-4.003 2.309-5.906 3.411.095.939.19 1.877.346 3.37-1.484.116-2.938-.054-4.152.418-1.053.418-1.825 1.553-2.71 2.355l.508 3.494-5.087.37-3.089-2.782-1.44 2.924c-3.095.103-5.268.147-7.506 2.99-3.804 4.826-9.497 7.896-14.494 11.565-.766.56-2.285.09-3.447.096l.348 1.443c-3.185 1.374-5.984 3.071-8.999 3.737-3.073.671-6.37.328-10.373.463-1.424 1.26-.11 2.42 4.189 3.558l-6.132 1.36-2.723-3.594-.507 5.781-2.359 1.213c.364.959.526 2.778 1.239 3.029 3.482 1.214 5.193 4.008 6.96 6.484 5.964 1.222 9.157 6.419 13.785 9.379A93.72 93.72 0 01407.68 271.7c4.16 4 8.312 8.198 13.101 11.127 5.08 3.105 8.997 7.42 13.748 10.81a101.87 101.87 0 0113.41 11.925c4.022 4.122 8.901 7.162 12.906 11.387a106.28 106.28 0 0013.348 11.962c4.693 3.506 8.092 8.146 12.492 11.841 4.382 3.687 8.586 7.598 12.67 11.617 4.246 4.166 8.199 8.61 12.347 12.884 3.99 4.096 8.066 8.11 12.434 12.504l2.348 6.887-2.012.825c-1.745 2.976.928 4.248 1.96 5.771-.95 3.378-1.853 6.545-2.813 9.963l-1.802.695c1.516 5.43-2.636 7.385-6.159 9.15-3.558 1.792-7.56 2.696-11.63 4.08-7.434-2.449-16.238.214-23.116-5.828l-1.975 2.538-15-4.56c-.129.15-.782.842-1.262 1.363-4.558-.863-8.994-1.589-13.382-2.592-1.72-.401-3.977-.956-4.812-2.226a8.36 8.36 0 00-8.45-4.163c-1.757.126-3.611-1.2-5.854-.856l5.66 2.789c-.842.666-1.33 1.206-1.452 1.135-3.604-2.21-7.805-2.486-11.752-3.026-3.33-.46-6.785-1.526-8.291-3.718-1.944-2.842-4.829-2.847-7.784-5.786l.528 3.18c-5.622.642-7.787.534-10.333-2.783-2.037-2.654-4.78-2.723-7.582-3.346l6.724 4.317-13.88-3.529c8.869 10.758 13.881 22.146 20.08 32.848 6.301 10.898 8.707 17.033 10.864 27.249.391 1.854 1.965 3.432 2.504 5.28.935 3.215 1.22 6.621 2.27 9.781.979 2.902 3.069 5.448 3.869 8.372 2.115 7.743 2.922 15.81 5.565 23.456.255.75-.686 1.913-1.118 2.994.713 1.132 1.976 2.3 2.18 3.628.982 6.47 2.134 12.979 2.341 19.503.174 5.19.763 10.353.516 15.65-.247 5.229-2.125 9.81-3.018 14.677-.928 5.028-4.482 9.185-8.897 12.74-2.925-6.893-10.46-3.706-15.44-6.539l6.978 4.141-.638 1.113-4.78-2.356c-1.445-.712-2.88-1.441-4.329-2.121-1.632-.76-3.188-2.129-5.157-.847.15-2.568-2.823-.923-3.251-2.316-.793-2.486-3.328.713-4.312-1.567a8.3 8.3 0 00-3.206-3.062 43.48 43.48 0 00-4.741-2.392l.482-3.943-2.68 2.659-3.273-1.278-2.284-6.722-3.125-1.328-2.58 2.452c.018-1.507.03-2.66.05-3.81l-1.588-.783-2.902 2.316c-3.482-3.388-6.393-7.23-10.985-9.36-2.076-.967-3.428-3.494-5.291-5.505l-1.126.226-10.455-9.143 5.015-1.152a12.19 12.19 0 00-6.565-2.287 6.47 6.47 0 01-.344-.683c-.19-.495-.35-1.008-.555-1.611-.486.195-.977.4-1.477.577a7.17 7.17 0 01-.777.174l-5.307-5.18 3.125-6.341-.744-.957c-1.043.623-2.081 1.237-3.56 2.113l.184 4.06-7.65-6.445.604-2.445c-4.844.668-6.536-2.64-8.229-6.083a10.73 10.73 0 00-2.222-2.98c-1.988-1.893-4.109-3.652-6.59-5.833.026-.099.152-.828.407-2.341l-5.671-2.338c.235.54.115-.233-.34-.691-3.648-3.727-7.737-7.012-11.083-11.036-.316-.378-.925-.5-1.316-.837-2.548-2.159-2.014-6.545-5.578-7.933-3.142-1.225-3.846-4.548-5.99-6.62-2.322-2.236-4.429-4.679-6.585-7.068a19.85 19.85 0 00-1.82-2.346 19.04 19.04 0 00-3.297-1.68l-.756-3.94-4.89-2.41c-1.403-4.459-2.735-8.995-7.697-11.005a1.97 1.97 0 01-1.12-.964c-1.81-6.69-8.295-9.885-11.566-15.622-3.163-5.527-8.148-9.979-11.806-15.27-4.84-7.012-9.175-14.366-13.694-21.598a4.87 4.87 0 01-.765-2.272c-.274-7.203-.473-14.402-.667-20.93 2.437-3.203 4.438-5.84 7.012-9.231l6.392-.597c3.12 3.4 6.322 6.538 9.119 10.001a88.5 88.5 0 017.743 10.983c4.897 8.456 11.57 15.59 17.046 23.595 3.234 4.749 7.894 8.527 9.698 14.232 7.372 6.42 12.679 14.587 18.862 22.015 2.667 3.209 4.88 6.863 8.116 9.684 2.975 2.604 5.547 5.665 8.314 8.512 8.62 8.907 17.214 17.846 25.901 26.687q6.798 6.906 13.894 13.501c4.78 4.418 10.102 8.412 14.57 12.943 7.84 7.955 17.528 13.408 25.586 20.991 4.259 4.005 9.94 6.548 15.162 9.433 5.083 2.806 10.406 5.195 17.125 8.505z"/></svg>