<svg data-name="Layer 0 Image" xmlns="http://www.w3.org/2000/svg" width="800" height="600"><path d="M146.684 499.4c2.585-33.9 11.36-68.709 21.052-103.34a690.546 690.546 0 01101.158-213.5c32.188-45.643 69.525-85.451 120.443-111.12 16.315-8.224 30.434-6.459 45.13 1.487 8.24 4.454 10.9 17.585 3.8 20.292-18.024 6.87-26.258 23.292-38.108 35.985-35.924 38.479-70.6 77.984-98.315 123.135-33.654 54.824-58.122 113.593-77.116 174.818-8.918 28.745-18.448 57.314-25.126 86.72-.878 3.864-6.339 6.263-3.938 11.494.256.557-.874 1.815-1.459 2.683-1.862 2.767-29.652 7.361-32.465 5.393-13.179-9.209-15.563-14.247-15.056-34.047zm22.23-45.958c30.324-119.233 80.036-228.658 162.946-321.284-88.148 89.975-136.923 199.875-162.946 321.288zM488.971 221.8c4.531 13.245-3.355 18.994-11.37 25.828-7.568 6.453-10.325 16.968-17.52 24.456-8.879 9.239-18.134 19.3-24.115 29.869-4.579 8.092-13.83 12.114-15.867 22.458-1.636 8.31-6.668 16.735-15.45 21.2-3.673 1.87-3.585 5.915-4.95 9.211-3.5 8.454-6.051 17.674-15.276 22.367-1.418.722-3.2 2.746-3.126 4.066.764 12.716-10.846 18.793-15.2 28.749-2.015 4.612-6.659 6.2-11.74 6.457-4.393.226-11.921 2.631-12.61 1.284-3.774-7.379-9.4-13.58-6.712-24.212 9.447-37.406 28.543-69.625 50.147-100.757 21.818-31.442 47.767-59.224 76.226-84.661 11.013-9.843 23.039-18.474 36.571-24.748 9.649-4.473 18.677-1.482 27.617 2.253 3.415 1.426 4.724 4.366 4.559 7.913-.154 3.31-2.483 4.856-5.131 6.414-9.433 5.549-20.823 8.884-23.585 21.959-.571 2.7-3.451 5.9-6.973 6.022-3.378.124-.337-4.787-5.495-6.128zm-82.524 62.321c-23.312 29.458-44.267 60.442-56.725 96.357 15.518-34.084 35.856-65.305 56.725-96.355zm31.763-35.785l-2.244-1.889-18.251 21.3 1.893 1.6zm141.903 74.205c6.51 5.641 3.635 7.907-.794 13.349-6.858 8.425-13.132 18.041-21.8 23.863-11.092 7.451-13.246 21.111-23.813 28.419-9.007 6.228-22.362 5.628-29.733-.759-6.386-5.535-2.983-10.665-1.084-15.689 10-26.464 27.99-47.3 48.3-66.234 14.683-13.689 31.417-24.813 47.834-36.3 5.326-3.727 6.813-1.328 7.465 3.81.289 2.28-.77 5.2 2.875 7.084 2.1-3.734 4.148-7.331 6.153-10.951.482-.87 1.391-2.012 1.151-2.694-2.673-7.6-1.583-9.139 8.745-11.13-.653 3.7-5.173 4.845-5.03 8.715 3.327 3.685 4.521-6.483 8.217-1.557 3.129 4.17 1.888 10.606-.165 12.017-7.692 5.286-8.334 14.931-14.656 20.944-1.927 1.833 1.64 8-5.209 7.985-3.769-.011-6.651 7.5-11.379 1.5 1.373 4.567-3.78 5.893-4.5 8.195-1.98 6.401-7.09 7.33-12.577 9.433zm-32.426.9c-16.2 16.74-31.2 34.358-38.661 57.085 11.002-20.326 25.136-38.472 38.661-57.086zm24.947-24.576c7.274-3.811 13.151-3.254 16.612-7.91 1.4-1.886 4.786-4.056 1.845-6.718-2.384-2.157-5.589-1.2-7.662 1.106-3.047 3.391-5.729 7.114-10.795 13.521zM631.92 257.8c5.76 1.2 10.342 6.174 12.525-2.063.957-3.612 4.086-1.576 5.513.832 2.205 3.719 5.061 8.056 2.25 12.01-3.285 4.62-7.406 10.333-12.227 11.634-3.8 1.024-6-5.68-5.563-10.506.344-3.782 2.545-7.591-2.498-11.907z"/></svg>