<svg width="851.034" height="557.347" xmlns="http://www.w3.org/2000/svg"><g class="layer"><path d="M785.2 269.13H95.11c-9.25 0-16.78-7.53-16.78-16.78V16.78C78.33 7.53 85.86 0 95.11 0H785.2c9.25 0 16.78 7.53 16.78 16.78v235.57c0 9.25-7.53 16.78-16.78 16.78zM95.11 2c-8.15 0-14.78 6.63-14.78 14.78v235.57c0 8.15 6.63 14.78 14.78 14.78H785.2c8.15 0 14.78-6.63 14.78-14.78V16.78C799.98 8.63 793.35 2 785.2 2H95.11z" fill="#3f3d56"/><path fill="#e6e6e6" d="M0 550.56h851.03v1.68H0zm0-86h851.03v1.68H0z"/><path d="M387.84 277.79c.61 7.68 5.07 13.59 9.96 13.2 4.88-.39 8.35-6.93 7.74-14.61-.21-3.07-1.14-6.05-2.73-8.69l-3-32.51-15.23 1.74 4.58 31.86a19.286 19.286 0 00-1.32 9.01z" fill="#ffb6b6"/><path d="M369.65 126.13s14.23-7.53 21.45 3.73c7.22 11.26 12.2 133.02 12.2 133.02l-20 2.13-3.8-85.8-9.85-53.08z" fill="#e6e6e6"/><path fill="#ffb6b6" d="M340.114 458.204H351.7l5.512-44.695h-17.101l.002 44.695z"/><path d="M379.81 457.94c.36.61.55 2.57.55 3.28a3.93 3.93 0 01-3.93 3.93h-35.88c-1.48 0-2.69-1.2-2.69-2.68v-1.5s-1.77-4.49 1.88-10.02c0 0 4.55 4.33 11.33-2.46l2.01-3.62 14.48 10.59 8.04.99c1.75.22 3.31-.03 4.21 1.49z" fill="#2f2e41"/><path fill="#ffb6b6" d="M407.168 456.286l11.227-2.87-5.721-44.667-16.57 4.234 11.064 43.303z"/><path d="M445.57 446.21c.5.49 1.17 2.35 1.34 3.03.54 2.11-.73 4.25-2.83 4.79l-34.77 8.88c-1.44.36-2.9-.5-3.27-1.94l-.37-1.44s-2.83-3.92-.66-10.18c0 0 5.48 3.07 10.37-5.18l1.05-4.01 16.66 6.68 8.02-1.03c1.76-.23 3.21-.86 4.46.4z" fill="#2f2e41"/><path fill="#ffb6b6" d="M330.527 116.525l-.549-3.987 6.53-15.948 17.941-1.993 3.874 22.831-27.796-.903z"/><path opacity=".1" d="M330.527 116.525l-.549-3.987 6.53-15.948 17.941-1.993 3.874 22.831-27.796-.903z"/><path fill="#2f2e41" d="M309.596 229.158l-7.974 21.928 5.98 11.961 29.903 173.434h19.88l-3.932-153.499 45.85 153.5h19.676L403.157 332.82l-11.828-95.688-7.174-4.432-34.69-19.49-39.87 15.948z"/><path fill="#e6e6e6" d="M360.43 244.109l-11.961 1.993-15.948-37.876h35.883l-7.974 35.883z"/><path fill="#2f2e41" d="M384.352 234.141l-23.922 9.968-7.974-17.942-3.987 19.935-41.864-13.476 5.98-24.4-5.98-79.74 21.112-14.074 2.81-1.874 25.916 1.994 2.272 1.236 15.67 8.731 3.986 65.786 5.98 43.856z"/><path fill="#e6e6e6" d="M358.715 115.768l-11.243 47.604-19.755-48.96 2.81-1.874 25.916 1.994 2.272 1.236z"/><path fill="#2f2e41" d="M339.498 112.538l-3.987 6.867 3.987 2.289-1.993 41.802 7.974 10.84 7.974-16.021-5.98-36.621 1.993-9.156h-9.968z"/><circle cx="345.48" cy="89.61" fill="#ffb6b6" r="18.94"/><path d="M333.38 91.27l4.09 1.79 1.78-10.71s7.15-3.58 12.5-1.79 14.29 0 14.29 0 0-17.86-12.5-17.86-25 1.79-25 7.14-5.36 10.72-5.36 10.72-7.14 10.71 0 17.86c7.14 7.14 10.72 7.14 10.72 7.14l-.52-14.29z" fill="#2f2e41"/><path d="M296.63 277.23c-.21 7.7 3.6 14.05 8.5 14.18s9.04-6 9.25-13.7c.12-3.08-.49-6.14-1.79-8.93l.46-32.65-15.32.11 1.17 32.17a19.272 19.272 0 00-2.27 8.82z" fill="#ffb6b6"/><path d="M315.59 124.46s-12.96-3.99-18.94 7.98C290.67 144.4 298.64 266 298.64 266h20.12l-5.34-85.72 2.17-55.82z" fill="#e6e6e6"/><path d="M812.66 351.01l-48.32-14.79a8.816 8.816 0 00-3.31-.36l-244.9 20.85c-3.49.29-4.37 5-1.22 6.54l7.85 3.82h-.21v182.95h7.39V370.57l24.58 11.98c1.88.91 3.98 1.29 6.07 1.08l2.61-.27v166.66h7.39v-167.4l189.42-19.14v186.54h7.4V362.74l31.41-3.18v190.46h7.39v-191.2l5.73-.58c4.03-.41 4.58-6.05.72-7.23z" fill="#3f3d56"/><path d="M587.23 355.98c4.62 0 72.99-8.31 72.99-8.31l10.17 13.86-71.15 13.86-12.01-19.41z" fill="#fff"/><path fill="#a0616a" d="M662.27 542.917l-11.88-.022-5.572-45.83 17.532.03-.08 45.822z"/><path d="M621.57 542.58c-.37.62-.57 2.63-.57 3.35a4.025 4.025 0 004.02 4.04l36.79.07c1.52 0 2.76-1.23 2.76-2.75v-1.53s1.83-4.6-1.91-10.28c0 0-4.66 4.43-11.61-2.54l-2.05-3.72-14.87 10.84-8.23 1c-1.8.22-3.4-.04-4.33 1.52z" fill="#2f2e41"/><path fill="#a0616a" d="M726.027 521.605l-9.372 7.069-31.73-32.787 13.834-10.434 27.268 36.152z"/><path d="M693.76 545.62c.08.71 1.12 2.41 1.55 2.98a3.975 3.975 0 005.58.78l29.02-21.89c1.2-.91 1.44-2.61.54-3.81l-.91-1.21s-1.31-4.71-7.64-6.96c0 0-1.03 6.28-10.66 4.93l-3.83-1.71-5.26 17.41-5.89 5.7c-1.29 1.24-2.7 1.99-2.5 3.77v.01z" fill="#2f2e41"/><path d="M701.2 284.74c0 10.95-8.88 19.84-19.84 19.84-10.95 0-19.83-8.89-19.83-19.84s8.88-19.84 19.83-19.84 19.84 8.88 19.84 19.84z" fill="#a0616a"/><path d="M699.33 399.11s-73.03-4.14-77.16 4.13 22.34 121.83 22.34 121.83l23.63-4.95-11.53-79.67s60.95 16.14 69.22-3.16c8.26-19.29 5.88-26.47 5.88-26.47l-32.38-11.71z" fill="#2f2e41"/><path d="M718.04 385.23s-71.52 15.33-73.32 24.4 53.78 111.58 53.78 111.58l21.48-11.03-32.2-73.79s63.05-.55 65.92-21.34c2.87-20.79-1.33-27.09-1.33-27.09l-34.33-2.73z" fill="#2f2e41"/><path d="M726.2 307.47h-34.36l-23.51 38.59s-5.51 24.93 0 27.62c5.51 2.69 5.51 31.63 5.51 31.63l57.87 5.51s8.27-86.81 5.52-95.08c-2.76-8.27-11.03-8.27-11.03-8.27z" fill="#c81e78"/><path d="M671.77 332.96l-3.44 40.72-38.75-16.45-9.25-4.65a18.678 18.678 0 00-6.85-5.52c-6.7-3.26-13.81-2.45-15.89 1.81-2.07 4.26 1.67 10.36 8.37 13.62 2.65 1.34 5.59 2.02 8.57 1.99l27.06 15.37.03-.06.12.22 42.43 17.72 9.77-53.45-22.17-11.32z" fill="#a0616a"/><path d="M667.64 287.49s-20.67 2.76-12.4-15.16c0 0-1.26-9.71 4.88-10.36s14.41-11.68 14.41-11.68 18.95-9.65 28.77 0c9.81 9.64 38.75 66.14 38.75 66.14l-19.29 20.67s-11.6-30.49-25.09-26.96c-13.5 3.53-25.9 14.06-25.9 14.06s-13.69-6.85-7.53-12.82c6.15-5.97 3.4-23.89 3.4-23.89z" fill="#2f2e41"/><path d="M695.2 317.81s-9.65-12.4-16.54-2.76c-6.89 9.65-12.4 22.05-12.4 22.05l27.56 9.64 1.38-28.93z" fill="#c81e78"/><path d="M799.84 547.28l-32.02-101.77h.08l-.13-.17h-.01l-2.28-7.25c3.48-3 5.84-7.27 6.31-12.2l-14.63-80.5c1.01-10.57-7.1-19.81-17.71-20.19l-33.03-.08c-9.39-.33-17.52 6.45-18.88 15.75l-.73 4.93-10.12 68.83c-.37 2.47-.22 4.91.36 7.2l-7.28.95-2.21.29-8.73 1.14-.03.01-1.09.14h-1.18v29.57h.07v94.5a1.114 1.114 0 002.23 0v-94.5h12.95l12.93 94.39c.08.56.55.96 1.11.96.04 0 .1 0 .14-.01.61-.08 1.04-.64.96-1.25l-12.88-94.09h62.15c6.17 0 11.89-1.96 16.55-5.32l24.64 99.54c.13.5.59.84 1.08.84.09 0 .19-.01.28-.04.59-.15.95-.75.8-1.35l-24.88-100.5c.33-.27.66-.57.97-.87l9.9-.58 32.18 102.3a1.122 1.122 0 001.4.73c.58-.19.91-.81.73-1.4zm-36.47-107.61c.08-.05.15-.1.23-.15l.24.76-.47-.61z" fill="#e6e6e6"/><path fill="#ffb6b6" d="M171.565 374.775l21.55-13.704 8.76 5.284-30.31 34.828v-26.408z"/><path d="M142.1 321.73s-14.32 3.37-7.58 22.73 28.63 59.78 35.36 57.26c6.74-2.53 7.58-27.79 7.58-27.79s-.84.84-4.21-2.52c-3.37-3.37-3.37-1.83-3.37-5.55s-2.75-6.47-2.75-6.47l-3.14-6.51s0-30.31-12.63-31.99c-12.63-1.68-9.26.84-9.26.84z" fill="#e6e6e6"/><ellipse cx="202.72" cy="359.2" fill="#ffb6b6" rx="14.31" ry="8.84" transform="rotate(-45 202.717 359.199)"/><g fill="#e6e6e6"><path d="M86.348 433.29l14.704 24.338 85.69-5.07-22.817-29.409-77.577 10.141z"/><path d="M111.95 547.12c-.5 0-.93-.37-1-.88l-25.61-187c-.07-.56.32-1.07.87-1.15.55-.08 1.07.32 1.14.87l25.61 187.01c.07.55-.31 1.06-.87 1.14-.05.01-.09.01-.14.01z"/><path d="M86.35 547.36c-.56 0-1.02-.46-1.02-1.02V359.13a1.016 1.016 0 012.03 0v187.21c0 .56-.45 1.02-1.01 1.02zm128.53-.75c-.43 0-.83-.27-.97-.71l-60.59-192.58a1.016 1.016 0 011.94-.61l60.59 192.58c.17.54-.13 1.11-.66 1.28-.1.03-.21.04-.31.04zm-18.51.24c-.45 0-.86-.3-.98-.76l-42.08-169.97c-.14-.55.19-1.1.73-1.24.55-.13 1.1.19 1.23.74l42.09 169.97a1.012 1.012 0 01-.99 1.26z"/><path d="M86.348 362.117l70.225-1.08 12.93 73.774h-82.14l-1.015-72.694z"/></g><path fill="#ffb6b6" d="M194.266 470.597l-17.698 31.158 20.549 4.524 8.567-22.161-11.418-13.521z"/><path d="M182.92 495.87s-.68-5.08-4.73-3.47-15.71 7.61-15.71 7.61 30.44 49.45 36.21 47.15c5.78-2.31-1.14-16.29-1.14-16.29l1.53-24.7-16.16-10.3zM116 410.14s-6.32 29.04 13.05 39.15c19.36 10.1 85.45-14.74 85.45-14.74l-30.31 45.42 21.05 8.47s47.99-63.15 44.63-73.25c-3.37-10.11-26.1-10.95-26.1-10.95l-51.36 2.53-13.47-4.21-42.94 7.58z" fill="#2f2e41"/><path fill="#ffb6b6" d="M168.084 484.425l-27.823 22.583 17.494 11.69 16.043-17.524-5.714-16.749z"/><path d="M148.32 503.84s1.21-4.98-3.14-4.95-17.4 1.37-17.4 1.37 10.35 57.13 16.57 57.09c6.22-.05 4.86-15.58 4.86-15.58l10.41-22.46-11.3-15.47zm-31.14-104.21s-16.45 24.76-2.09 41.21c14.36 16.46 84.96 17.38 84.96 17.38l-44.76 31.27 16.53 15.55s67.67-41.36 68.21-51.99c.54-10.64-20.32-19.7-20.32-19.7l-48.76-16.33-11.02-8.82-42.75-8.57zm42.26-57.35s-15.99-5.89-23.57-5.89c-.73 0-1.44.08-2.16.24-4.85 1.02-9.31 5.19-11.45 7.46-.83.9-1.31 1.49-1.31 1.49s.05-.58.15-1.59c.5-5.36 2.33-22.93 5.63-34.18 1.17-4.02 2.53-7.22 4.09-8.78 3.63-3.64 5.3-8 6.08-11.25.65-2.79.65-4.75.65-4.75l-6.13-2.64-1.14-7.43c-.2.88-1.14 2.59-4.28 5.86-.27.28-.56.52-.87.72-4.53 2.84-13.77-2.11-18.75-5.22 2.08-7.2 5.83-13.78 12.65-14.86 16-2.53 16-11.79 26.1-1.69.83.84 1.68 1.64 2.52 2.41 3.23 6.18 4.41 14.47 4.83 20.23.3 4.03.23 6.83.23 6.83s4.21 25.26 10.94 30.31c6.74 5.05-4.21 22.73-4.21 22.73z" fill="#2f2e41"/><path fill="#ffb6b6" d="M128.292 301.871l-11.377 16.687 25.69 6.888V301.87h-14.313z"/><path opacity=".1" d="M128.292 301.871l-11.377 16.687 25.69 6.888V301.87h-14.313z"/><path d="M144.2 317.94l-24.41-10.1s-32.84 14.31-30.31 42.1c2.52 27.78 26.1 75.77 26.1 75.77l47.14-20.2-5.05-53.89-13.47-33.68z" fill="#e6e6e6"/><circle cx="133.73" cy="287.78" fill="#ffb6b6" r="21.54"/><path d="M162.81 279.98c-4.21 4.21-7.58 8.42-7.58 8.42l-1.68-6.74s-.39.29-1.07.75c-2.67 1.81-9.83 6.39-15.58 7.37-2.56.44-4.84.16-6.32-1.38-3.14-3.27-4.07-4.98-4.28-5.86l-1.13 7.43-6.14 2.64s0 9.24 6.74 16c.32.33.64.73.96 1.2 3.21 4.85 5.52 16.72 6.98 26.82 1.3 8.97 1.92 16.53 1.92 16.53s-6.37-7.98-13.37-9.07c-.38-.05-.77-.1-1.16-.1-.12-.02-.26-.02-.39-.02-7.57 0-23.57 5.89-23.57 5.89s-10.95-17.68-4.21-22.73c6.74-5.05 10.95-30.31 10.95-30.31s-.28-10.81 2.5-20.5c2.08-7.2 5.83-13.78 12.65-14.86 16-2.53 16-11.79 26.1-1.69.83.84 1.68 1.64 2.52 2.41 9.41 8.66 19.03 13.94 15.16 17.8z" fill="#2f2e41"/><path fill="#3f3d56" d="M60.33 393h8v158h-8zm194 0h8v158h-8z"/><path fill="#c81e78" d="M163.33 325h53v53h-53z"/><path fill="#ffb6b6" d="M127.784 382.352l21.55-13.704 8.76 5.285-30.31 34.828v-26.409z"/><path d="M98.32 329.31s-14.32 3.37-7.58 22.73c6.73 19.37 28.62 59.78 35.36 57.25 6.74-2.52 7.58-27.78 7.58-27.78s-.84.84-4.21-2.53c-3.37-3.36-3.37-1.83-3.37-5.54s-2.75-6.47-2.75-6.47l-3.14-6.51s0-30.31-12.63-31.99c-12.63-1.69-9.26.84-9.26.84z" fill="#e6e6e6"/><ellipse cx="158.94" cy="366.78" fill="#ffb6b6" rx="14.31" ry="8.84" transform="rotate(-45 158.936 366.776)"/><path fill="#3f3d56" d="M36.33 387h242v18h-242z"/><rect fill="#3f3d56" height="25" rx="5.13" ry="5.13" width="46" x="483.33" y="243"/><rect fill="#c81e78" height="10.26" rx="5.13" ry="5.13" width="46" x="558.33" y="257.74"/></g></svg>