<svg width="833.723" height="554" xmlns="http://www.w3.org/2000/svg"><g class="layer"><circle cx="512.4" cy="148.87" fill="#f2f2f2" r="36"/><circle cx="298.4" cy="82.87" fill="#f2f2f2" r="30"/><circle cx="200.4" cy="366.87" fill="#f2f2f2" r="30"/><path d="M169.91 412.87c8.69 10.3 18.09 84.56 28.12 93.54l470.58 1c10.03-8.98 19.43-83.24 28.12-93.54l-526.82-1z" fill="#e6e6e6"/><path d="M316.6 325.65v102.56h71.85V325.65c0-1.52-.98-2.86-2.43-3.3a3 3 0 00-1.03-.16h-64.92a3.455 3.455 0 00-3.47 3.45v.01zm28.04 35.24c.04-4.24 3.5-7.64 7.74-7.6 4.18.04 7.56 3.41 7.6 7.6v11.9c-.02 4.23-3.47 7.65-7.71 7.63a7.667 7.667 0 01-7.63-7.63v-11.9z" fill="#3f3d56"/><path d="M203.57 171.13v187.26c0 4.96 4.03 8.99 9 9h277.5c4.97-.01 8.99-4.04 9-9V171.13c-.01-4.97-4.04-8.99-9-8.99h-277.5c-4.97 0-8.99 4.02-9 8.99z" fill="#3f3d56"/><path d="M210.08 173.46v182.62c0 2.65 2.15 4.8 4.81 4.81h272.87c2.65-.01 4.8-2.16 4.81-4.81V173.46c0-2.66-2.15-4.82-4.81-4.82H214.89c-2.66 0-4.81 2.16-4.81 4.82z" fill="#c81e78"/><path d="M265.72 439.09c.56.7 1.42 1.11 2.32 1.11h162.34a2.998 2.998 0 002.92-3.6l-2.52-11.97c-.21-1-.91-1.81-1.86-2.17-.34-.14-.7-.2-1.06-.2H270.55c-.36 0-.72.06-1.06.2-.95.36-1.65 1.17-1.86 2.17l-2.52 11.97c-.18.88.04 1.79.61 2.49zm-42.06-245.3h255.33c.56-.01 1-.47.99-1.03-.01-.55-.45-.99-.99-1H223.66a1.016 1.016 0 000 2.03z" fill="#3f3d56"/><path d="M795.94 392.2c-.02-.05-.03-.09-.05-.13-.38-1.04-.83-2.06-1.35-3.04-2.91-5.47.17-13.87-3.11-23.15-5.3-15.04-11.76-23.91-21.23-31.86-.28-.24-.56-.47-.85-.71l-.01-.01c-6.32-5.19-13.94-10.04-23.4-16.08-1.97-1.26-8.78 2.38-8.62-3.86.18-6.93.37-14.11-3.03-18.59l-.22-.29-.35-.09a149.738 149.738 0 00-35.42-2.73h-.01c-5.04.18-10.04.92-14.93 2.19-.36.1-.72.2-1.07.32-.27.07-.54.16-.81.25l-.22.08-.17.16c-3.29 3.29-4.05 9.19-4.41 15.34v.01c-.07 1.12-.13 2.24-.18 3.36-.28 5.98-14.71 10.81-20.21 13.52-10.33 5.1-8.77 16.98-8.89 16.98 0 0-17.37 35.66-17.58 71.77-.01 2.01-.02 4.03-.04 6.06-.12 16.82-.44 33.93-1.7 49.52-.55 6.7-1.26 13.11-2.21 19.1-4.62 29.17-25.55 4.95-35.56 24.36.33 1.91.89 3.77 1.65 5.55 1.15.68 2.33 1.34 3.5 2 5.19 2.89 10.48 5.58 15.86 8.09.3.14.6.28.9.41a236.946 236.946 0 0036.57 13.39c18.14 5 36.81 7.8 55.61 8.33.08-.01.16-.02.23-.01 22.24-.62 44.34-3.8 65.84-9.49l.9-.24c1.41-.38 2.81-.76 4.21-1.16 12.38-3.53 24.51-7.88 36.3-13.02.02.44.06.87.13 1.31.01.14.03.28.06.42.02-.16.04-.32.05-.48.06-.47.11-.95.16-1.43 6.12-59.68-6.59-110.35-16.34-136.15z" fill="#ccc"/><circle cx="707.42" cy="228.4" fill="#ffb6b6" r="58.07"/><path d="M711.72 287.52a158.24 158.24 0 0026.01-6.98c8.3-3.44 24.88-21.38 28.61-30.96 2.77-7.12 3.41-17.51 3.45-24.98a70.576 70.576 0 00-22.84-52.65 22.188 22.188 0 00-10.31-5.82c-.34-.07-.69-.11-1.04-.14a27.531 27.531 0 01-15.05-5.7c-.85-.68-1.75-1.31-2.68-1.86-4.68-2.61-9.9-4.07-15.24-4.27-8.69-.6-20.2 3.92-34.23 13.44-7.05 4.78-15.69 5.23-22.43 5.09-.76 0-1.47.4-1.86 1.07a15.163 15.163 0 01-9.36 6.02c-2.29.55-4.09 4.23-6.21 8.97-.48 1.08-1.04 2.34-1.47 3.12l-.33-1.28-1.03 1.7c-5.28 8.72-2.49 20.08 6.24 25.36a18.47 18.47 0 007.7 2.58c2.45.16 4.9.08 7.33-.26 1.48-.15 3.01-.31 4.51-.34 9.79.1 18.81 5.33 23.76 13.78a7.286 7.286 0 009.98 2.54c.54-.33 1.04-.72 1.48-1.17 2.59-2.97 6.47-4.48 10.38-4.06 1.75.57 3.24 1.72 4.23 3.26 1.18 1.7 2.84 3.01 4.76 3.77 6.45 1.88 9.46 15.18 9.53 26.74.06 11.15-2.43 19.71-6.07 20.82-2.8.85-3.08 1.12-3.19 1.66l-.1.49.4.36c1.69.27 3.42.16 5.07-.3z" fill="#2f2e41"/><path d="M490.74 384.55c2.52 9.23 12.05 14.67 21.28 12.15.98-.27 1.94-.63 2.86-1.07l43.18 43.88 6.68-31.28-42.03-36.88c-4.69-8.39-15.3-11.4-23.7-6.7a17.39 17.39 0 00-8.27 19.9z" fill="#ffb6b6"/><path d="M716.3 338.74l-.27-.16-31.49-10.83a29.811 29.811 0 00-24.41 2.27c-1.71.97-3.32 2.1-4.79 3.39h-.01a29.745 29.745 0 00-9.68 16.41l-16.54 78.51-33.25-17.92-13.55-3.23-12.34-12.38-30.8-12.54-1.71 2.04-15.5 18.52-1.21 1.46 34.12 49.37 15.3 1.66 4.28 7.63.31.14 12.54 5.65 53.48 24.09 25.9-19.82 4.05-3.11c33.51-31.04 49.17-56.01 55.71-75.03 3.46-10.05 4.37-18.42 4.03-25.17-1.07-20.86-13.64-30.56-14.17-30.95z" fill="#ccc"/><path d="M745.9 357.87h-15c-43.35 0-78.5 35.15-78.5 78.5-13.99 17.3-13.13 39.03 0 64.42l-42.99-17.92c-6.13-2.54-13.15.36-15.68 6.49-2.53 6.1.35 13.1 6.44 15.66l52.23 21.77v4.06c0 12.71 10.31 23.02 23.02 23.02h125.96c12.71 0 23.02-10.31 23.02-23.02 9.34-34.26 15.18-67.48 0-94.48 0-43.35-35.14-78.5-78.5-78.5z" fill="#3f3d56"/><path d="M78.67 407.59c-.97 0-1.94.1-2.9.27L59.87 307.2l15.93-96.91c2.19-13.3-6.82-25.86-20.12-28.05-12.01-1.97-23.63 5.2-27.26 16.81a192.54 192.54 0 00-8.76 59.05l.56 66.09 42.39 101.5c1.06 8.88 9.12 15.21 17.99 14.15 8.87-1.06 15.2-9.12 14.14-17.99-.97-8.14-7.87-14.26-16.07-14.26z" fill="#ffb8b8"/><path d="M49.55 175.81c-21.19.04-38.36 17.2-38.39 38.39l7.8 78.8.7 7.06.36.02 27.39 1.36h.01l13.29.66 2.28.11L65.6 293l22.34-78.8c-.02-21.19-17.2-38.37-38.39-38.39z" fill="#e6e6e6"/><path d="M50.73 554l-12.6-38.66s-23.1-23.49 6.53-85.85c.65-1.38 1.33-2.77 2.04-4.19 1.24-2.49 2.57-5.04 3.98-7.66 2.14-3.8 4.31-7.73 6.76-11.79l2.24.4 2.12.37 7.25 1.28h.01l104.99 18.5s-1.93 8.62-2.97 17.87c-.83 7.59-1.1 15.27.86 18.52 4.24 7.26-1.49 26.88-1.49 26.88s.32 1.9.86 5.26v.01c.53 3.27 1.27 7.91 2.11 13.53.04.38.09.76.15 1.14 1.33 9.1 2.92 20.59 4.34 32.94.44 3.75.86 7.58 1.26 11.45H50.73z" fill="#2f2e41"/><path d="M20.8 196.19c2.64-7.27 8.8-12.69 16.34-14.39a51.09 51.09 0 0116.95-1.86c16.72.66 12.5-36.8 29.06-34.37 0 0 15.58-5.56 27.77 4.63 11.08 9.26 18.72 34.44 21.56 33 .6-.3 2.05-.26 4.08.01 23.73 3.14 40.8 24.43 39.39 48.32l-1.21 20.42s8.52 12.82-3.84 35.46L155.33 357s38.96 77.17 21 93-88.39-8.85-88.39-8.85-39.49-12.21-47.82-17.5c-17.59-11.18 4.9-36.66 18.8-35.46a8.09 8.09 0 00-2.55-8.1c-3.84-2.46.47-8.01.79-8.52-.37.37-3.29 3.42-5.51-3.01s4.63-14.54 4.63-14.54l-19.35-41.66-15.23-32.92-1.85-3.79 3.18-20.48-.3-.62a65.588 65.588 0 01-4.23-45.3c1.47-5.56 2.53-10.63 2.3-13.06z" fill="#e6e6e6"/><path d="M179.17 554h-6.68c1.85-3.97 3.68-7.82 5.42-11.45.44 3.75.86 7.58 1.26 11.45z" fill="#2f2e41"/><path d="M310.29 321.05c-.59.78-1.11 1.6-1.56 2.46l-89.33-49.06-66.87-71.92c-9.18-9.88-24.62-10.44-34.5-1.26-8.9 8.28-10.35 21.86-3.4 31.84h.01a192.26 192.26 0 0041.33 43.08l52.59 40.02 106.21 28.63c7.67 4.59 17.61 2.1 22.2-5.57 4.59-7.66 2.1-17.6-5.57-22.19-7.03-4.22-16.09-2.51-21.11 3.97z" fill="#ffb8b8"/><path d="M189.37 301.61l26.52-30.93 1.48-1.73-54.32-73.61c-2.35-1.83-4.9-3.37-7.62-4.6-19.3-8.77-42.06-.24-50.83 19.06-7.36 16.2-2.62 35.34 11.45 46.23l15.85 9.94 57.24 35.91.23-.27z" fill="#e6e6e6"/><path d="M141.78 111.91c-13.54 24.76-44.59 33.85-69.34 20.31-24.76-13.54-33.86-44.58-20.32-69.34 13.54-24.76 44.59-33.85 69.35-20.31a51.102 51.102 0 0122.91 25.81c.23.59.44 1.17.65 1.78a51.016 51.016 0 01-3.25 41.75z" fill="#ffb6b6"/><path d="M149.12 70.16c-2.19-6.15-1.24-2.95-3.46-9.08 1.45 5.43-.84 8.47-.63 9.08H84.19V34.79c17.83-7.06 35.25-13.07 45.78 0 19.53 0 35.36 15.84 35.36 35.37h-16.21z" fill="#2f2e41"/><path d="M127.56 168.47c-.05-.66-.12-1.34-.21-1.99-.82-4.81-2.14-9.51-3.96-14.04-1.75-4.93-3.53-9.89-5.3-14.83a42.53 42.53 0 01-1.99 26.95c-10.27-8-3.79-26.29-17.22-26.29-32.28 0-65.49-26.17-65.49-58.47 0-32.28 13.85-56.42 46.13-56.42 32.3 0 58.49 14.78 59.13 47.06-39.77 9.36-3.58 94.75-11.09 98.03z" fill="#2f2e41"/><circle cx="37.42" cy="37.42" fill="#2f2e41" r="37.42"/><ellipse cx="234.72" cy="180.3" fill="#3f3d56" rx="4.52" ry="4.62"/><ellipse cx="250.33" cy="180.3" fill="#3f3d56" rx="4.52" ry="4.62"/><ellipse cx="265.94" cy="180.3" fill="#3f3d56" rx="4.52" ry="4.62"/><path d="M283.74 183.95c-.14 0-.28-.05-.39-.16l-3.04-3.11a.525.525 0 010-.75l3.04-3.12c.21-.21.55-.21.76 0 .21.2.21.54.01.75l-2.69 2.74 2.69 2.75a.53.53 0 01-.38.9zm5.12 0a.525.525 0 01-.38-.9l2.68-2.75-2.68-2.74a.525.525 0 010-.75c.22-.21.55-.21.76 0l3.05 3.12c.2.21.2.54 0 .75l-3.05 3.11c-.1.11-.24.16-.38.16zm169.45-7.73h-5.67c-.64 0-1.17.52-1.17 1.17v5.67c0 .65.53 1.17 1.17 1.17h5.67c.65 0 1.18-.52 1.18-1.17v-5.67c0-.65-.53-1.17-1.18-1.17zm-13.89 0h-5.67c-.64 0-1.17.52-1.17 1.17v5.67c0 .65.53 1.17 1.17 1.17h5.67c.65 0 1.18-.52 1.18-1.17v-5.67c0-.65-.53-1.17-1.18-1.17zm26.98.27h-5.67c-.64 0-1.17.52-1.17 1.17v5.67c0 .65.53 1.17 1.17 1.17h5.67c.65 0 1.18-.52 1.18-1.17v-5.67c0-.65-.53-1.17-1.18-1.17zm-94.18 2.16h-49.93c-.79 0-1.42.64-1.42 1.42s.63 1.43 1.42 1.43h49.93c.79 0 1.43-.64 1.43-1.43s-.64-1.42-1.43-1.42z" fill="#3f3d56"/></g></svg>