<svg width="800" height="600" xmlns="http://www.w3.org/2000/svg" data-name="Layer 0 Image"><g class="layer"><path d="M301.093 466.729l-6.049-2.713-1.053-6.739-3.412 1.105-5.112-6.91 1.486-5.407-4.47.426-.285-10.237 2.957.282 1.767-3.928c5.228.478 10.43-1.895 14.967 1.748 1.86-3.35 5.56-3.066 7.78-2.614 5.268 1.094 10.979-.886 15.526 1.052 5.314 2.251 10.601 1.15 15.768 1.894 6.207.9 12.618 1.757 19.002 2.099 6.244.331 13.04.156 19.051 3.086 12.155-1.271 23.654 3.123 35.464 4.592 9.216 1.156 18.761 1.728 27.774 5.005 3.127 1.14 7.442-.705 8.521 5.354 4.194-3.188 7.937-4.296 12.394-2.115a29.23 29.23 0 0010.31 2.63c9.163.942 17.866 3.833 26.784 5.818 8.188 1.825 16.136 4.753 24.217 6.419 10.883 2.246 19.922 8.134 29.978 11.898 1.772.667 2.916 2.868 4.605 3.93 1.83 1.173 4.826 1.338 5.753 2.889 1.21 1.995 2.998 1.49 4.297 2.409 1.916 1.36 3.726 2.904 5.96 4.652.203 2.053 3.026 4.1 1.58 7.303-.368.813.473 3.04 1.26 3.345 5.896 2.249 5.108 7.582 5.794 12.685-2.52 8.212-8.736 11.957-17.533 12.048a12.13 12.13 0 01-3.455-.323c-4.338-1.178-8.585-3.232-12.958-3.5-4.802-.283-8.76-2.193-12.921-3.938-4.007-1.673-8.168-4.894-11.989-4.545-4.266.393-7.151-4.559-11.298-1.828-1.416-4.03-5.96-.99-8.017-3.547-3.96 1.17-6.922-1.731-10.396-2.437-3.208-.644-6.38-1.617-9.498-2.133a206.8 206.8 0 01-30.172-7.57c-5.691 1.742-9.802-4.174-15.599-2.983-4.98 1.016-9.79-1.736-14.595-2.732-5.456-1.129-11.033-2.62-16.502-4.08-5.117-1.353-10.38-2.136-15.574-3.404-7.645-1.85-15.735-1.811-23.277-4.546-4.7 2.253-8.148-3.046-13.055-1.933-4.11.937-8.842-.715-12.848-1.785-9.758-2.626-19.8-1.793-29.524-3.844-2.308-.49-4.61-.93-7.295-1.471.626-2.247 1.095-3.924 1.825-6.593l-7.932 1.166zM410.62 296.36c.22-.7.41-1.29.6-1.88l6.3 3.61c-.24-1.78-.4-2.92-.63-4.74 2.6-.96 5.64-3.22 8.1-2.7 3.99.83 4.16-3.38 7.04-3.76 2.62-.34 5.31-3.04 7.57-2.61 3.68.71 5.74-1.8 8.6-2.45a-68.57-68.57 0 018.85-.99l4.34-4.28 5.89 4.09c-.55-3.21-.74-4.26-1.04-5.98 9.94.48 17.87-6.74 27.54-6.8.64.77 1.21 1.45 2.68 3.22-.34-2.34-.48-3.33-.65-4.49l7.03-1.54c.81 1.24 1.64 2.47 2.84 4.3l1.27-2.5 4.33-.04-.23-4.25c2.54.36 5.09.73 8.11 1.15.49.74 1.31 1.98 2.37 3.59l4.37-5.97c5.12 2.75 12.13 1.65 16.94 6.41l-.81 3c2.42.78 2.93-.04 2.78-4.53a-11.49-11.49 0 011.59-.91c.23-.1.58.08 1.57.26l.31 4.9 4.61 4.1-5.98.75c1.53 1.74 2.67 3.02 4.6 5.22l-8.42.4.55-2.59-5.89.02 2.89 5.63-3.88 5.36-14.74 1.17c-1.47 1.67-9.01 4.38-12.97 4.58l-1.08 2.87-6.85.2.64-2.56c-.52-.08-1.35-.46-1.58-.23-2.68 2.63-4.43 6.61-9.58 5.14-.95-.28-2.64 1.99-3.97 3.1-6.09 5.11-12.92 7.36-20.77 5.74-1.12 1.02-2.19 2.47-3.6 3.16-1.68.82-5.11.66-5.29 1.49-.96 4.29-4.14 1.3-6.02 2.23a-12.51-12.51 0 01-5.94 1.78c-4.01.19-8.03 1.85-11.91 3.26a-207.04-207.04 0 01-40.09 10.65c-10.6 1.83-21.12 4.24-31.86 4.92-7.24.46-14.89 1.37-21.68-.43-6.14-1.64-12.84-2.43-18.88-6.15.09-.97.2-2.13.33-3.46l-2.29-.93 3.2-9.08c2.96-.54 6.19-.82 9.57 2.1-.76-2.27-1.32-3.93-1.93-5.72l2.39-1.22c.98.88 1.85 1.65 2.73 2.45l1.92-3.29 3.44.59 2.12-5.8c3.32 1.47 5.89 2.98 8.65 3.71 2.69.71 5.73-2.87 8.78.93-.07.7-.18 1.86-.36 3.66l5.73-2.57-4.34-1.69c2.18-.97 3.73-2.27 5.25-2.24a-39.44-39.44 0 0010.41-1.32-53.58-53.58 0 009.32-2.98c2.73-1.05 5.75-1.35 8.49-2.38 2.89-1.09 5.5-3.03 8.45-3.89 2.6-.76 5.5-.55 8.25-.77z"/><path d="M474.615 98.569l7.095 3.506c1.61 4.371 1.435 8.432-1.529 13.194-1.007.079-2.87.236-5.073.416.684 7.26-7.81 5.713-8.795 10.681-7.26 4.233-15.395 6.049-22.205 10.702a7.08 7.08 0 01-3.534 1.242 73.27 73.27 0 00-23.962 10.812 63.24 63.24 0 01-16.803 7.156 37.79 37.79 0 00-17.683 8.81 7.14 7.14 0 01-3.533 1.253c-4.709 1.644-9.704 2.765-14.024 5.134-3.479 1.9-7.253 2.709-10.812 4.163-6.134 2.513-12.759 3.845-19.194 5.606-6.484 1.774-12.937 3.717-19.499 5.095-2.737.577-5.752-.13-8.758-.266l-2.986-11.183c-.178-3.055 4.903-2.038 7.322-4.347l-.64-3.204 7.709-9.866c12.23-5.563 25.687-12.412 39.777-18.051a54.96 54.96 0 0019.646-10.297c4.449-2.97 10.036-4.241 15.047-6.446 13.295-5.836 26.844-11.609 40.855-15.168 13.154-3.34 25.8-9.142 41.59-8.943z"/></g></svg>