<?xml version="1.0" encoding="UTF-8"?><svg viewBox="0 0 878.63 600" xmlns="http://www.w3.org/2000/svg" xmlns:xlink="http://www.w3.org/1999/xlink"><style>:root>svg{display:none}:root>svg:target{display:block}</style><svg viewBox="0 0 110 55" id="" xmlns="http://www.w3.org/2000/svg"><path style="fill-rule:nonzero;fill:#fff;fill-opacity:1;stroke-width:2;stroke-linecap:round;stroke-linejoin:miter;stroke:#ffdd5f;stroke-opacity:1;stroke-miterlimit:4" d="M81.031 3.494C62.962-.484 22.52-2.617 5.325 20.627c-21.5 29.062 42.902 29.835 67.42 25.338 14.672-2.693 24.253-9.27 24.253-18.796 0-8.192-16.635-20.512-46.752-18.183" transform="rotate(.108) scale(1.12245)"/></svg><svg viewBox="0 0 158 21" id="" xmlns="http://www.w3.org/2000/svg"><path style="fill-rule:nonzero;fill:#fff;fill-opacity:1;stroke-width:2;stroke-linecap:round;stroke-linejoin:miter;stroke:#85c226;stroke-opacity:1;stroke-miterlimit:4" d="M.998 6.406c18.562-2.826 73.639-7.63 145.465-4.24M41.232 14.683C54.424 11.487 93.9 4.54 146.275 2.343" transform="scale(.87293 .875)"/><path style="fill-rule:nonzero;fill:#fff;fill-opacity:1;stroke-width:2;stroke-linecap:round;stroke-linejoin:miter;stroke:#85c226;stroke-opacity:1;stroke-miterlimit:4" d="M41.666 14.625c17.845-1.545 70.475-2.732 138.229 4.884" transform="scale(.87293 .875)"/></svg><svg fill="none" viewBox="0 0 145 12" id="" xmlns="http://www.w3.org/2000/svg"><path d="M1 11S5.727 1 15.547 1c9.819 0 14.836 10 24.655 10S55.038 1 64.857 1s14.836 10 24.655 10c9.82 0 8.383-10 24.655-10C130.44 1 144 7.316 144 7.316" stroke="#ed3f9c" stroke-width="2" stroke-linecap="round" fill="#fff"/></svg><svg data-name="Layer 0 Image" viewBox="0 0 800 600" id="" xmlns="http://www.w3.org/2000/svg"><path d="M458.869 388.3c52.7 1.883 97.015-18.08 136.735-51.076 45.217-37.563 80.29-83.455 111.011-133.038 9.3-15.015 18.223-30.277 27.882-45.057 2.593-3.968 6.825-8.009 11.127-9.32 2.967-.905 7.349 2.828 11.1 4.489-1.155 2.208-2.206 4.479-3.487 6.612-3.446 5.742-7.5 11.181-10.4 17.178-9.464 19.507-18.2 39.373-27.857 58.778a431.153 431.153 0 0 1-21.426 38.271c-4.931 7.8-12.022 14.191-17.461 21.709-8.62 11.916-15.611 25.168-25.2 36.188-14.934 17.155-30.153 34.51-47.6 48.938-38.573 31.9-83.089 47.485-133.971 44.332-23.675-1.467-47.147-2-69.528-11.164-2.444-1-7.019.583-9.409 2.478-24.07 19.074-51.728 29.09-81.965 30.969-22.627 1.406-45.811 3.2-67.975-.2-18.6-2.856-36.763-11.617-53.844-20.279-15.189-7.7-29.282-18.032-42.68-28.683-19.088-15.174-32.675-35.012-41.665-57.627-1.291-3.249.933-9.255 3.51-12.319 2.865-3.407 6.979-1.772 11.668.328 14.668 6.57 20.622 20.276 28.607 32.125 15.127 22.447 36.861 35.7 61.737 42.751 42.439 12.032 84.661 6.973 125.634-7.84 22.136-8 21.917-8.912 5.788-24.8-21.228-20.914-32.974-45.878-31.348-75.959 1.888-34.915 30.9-59.459 65.838-56.891 10.965.806 18.434 7.521 25.6 14.428 16.294 15.7 25.4 35.286 28.573 57.512 3.286 22.988 3.9 45.8-7.043 67.412-2.641 5.219-.1 7.5 5.414 7.757 10.88.498 21.755 1.31 32.635 1.998Zm-62.437-75.807c-1.837-9.785-3.488-19.609-5.578-29.34-1.291-6.012-5.146-7.6-11.267-6.27-19.176 4.165-33.368 21.061-35.07 41.319-1.856 22.08 10.93 35.7 26.7 47.586 1.233.929 5.8-.681 7.4-2.418 13.151-14.304 16.955-31.861 17.815-50.879ZM522.9 389.885l1 1.861 39.591-16.805-1.22-2.839Zm-185.97 17.187 1.079 2.475 23.805-13.006-1.5-2.737-23.384 13.268Z"/><path d="M43.278 336.982c1.692-19.7 4.236-40.9 4.945-62.159.247-7.43-2.064-14.446 6.189-18.648 1.7-.865 4.179-2.238 5.436-1.621 21.284 10.457 45.047 10.724 67.376 16.739 14.957 4.029 28.885 10.556 38.351 23.589 1.888 2.6 1.755 6.667 2.554 10.057-3.362.675-6.933 2.443-10.054 1.849-22.691-4.32-45.34-8.9-67.892-13.89-7.075-1.567-8.357 1.165-9.194 7.371-1.932 14.317-5 28.478-7.106 42.777-.9 6.109-.561 12.4-.718 18.615-.013.52.8 1.116.706 1.568-.967 4.658-1.42 12.941-3.2 13.244a26.4 26.4 0 0 1-16.189-2.78c-14.346-7.978-9.922-22.581-11.204-36.711Z"/></svg><svg data-name="Layer 0 Image" viewBox="0 0 800 600" id="" xmlns="http://www.w3.org/2000/svg"><path d="M394.54 399.449c14.294.709 28-3.227 41.7-6.706 59.153-15.03 108.985-46.51 154.148-86.679 30.168-26.832 57.481-56.278 83.812-86.744 2.4-2.781 4.726-5.684 8.345-6.954 4.066-1.428 6.936-1.1 5.025 4.315-.471 1.334-2.323 2.583.21 3.361 8.736 2.682 6.368 9.045 4.819 14.833-2.907 10.864-10.178 19.425-16.4 28.336-17.43 24.97-35.819 49.306-57.241 71.016-19.888 20.155-42.475 37.2-65.526 53.606-14.671 10.441-29.742 20.861-47.013 25.58-11.472 3.134-20.74 10.143-31.938 13.331-21.46 6.111-42.9 11.968-65.329 13.212-18.463 1.024-35.9-2.635-51.955-11.823a16.632 16.632 0 0 0-15.648-1.027c-14.481 5.96-29.2 11.47-43.875 16.743-23.87 8.578-48.992 13.328-74.135 17.081-40.1 5.986-80.257 7.875-120.366-.08-23.575-4.675-46.515-10.814-64.215-28.685-4.66-4.705-8.119-9.9-7.9-16.891.092-3.012 1.047-5.293 4-6.552 3.487-1.489 3.794.982 5.4 3.244 11.017 15.5 28.585 17.536 45.275 20.972 45.994 9.472 91.758 5.135 137.408-2.849a492.41 492.41 0 0 0 101.8-29c2.607-1.065 6.207-.973 4.033-5.9-7.57-17.162-6.349-34.713-.188-51.8 9.508-26.364 25-47.739 53.461-55.905 15.3-4.388 25.5.583 34.469 13.612 22.862 33.2 10.314 68.942-15.756 90.341q-3.5 2.871-7 5.737.283 1.139.58 2.275Zm11.359-71.86c.115-8.775-5.544-7.673-10.741-6.925-17.572 2.528-26.605 16.07-35.117 29.1-6.2 9.5-11.456 20.152-11.6 32.147-.056 4.573 1.162 8.21 7.081 4.943 16.158-8.916 30.687-19.758 41.17-35.232 4.99-7.37 8.456-15.453 9.208-24.033Zm55.049 68.474c-22.193 5.19-44 11.087-66.5 13.762 23.579 1.94 45.297-5.248 66.5-13.762Zm-129.672 9.658-55.886 20.025a174.866 174.866 0 0 0 55.886-20.025Z"/><path d="M726.027 245.608c.42-19.009 4.074-37.613 7-56.311.437-2.794 2.425-5.841-1.085-8.282-3.374-2.346-5.974.05-8.261 1.553-12.452 8.181-26.61 12.251-40.173 17.867-8.573 3.55-16.536 8.751-25.451 12.129-13.73 5.2-27.084 11.435-40.438 17.577-6.764 3.112-14.69 2.918-20.577 8.846-5.775 5.816-12.031 4.065-19.141-5.625-3.627-4.942-5.113-11.534 1.061-16.227a98.42 98.42 0 0 1 16.268-10.175c37.882-18.446 75.913-36.587 113.817-54.987 8.511-4.132 16.746-8.84 25.054-13.381 15.1-8.253 21.5-6.04 29.568 9.251 6.263 11.865 6.766 23.578 2.552 36.223-8.109 24.333-15.524 48.9-18.92 74.442-.68 5.118-.641 10.328-1.118 15.478-.553 5.964-3.352 7.49-8.475 3.981-11.356-7.779-12.308-10.395-11.681-32.359Zm-37.008-75.221c17.9-5.637 34.645-13.555 49.685-24.822Z"/></svg><svg viewBox="0 0 851.034 557.347" id="" xmlns="http://www.w3.org/2000/svg"><g class="klayer"><path d="M785.2 269.13H95.11c-9.25 0-16.78-7.53-16.78-16.78V16.78C78.33 7.53 85.86 0 95.11 0H785.2c9.25 0 16.78 7.53 16.78 16.78v235.57c0 9.25-7.53 16.78-16.78 16.78zM95.11 2c-8.15 0-14.78 6.63-14.78 14.78v235.57c0 8.15 6.63 14.78 14.78 14.78H785.2c8.15 0 14.78-6.63 14.78-14.78V16.78C799.98 8.63 793.35 2 785.2 2H95.11z" fill="#3f3d56"/><path fill="#e6e6e6" d="M0 550.56h851.03v1.68H0zM0 464.56h851.03v1.68H0z"/><path d="M387.84 277.79c.61 7.68 5.07 13.59 9.96 13.2 4.88-.39 8.35-6.93 7.74-14.61-.21-3.07-1.14-6.05-2.73-8.69l-3-32.51-15.23 1.74 4.58 31.86a19.286 19.286 0 0 0-1.32 9.01z" fill="#ffb6b6"/><path d="M369.65 126.13s14.23-7.53 21.45 3.73c7.22 11.26 12.2 133.02 12.2 133.02l-20 2.13-3.8-85.8-9.85-53.08z" fill="#e6e6e6"/><path fill="#ffb6b6" d="M340.114 458.204H351.7l5.512-44.695h-17.101l.002 44.695z"/><path d="M379.81 457.94c.36.61.55 2.57.55 3.28a3.93 3.93 0 0 1-3.93 3.93h-35.88c-1.48 0-2.69-1.2-2.69-2.68v-1.5s-1.77-4.49 1.88-10.02c0 0 4.55 4.33 11.33-2.46l2.01-3.62 14.48 10.59 8.04.99c1.75.22 3.31-.03 4.21 1.49z" fill="#2f2e41"/><path fill="#ffb6b6" d="m407.168 456.286 11.227-2.87-5.721-44.667-16.57 4.234 11.064 43.303z"/><path d="M445.57 446.21c.5.49 1.17 2.35 1.34 3.03.54 2.11-.73 4.25-2.83 4.79l-34.77 8.88c-1.44.36-2.9-.5-3.27-1.94l-.37-1.44s-2.83-3.92-.66-10.18c0 0 5.48 3.07 10.37-5.18l1.05-4.01 16.66 6.68 8.02-1.03c1.76-.23 3.21-.86 4.46.4z" fill="#2f2e41"/><path fill="#ffb6b6" d="m330.527 116.525-.549-3.987 6.53-15.948 17.941-1.993 3.874 22.831-27.796-.903z"/><path opacity=".1" d="m330.527 116.525-.549-3.987 6.53-15.948 17.941-1.993 3.874 22.831-27.796-.903z"/><path fill="#2f2e41" d="m309.596 229.158-7.974 21.928 5.98 11.961 29.903 173.434h19.88l-3.932-153.499 45.85 153.5h19.676L403.157 332.82l-11.828-95.688-7.174-4.432-34.69-19.49-39.87 15.948z"/><path fill="#e6e6e6" d="m360.43 244.109-11.961 1.993-15.948-37.876h35.883l-7.974 35.883z"/><path fill="#2f2e41" d="m384.352 234.141-23.922 9.968-7.974-17.942-3.987 19.935-41.864-13.476 5.98-24.4-5.98-79.74 21.112-14.074 2.81-1.874 25.916 1.994 2.272 1.236 15.67 8.731 3.986 65.786 5.98 43.856z"/><path fill="#e6e6e6" d="m358.715 115.768-11.243 47.604-19.755-48.96 2.81-1.874 25.916 1.994 2.272 1.236z"/><path fill="#2f2e41" d="m339.498 112.538-3.987 6.867 3.987 2.289-1.993 41.802 7.974 10.84 7.974-16.021-5.98-36.621 1.993-9.156h-9.968z"/><circle cx="345.48" cy="89.61" fill="#ffb6b6" r="18.94"/><path d="m333.38 91.27 4.09 1.79 1.78-10.71s7.15-3.58 12.5-1.79 14.29 0 14.29 0 0-17.86-12.5-17.86-25 1.79-25 7.14-5.36 10.72-5.36 10.72-7.14 10.71 0 17.86c7.14 7.14 10.72 7.14 10.72 7.14l-.52-14.29z" fill="#2f2e41"/><path d="M296.63 277.23c-.21 7.7 3.6 14.05 8.5 14.18s9.04-6 9.25-13.7c.12-3.08-.49-6.14-1.79-8.93l.46-32.65-15.32.11 1.17 32.17a19.272 19.272 0 0 0-2.27 8.82z" fill="#ffb6b6"/><path d="M315.59 124.46s-12.96-3.99-18.94 7.98C290.67 144.4 298.64 266 298.64 266h20.12l-5.34-85.72 2.17-55.82z" fill="#e6e6e6"/><path d="m812.66 351.01-48.32-14.79a8.816 8.816 0 0 0-3.31-.36l-244.9 20.85c-3.49.29-4.37 5-1.22 6.54l7.85 3.82h-.21v182.95h7.39V370.57l24.58 11.98c1.88.91 3.98 1.29 6.07 1.08l2.61-.27v166.66h7.39v-167.4l189.42-19.14v186.54h7.4V362.74l31.41-3.18v190.46h7.39v-191.2l5.73-.58c4.03-.41 4.58-6.05.72-7.23z" fill="#3f3d56"/><path d="M587.23 355.98c4.62 0 72.99-8.31 72.99-8.31l10.17 13.86-71.15 13.86-12.01-19.41z" fill="#fff"/><path fill="#a0616a" d="m662.27 542.917-11.88-.022-5.572-45.83 17.532.03-.08 45.822z"/><path d="M621.57 542.58c-.37.62-.57 2.63-.57 3.35a4.025 4.025 0 0 0 4.02 4.04l36.79.07c1.52 0 2.76-1.23 2.76-2.75v-1.53s1.83-4.6-1.91-10.28c0 0-4.66 4.43-11.61-2.54l-2.05-3.72-14.87 10.84-8.23 1c-1.8.22-3.4-.04-4.33 1.52z" fill="#2f2e41"/><path fill="#a0616a" d="m726.027 521.605-9.372 7.069-31.73-32.787 13.834-10.434 27.268 36.152z"/><path d="M693.76 545.62c.08.71 1.12 2.41 1.55 2.98a3.975 3.975 0 0 0 5.58.78l29.02-21.89c1.2-.91 1.44-2.61.54-3.81l-.91-1.21s-1.31-4.71-7.64-6.96c0 0-1.03 6.28-10.66 4.93l-3.83-1.71-5.26 17.41-5.89 5.7c-1.29 1.24-2.7 1.99-2.5 3.77v.01z" fill="#2f2e41"/><path d="M701.2 284.74c0 10.95-8.88 19.84-19.84 19.84-10.95 0-19.83-8.89-19.83-19.84s8.88-19.84 19.83-19.84 19.84 8.88 19.84 19.84z" fill="#a0616a"/><path d="M699.33 399.11s-73.03-4.14-77.16 4.13 22.34 121.83 22.34 121.83l23.63-4.95-11.53-79.67s60.95 16.14 69.22-3.16c8.26-19.29 5.88-26.47 5.88-26.47l-32.38-11.71z" fill="#2f2e41"/><path d="M718.04 385.23s-71.52 15.33-73.32 24.4 53.78 111.58 53.78 111.58l21.48-11.03-32.2-73.79s63.05-.55 65.92-21.34c2.87-20.79-1.33-27.09-1.33-27.09l-34.33-2.73z" fill="#2f2e41"/><path d="M726.2 307.47h-34.36l-23.51 38.59s-5.51 24.93 0 27.62c5.51 2.69 5.51 31.63 5.51 31.63l57.87 5.51s8.27-86.81 5.52-95.08c-2.76-8.27-11.03-8.27-11.03-8.27z" fill="#c81e78"/><path d="m671.77 332.96-3.44 40.72-38.75-16.45-9.25-4.65a18.678 18.678 0 0 0-6.85-5.52c-6.7-3.26-13.81-2.45-15.89 1.81-2.07 4.26 1.67 10.36 8.37 13.62 2.65 1.34 5.59 2.02 8.57 1.99l27.06 15.37.03-.06.12.22 42.43 17.72 9.77-53.45-22.17-11.32z" fill="#a0616a"/><path d="M667.64 287.49s-20.67 2.76-12.4-15.16c0 0-1.26-9.71 4.88-10.36s14.41-11.68 14.41-11.68 18.95-9.65 28.77 0c9.81 9.64 38.75 66.14 38.75 66.14l-19.29 20.67s-11.6-30.49-25.09-26.96c-13.5 3.53-25.9 14.06-25.9 14.06s-13.69-6.85-7.53-12.82c6.15-5.97 3.4-23.89 3.4-23.89z" fill="#2f2e41"/><path d="M695.2 317.81s-9.65-12.4-16.54-2.76c-6.89 9.65-12.4 22.05-12.4 22.05l27.56 9.64 1.38-28.93z" fill="#c81e78"/><path d="m799.84 547.28-32.02-101.77h.08l-.13-.17h-.01l-2.28-7.25c3.48-3 5.84-7.27 6.31-12.2l-14.63-80.5c1.01-10.57-7.1-19.81-17.71-20.19l-33.03-.08c-9.39-.33-17.52 6.45-18.88 15.75l-.73 4.93-10.12 68.83c-.37 2.47-.22 4.91.36 7.2l-7.28.95-2.21.29-8.73 1.14-.03.01-1.09.14h-1.18v29.57h.07v94.5a1.114 1.114 0 0 0 2.23 0v-94.5h12.95l12.93 94.39c.08.56.55.96 1.11.96.04 0 .1 0 .14-.01.61-.08 1.04-.64.96-1.25l-12.88-94.09h62.15c6.17 0 11.89-1.96 16.55-5.32l24.64 99.54c.13.5.59.84 1.08.84.09 0 .19-.01.28-.04.59-.15.95-.75.8-1.35l-24.88-100.5c.33-.27.66-.57.97-.87l9.9-.58 32.18 102.3a1.122 1.122 0 0 0 1.4.73c.58-.19.91-.81.73-1.4zm-36.47-107.61c.08-.05.15-.1.23-.15l.24.76-.47-.61z" fill="#e6e6e6"/><path fill="#ffb6b6" d="m171.565 374.775 21.55-13.704 8.76 5.284-30.31 34.828v-26.408z"/><path d="M142.1 321.73s-14.32 3.37-7.58 22.73 28.63 59.78 35.36 57.26c6.74-2.53 7.58-27.79 7.58-27.79s-.84.84-4.21-2.52c-3.37-3.37-3.37-1.83-3.37-5.55s-2.75-6.47-2.75-6.47l-3.14-6.51s0-30.31-12.63-31.99c-12.63-1.68-9.26.84-9.26.84z" fill="#e6e6e6"/><ellipse cx="202.72" cy="359.2" fill="#ffb6b6" rx="14.31" ry="8.84" transform="rotate(-45 202.717 359.199)"/><g fill="#e6e6e6"><path d="m86.348 433.29 14.704 24.338 85.69-5.07-22.817-29.409-77.577 10.141z"/><path d="M111.95 547.12c-.5 0-.93-.37-1-.88l-25.61-187c-.07-.56.32-1.07.87-1.15.55-.08 1.07.32 1.14.87l25.61 187.01c.07.55-.31 1.06-.87 1.14-.05.01-.09.01-.14.01z"/><path d="M86.35 547.36c-.56 0-1.02-.46-1.02-1.02V359.13a1.016 1.016 0 0 1 2.03 0v187.21c0 .56-.45 1.02-1.01 1.02zM214.88 546.61c-.43 0-.83-.27-.97-.71l-60.59-192.58a1.016 1.016 0 0 1 1.94-.61l60.59 192.58c.17.54-.13 1.11-.66 1.28-.1.03-.21.04-.31.04zM196.37 546.85c-.45 0-.86-.3-.98-.76l-42.08-169.97c-.14-.55.19-1.1.73-1.24.55-.13 1.1.19 1.23.74l42.09 169.97a1.012 1.012 0 0 1-.99 1.26z"/><path d="m86.348 362.117 70.225-1.08 12.93 73.774h-82.14l-1.015-72.694z"/></g><path fill="#ffb6b6" d="m194.266 470.597-17.698 31.158 20.549 4.524 8.567-22.161-11.418-13.521z"/><path d="M182.92 495.87s-.68-5.08-4.73-3.47-15.71 7.61-15.71 7.61 30.44 49.45 36.21 47.15c5.78-2.31-1.14-16.29-1.14-16.29l1.53-24.7-16.16-10.3zM116 410.14s-6.32 29.04 13.05 39.15c19.36 10.1 85.45-14.74 85.45-14.74l-30.31 45.42 21.05 8.47s47.99-63.15 44.63-73.25c-3.37-10.11-26.1-10.95-26.1-10.95l-51.36 2.53-13.47-4.21-42.94 7.58z" fill="#2f2e41"/><path fill="#ffb6b6" d="m168.084 484.425-27.823 22.583 17.494 11.69 16.043-17.524-5.714-16.749z"/><path d="M148.32 503.84s1.21-4.98-3.14-4.95-17.4 1.37-17.4 1.37 10.35 57.13 16.57 57.09c6.22-.05 4.86-15.58 4.86-15.58l10.41-22.46-11.3-15.47zM117.18 399.63s-16.45 24.76-2.09 41.21c14.36 16.46 84.96 17.38 84.96 17.38l-44.76 31.27 16.53 15.55s67.67-41.36 68.21-51.99c.54-10.64-20.32-19.7-20.32-19.7l-48.76-16.33-11.02-8.82-42.75-8.57zM159.44 342.28s-15.99-5.89-23.57-5.89c-.73 0-1.44.08-2.16.24-4.85 1.02-9.31 5.19-11.45 7.46-.83.9-1.31 1.49-1.31 1.49s.05-.58.15-1.59c.5-5.36 2.33-22.93 5.63-34.18 1.17-4.02 2.53-7.22 4.09-8.78 3.63-3.64 5.3-8 6.08-11.25.65-2.79.65-4.75.65-4.75l-6.13-2.64-1.14-7.43c-.2.88-1.14 2.59-4.28 5.86-.27.28-.56.52-.87.72-4.53 2.84-13.77-2.11-18.75-5.22 2.08-7.2 5.83-13.78 12.65-14.86 16-2.53 16-11.79 26.1-1.69.83.84 1.68 1.64 2.52 2.41 3.23 6.18 4.41 14.47 4.83 20.23.3 4.03.23 6.83.23 6.83s4.21 25.26 10.94 30.31c6.74 5.05-4.21 22.73-4.21 22.73z" fill="#2f2e41"/><path fill="#ffb6b6" d="m128.292 301.871-11.377 16.687 25.69 6.888V301.87h-14.313z"/><path opacity=".1" d="m128.292 301.871-11.377 16.687 25.69 6.888V301.87h-14.313z"/><path d="m144.2 317.94-24.41-10.1s-32.84 14.31-30.31 42.1c2.52 27.78 26.1 75.77 26.1 75.77l47.14-20.2-5.05-53.89-13.47-33.68z" fill="#e6e6e6"/><circle cx="133.73" cy="287.78" fill="#ffb6b6" r="21.54"/><path d="M162.81 279.98c-4.21 4.21-7.58 8.42-7.58 8.42l-1.68-6.74s-.39.29-1.07.75c-2.67 1.81-9.83 6.39-15.58 7.37-2.56.44-4.84.16-6.32-1.38-3.14-3.27-4.07-4.98-4.28-5.86l-1.13 7.43-6.14 2.64s0 9.24 6.74 16c.32.33.64.73.96 1.2 3.21 4.85 5.52 16.72 6.98 26.82 1.3 8.97 1.92 16.53 1.92 16.53s-6.37-7.98-13.37-9.07c-.38-.05-.77-.1-1.16-.1-.12-.02-.26-.02-.39-.02-7.57 0-23.57 5.89-23.57 5.89s-10.95-17.68-4.21-22.73c6.74-5.05 10.95-30.31 10.95-30.31s-.28-10.81 2.5-20.5c2.08-7.2 5.83-13.78 12.65-14.86 16-2.53 16-11.79 26.1-1.69.83.84 1.68 1.64 2.52 2.41 9.41 8.66 19.03 13.94 15.16 17.8z" fill="#2f2e41"/><path fill="#3f3d56" d="M60.33 393h8v158h-8zM254.33 393h8v158h-8z"/><path fill="#c81e78" d="M163.33 325h53v53h-53z"/><path fill="#ffb6b6" d="m127.784 382.352 21.55-13.704 8.76 5.285-30.31 34.828v-26.409z"/><path d="M98.32 329.31s-14.32 3.37-7.58 22.73c6.73 19.37 28.62 59.78 35.36 57.25 6.74-2.52 7.58-27.78 7.58-27.78s-.84.84-4.21-2.53c-3.37-3.36-3.37-1.83-3.37-5.54s-2.75-6.47-2.75-6.47l-3.14-6.51s0-30.31-12.63-31.99c-12.63-1.69-9.26.84-9.26.84z" fill="#e6e6e6"/><ellipse cx="158.94" cy="366.78" fill="#ffb6b6" rx="14.31" ry="8.84" transform="rotate(-45 158.936 366.776)"/><path fill="#3f3d56" d="M36.33 387h242v18h-242z"/><rect fill="#3f3d56" height="25" rx="5.13" ry="5.13" width="46" x="483.33" y="243"/><rect fill="#c81e78" height="10.26" rx="5.13" ry="5.13" width="46" x="558.33" y="257.74"/></g></svg><svg viewBox="0 0 833.723 554" id="" xmlns="http://www.w3.org/2000/svg"><g class="mlayer"><circle cx="512.4" cy="148.87" fill="#f2f2f2" r="36"/><circle cx="298.4" cy="82.87" fill="#f2f2f2" r="30"/><circle cx="200.4" cy="366.87" fill="#f2f2f2" r="30"/><path d="M169.91 412.87c8.69 10.3 18.09 84.56 28.12 93.54l470.58 1c10.03-8.98 19.43-83.24 28.12-93.54l-526.82-1z" fill="#e6e6e6"/><path d="M316.6 325.65v102.56h71.85V325.65c0-1.52-.98-2.86-2.43-3.3a3 3 0 0 0-1.03-.16h-64.92a3.455 3.455 0 0 0-3.47 3.45v.01zm28.04 35.24c.04-4.24 3.5-7.64 7.74-7.6 4.18.04 7.56 3.41 7.6 7.6v11.9c-.02 4.23-3.47 7.65-7.71 7.63a7.667 7.667 0 0 1-7.63-7.63v-11.9z" fill="#3f3d56"/><path d="M203.57 171.13v187.26c0 4.96 4.03 8.99 9 9h277.5c4.97-.01 8.99-4.04 9-9V171.13c-.01-4.97-4.04-8.99-9-8.99h-277.5c-4.97 0-8.99 4.02-9 8.99z" fill="#3f3d56"/><path d="M210.08 173.46v182.62c0 2.65 2.15 4.8 4.81 4.81h272.87c2.65-.01 4.8-2.16 4.81-4.81V173.46c0-2.66-2.15-4.82-4.81-4.82H214.89c-2.66 0-4.81 2.16-4.81 4.82z" fill="#c81e78"/><path d="M265.72 439.09c.56.7 1.42 1.11 2.32 1.11h162.34a2.998 2.998 0 0 0 2.92-3.6l-2.52-11.97c-.21-1-.91-1.81-1.86-2.17-.34-.14-.7-.2-1.06-.2H270.55c-.36 0-.72.06-1.06.2-.95.36-1.65 1.17-1.86 2.17l-2.52 11.97c-.18.88.04 1.79.61 2.49zM223.66 193.79h255.33c.56-.01 1-.47.99-1.03-.01-.55-.45-.99-.99-1H223.66a1.016 1.016 0 0 0 0 2.03z" fill="#3f3d56"/><path d="M795.94 392.2c-.02-.05-.03-.09-.05-.13-.38-1.04-.83-2.06-1.35-3.04-2.91-5.47.17-13.87-3.11-23.15-5.3-15.04-11.76-23.91-21.23-31.86-.28-.24-.56-.47-.85-.71l-.01-.01c-6.32-5.19-13.94-10.04-23.4-16.08-1.97-1.26-8.78 2.38-8.62-3.86.18-6.93.37-14.11-3.03-18.59l-.22-.29-.35-.09a149.738 149.738 0 0 0-35.42-2.73h-.01c-5.04.18-10.04.92-14.93 2.19-.36.1-.72.2-1.07.32-.27.07-.54.16-.81.25l-.22.08-.17.16c-3.29 3.29-4.05 9.19-4.41 15.34v.01c-.07 1.12-.13 2.24-.18 3.36-.28 5.98-14.71 10.81-20.21 13.52-10.33 5.1-8.77 16.98-8.89 16.98 0 0-17.37 35.66-17.58 71.77-.01 2.01-.02 4.03-.04 6.06-.12 16.82-.44 33.93-1.7 49.52-.55 6.7-1.26 13.11-2.21 19.1-4.62 29.17-25.55 4.95-35.56 24.36.33 1.91.89 3.77 1.65 5.55 1.15.68 2.33 1.34 3.5 2 5.19 2.89 10.48 5.58 15.86 8.09.3.14.6.28.9.41a236.946 236.946 0 0 0 36.57 13.39c18.14 5 36.81 7.8 55.61 8.33.08-.01.16-.02.23-.01 22.24-.62 44.34-3.8 65.84-9.49l.9-.24c1.41-.38 2.81-.76 4.21-1.16 12.38-3.53 24.51-7.88 36.3-13.02.02.44.06.87.13 1.31.01.14.03.28.06.42.02-.16.04-.32.05-.48.06-.47.11-.95.16-1.43 6.12-59.68-6.59-110.35-16.34-136.15z" fill="#ccc"/><circle cx="707.42" cy="228.4" fill="#ffb6b6" r="58.07"/><path d="M711.72 287.52a158.24 158.24 0 0 0 26.01-6.98c8.3-3.44 24.88-21.38 28.61-30.96 2.77-7.12 3.41-17.51 3.45-24.98a70.576 70.576 0 0 0-22.84-52.65 22.188 22.188 0 0 0-10.31-5.82c-.34-.07-.69-.11-1.04-.14a27.531 27.531 0 0 1-15.05-5.7c-.85-.68-1.75-1.31-2.68-1.86-4.68-2.61-9.9-4.07-15.24-4.27-8.69-.6-20.2 3.92-34.23 13.44-7.05 4.78-15.69 5.23-22.43 5.09-.76 0-1.47.4-1.86 1.07a15.163 15.163 0 0 1-9.36 6.02c-2.29.55-4.09 4.23-6.21 8.97-.48 1.08-1.04 2.34-1.47 3.12l-.33-1.28-1.03 1.7c-5.28 8.72-2.49 20.08 6.24 25.36a18.47 18.47 0 0 0 7.7 2.58c2.45.16 4.9.08 7.33-.26 1.48-.15 3.01-.31 4.51-.34 9.79.1 18.81 5.33 23.76 13.78a7.286 7.286 0 0 0 9.98 2.54c.54-.33 1.04-.72 1.48-1.17 2.59-2.97 6.47-4.48 10.38-4.06 1.75.57 3.24 1.72 4.23 3.26 1.18 1.7 2.84 3.01 4.76 3.77 6.45 1.88 9.46 15.18 9.53 26.74.06 11.15-2.43 19.71-6.07 20.82-2.8.85-3.08 1.12-3.19 1.66l-.1.49.4.36c1.69.27 3.42.16 5.07-.3z" fill="#2f2e41"/><path d="M490.74 384.55c2.52 9.23 12.05 14.67 21.28 12.15.98-.27 1.94-.63 2.86-1.07l43.18 43.88 6.68-31.28-42.03-36.88c-4.69-8.39-15.3-11.4-23.7-6.7a17.39 17.39 0 0 0-8.27 19.9z" fill="#ffb6b6"/><path d="m716.3 338.74-.27-.16-31.49-10.83a29.811 29.811 0 0 0-24.41 2.27c-1.71.97-3.32 2.1-4.79 3.39h-.01a29.745 29.745 0 0 0-9.68 16.41l-16.54 78.51-33.25-17.92-13.55-3.23-12.34-12.38-30.8-12.54-1.71 2.04-15.5 18.52-1.21 1.46 34.12 49.37 15.3 1.66 4.28 7.63.31.14 12.54 5.65 53.48 24.09 25.9-19.82 4.05-3.11c33.51-31.04 49.17-56.01 55.71-75.03 3.46-10.05 4.37-18.42 4.03-25.17-1.07-20.86-13.64-30.56-14.17-30.95z" fill="#ccc"/><path d="M745.9 357.87h-15c-43.35 0-78.5 35.15-78.5 78.5-13.99 17.3-13.13 39.03 0 64.42l-42.99-17.92c-6.13-2.54-13.15.36-15.68 6.49-2.53 6.1.35 13.1 6.44 15.66l52.23 21.77v4.06c0 12.71 10.31 23.02 23.02 23.02h125.96c12.71 0 23.02-10.31 23.02-23.02 9.34-34.26 15.18-67.48 0-94.48 0-43.35-35.14-78.5-78.5-78.5z" fill="#3f3d56"/><path d="M78.67 407.59c-.97 0-1.94.1-2.9.27L59.87 307.2l15.93-96.91c2.19-13.3-6.82-25.86-20.12-28.05-12.01-1.97-23.63 5.2-27.26 16.81a192.54 192.54 0 0 0-8.76 59.05l.56 66.09 42.39 101.5c1.06 8.88 9.12 15.21 17.99 14.15 8.87-1.06 15.2-9.12 14.14-17.99-.97-8.14-7.87-14.26-16.07-14.26z" fill="#ffb8b8"/><path d="M49.55 175.81c-21.19.04-38.36 17.2-38.39 38.39l7.8 78.8.7 7.06.36.02 27.39 1.36h.01l13.29.66 2.28.11L65.6 293l22.34-78.8c-.02-21.19-17.2-38.37-38.39-38.39z" fill="#e6e6e6"/><path d="m50.73 554-12.6-38.66s-23.1-23.49 6.53-85.85c.65-1.38 1.33-2.77 2.04-4.19 1.24-2.49 2.57-5.04 3.98-7.66 2.14-3.8 4.31-7.73 6.76-11.79l2.24.4 2.12.37 7.25 1.28h.01l104.99 18.5s-1.93 8.62-2.97 17.87c-.83 7.59-1.1 15.27.86 18.52 4.24 7.26-1.49 26.88-1.49 26.88s.32 1.9.86 5.26v.01c.53 3.27 1.27 7.91 2.11 13.53.04.38.09.76.15 1.14 1.33 9.1 2.92 20.59 4.34 32.94.44 3.75.86 7.58 1.26 11.45H50.73z" fill="#2f2e41"/><path d="M20.8 196.19c2.64-7.27 8.8-12.69 16.34-14.39a51.09 51.09 0 0 1 16.95-1.86c16.72.66 12.5-36.8 29.06-34.37 0 0 15.58-5.56 27.77 4.63 11.08 9.26 18.72 34.44 21.56 33 .6-.3 2.05-.26 4.08.01 23.73 3.14 40.8 24.43 39.39 48.32l-1.21 20.42s8.52 12.82-3.84 35.46L155.33 357s38.96 77.17 21 93-88.39-8.85-88.39-8.85-39.49-12.21-47.82-17.5c-17.59-11.18 4.9-36.66 18.8-35.46a8.09 8.09 0 0 0-2.55-8.1c-3.84-2.46.47-8.01.79-8.52-.37.37-3.29 3.42-5.51-3.01s4.63-14.54 4.63-14.54l-19.35-41.66-15.23-32.92-1.85-3.79 3.18-20.48-.3-.62a65.588 65.588 0 0 1-4.23-45.3c1.47-5.56 2.53-10.63 2.3-13.06z" fill="#e6e6e6"/><path d="M179.17 554h-6.68c1.85-3.97 3.68-7.82 5.42-11.45.44 3.75.86 7.58 1.26 11.45z" fill="#2f2e41"/><path d="M310.29 321.05c-.59.78-1.11 1.6-1.56 2.46l-89.33-49.06-66.87-71.92c-9.18-9.88-24.62-10.44-34.5-1.26-8.9 8.28-10.35 21.86-3.4 31.84h.01a192.26 192.26 0 0 0 41.33 43.08l52.59 40.02 106.21 28.63c7.67 4.59 17.61 2.1 22.2-5.57 4.59-7.66 2.1-17.6-5.57-22.19-7.03-4.22-16.09-2.51-21.11 3.97z" fill="#ffb8b8"/><path d="m189.37 301.61 26.52-30.93 1.48-1.73-54.32-73.61c-2.35-1.83-4.9-3.37-7.62-4.6-19.3-8.77-42.06-.24-50.83 19.06-7.36 16.2-2.62 35.34 11.45 46.23l15.85 9.94 57.24 35.91.23-.27z" fill="#e6e6e6"/><path d="M141.78 111.91c-13.54 24.76-44.59 33.85-69.34 20.31-24.76-13.54-33.86-44.58-20.32-69.34 13.54-24.76 44.59-33.85 69.35-20.31a51.102 51.102 0 0 1 22.91 25.81c.23.59.44 1.17.65 1.78a51.016 51.016 0 0 1-3.25 41.75z" fill="#ffb6b6"/><path d="M149.12 70.16c-2.19-6.15-1.24-2.95-3.46-9.08 1.45 5.43-.84 8.47-.63 9.08H84.19V34.79c17.83-7.06 35.25-13.07 45.78 0 19.53 0 35.36 15.84 35.36 35.37h-16.21z" fill="#2f2e41"/><path d="M127.56 168.47c-.05-.66-.12-1.34-.21-1.99-.82-4.81-2.14-9.51-3.96-14.04-1.75-4.93-3.53-9.89-5.3-14.83a42.53 42.53 0 0 1-1.99 26.95c-10.27-8-3.79-26.29-17.22-26.29-32.28 0-65.49-26.17-65.49-58.47 0-32.28 13.85-56.42 46.13-56.42 32.3 0 58.49 14.78 59.13 47.06-39.77 9.36-3.58 94.75-11.09 98.03z" fill="#2f2e41"/><circle cx="37.42" cy="37.42" fill="#2f2e41" r="37.42"/><ellipse cx="234.72" cy="180.3" fill="#3f3d56" rx="4.52" ry="4.62"/><ellipse cx="250.33" cy="180.3" fill="#3f3d56" rx="4.52" ry="4.62"/><ellipse cx="265.94" cy="180.3" fill="#3f3d56" rx="4.52" ry="4.62"/><path d="M283.74 183.95c-.14 0-.28-.05-.39-.16l-3.04-3.11a.525.525 0 0 1 0-.75l3.04-3.12c.21-.21.55-.21.76 0 .21.2.21.54.01.75l-2.69 2.74 2.69 2.75a.53.53 0 0 1-.38.9zM288.86 183.95a.525.525 0 0 1-.38-.9l2.68-2.75-2.68-2.74a.525.525 0 0 1 0-.75c.22-.21.55-.21.76 0l3.05 3.12c.2.21.2.54 0 .75l-3.05 3.11c-.1.11-.24.16-.38.16zM458.31 176.22h-5.67c-.64 0-1.17.52-1.17 1.17v5.67c0 .65.53 1.17 1.17 1.17h5.67c.65 0 1.18-.52 1.18-1.17v-5.67c0-.65-.53-1.17-1.18-1.17zM444.42 176.22h-5.67c-.64 0-1.17.52-1.17 1.17v5.67c0 .65.53 1.17 1.17 1.17h5.67c.65 0 1.18-.52 1.18-1.17v-5.67c0-.65-.53-1.17-1.18-1.17zM471.4 176.49h-5.67c-.64 0-1.17.52-1.17 1.17v5.67c0 .65.53 1.17 1.17 1.17h5.67c.65 0 1.18-.52 1.18-1.17v-5.67c0-.65-.53-1.17-1.18-1.17zM377.22 178.65h-49.93c-.79 0-1.42.64-1.42 1.42s.63 1.43 1.42 1.43h49.93c.79 0 1.43-.64 1.43-1.43s-.64-1.42-1.43-1.42z" fill="#3f3d56"/></g></svg><svg viewBox="0 0 878.63 496.388" id="" xmlns="http://www.w3.org/2000/svg"><g class="qlayer"><g data-name="Group 69"><path d="M134.04 426.09C114.52 440.63 109 466.23 109 466.23s26.1 2 45.61-12.54 25.04-40.13 25.04-40.13-26.1-2.01-45.61 12.53z" data-name="Path 1089" fill="#f1f1f1"/><path d="M142.16 432.92c-9.37 22.46-32.86 34.03-32.86 34.03s-8.28-24.84 1.1-47.29 32.86-34.03 32.86-34.03 8.28 24.84-1.1 47.29z" data-name="Path 1090" fill="#f1f1f1"/><path d="M703.51 368a194.65 194.65 0 0 1-1.64-42.2l1.64-23.3c-9 17.91-6.97 41.48 0 65.5z" data-name="Path 1091" fill="#cacaca"/><path d="M411.153 173.867s23.45 77.38 16.41 86.75 75.03-51.58 75.03-51.58-30.48-21.1-18.75-51.58l-72.69 16.41z" data-name="Path 274" fill="#ffb9b9"/><path d="M710.53 371.9a143.09 143.09 0 0 1-.79-25.11l.79-13.88c-4.33 10.66-3.36 24.69 0 38.99z" data-name="Path 1092" fill="#cacaca"/><path d="M741.72 389.06v7.8a2.35 2.35 0 0 1-2.34 2.34h-3.9a.78.78 0 0 0-.78.78v63.94a2.35 2.35 0 0 1-2.34 2.34H684.8a2.34 2.34 0 0 1-2.34-2.34v-63.94a.78.78 0 0 0-.78-.78H677a2.34 2.34 0 0 1-2.34-2.34v-7.8a2.34 2.34 0 0 1 2.34-2.34h62.38a2.35 2.35 0 0 1 2.34 2.34z" data-name="Path 1093" fill="#f2f2f2"/><path data-name="Rectangle 346" fill="#e6e6e6" d="M682.53 400.835h52.25v2.34h-52.25z"/><path d="M734.7 435.26c-17.48 7.23-35.15 7.31-53.02 0v-16.48a83.27 83.27 0 0 1 53.02 0v16.48z" data-name="Path 1094" fill="#e6e6e6"/><circle cx="-450.02" cy="-214.45" data-name="Ellipse 276" fill="#feb8b8" r="70.67" transform="translate(891.872 327.045)"/><path d="M593.84 294.32c-2.43-14.62-4.94-29.52-11.73-42.69-4.47-8.62-11.55-16.85-21.11-18.55a20.42 20.42 0 0 1-5.5-1.27c-2.8-1.35-40.43-22.83-46.41-26.57-5.13-3.21-13.24-9.16-17.32-9.16-4.11-.09-19.88 3.58-81.42-1.23 0 0-16.9 6.66-29.98 14.74-.2-.13-63.87 34.06-66.26 33.97-4.53-.19-8.74 2.71-11.34 6.37s-3.82 8.17-5.09 12.54c13.91 30.97 26.63 61.98 40.54 92.95a7.93 7.93 0 0 1 1 3.82 9.31 9.31 0 0 1-1.73 3.81c-6.82 10.96-6.6 24.74-5.85 37.61s1.66 26.48-4.09 38.02c-1.57 3.17-3.6 6.07-5.09 9.24-3.49 7.18-4.75 30.13-2.71 37.84l255.12 7.31c-5.48-15.08 18.97-198.75 18.97-198.75z" data-name="Path 1095" fill="#c81e78"/><path d="M275.63 356.79a45.05 45.05 0 0 0-.15 11.11l3.65 52.51c.35 4.95.68 9.89 1.15 14.83.88 9.58 2.19 19.08 3.81 28.57a5.09 5.09 0 0 0 5.22 4.95c16.1 3.41 32.73 3.27 49.15 2.34 25.07-1.4 89.2-4.04 93.12-9.13s1.63-13.32-3.48-17.44-89.73-14.15-89.73-14.15c.82-6.55 3.32-12.72 5.68-18.94 4.25-11.04 8.22-22.44 8.3-34.26s-4.37-24.25-14.06-31.02c-7.96-5.56-18.22-6.59-27.93-6.36-7.06.2-19.26-1.49-25.71 1.27-5.11 2.25-8.07 10.72-9.02 15.72z" data-name="Path 1421" fill="#fbbebe"/><path d="M296.95 263.41a13.17 13.17 0 0 0-2.83 4.52 213.59 213.59 0 0 0-17.94 73.32 7.33 7.33 0 0 1-.82 3.55 15.54 15.54 0 0 1-1.87 2.02 7.02 7.02 0 0 0 .83 9.9q.18.15.36.28c2.1-3.95 7.13-5.24 11.59-5.59 21.39-1.69 42.28 8.26 63.74 7.51-1.52-5.23-3.69-10.25-4.93-15.55-5.46-23.5 8.16-49.08-.19-71.72-1.67-4.53-4.45-8.98-8.84-10.97a23.55 23.55 0 0 0-5.66-1.5c-5.43-.98-16.22-5.17-21.46-3.49-1.93.63-2.7 2.45-4.3 3.55-2.43 1.55-5.66 2.12-7.68 4.17z" data-name="Path 1430" fill="#c81e78"/><path d="M593.99 341.07c-6.45-2.76-18.65-1.07-25.71-1.27-9.71-.23-19.97.8-27.93 6.36-9.69 6.77-14.14 19.2-14.06 31.02s4.04 23.22 8.3 34.26c2.36 6.22 4.86 12.39 5.68 18.94 0 0-84.63 10.04-89.73 14.15s-7.4 12.35-3.48 17.44 126.17 10.2 142.27 6.8a5.09 5.09 0 0 0 5.22-4.95c1.62-9.49 2.93-19 3.81-28.58.47-4.94.8-9.88 1.15-14.83l3.65-52.51a45.05 45.05 0 0 0-.15-11.11c-.95-5-3.91-13.47-9.02-15.72z" data-name="Path 1421" fill="#fbbebe"/><path d="M574.01 259.24c-1.6-1.1-2.37-2.92-4.3-3.55-5.24-1.68-16.03 2.51-21.46 3.49a23.55 23.55 0 0 0-5.66 1.5c-4.39 1.99-7.17 6.44-8.84 10.97-8.35 22.64 5.27 48.22-.19 71.72-1.24 5.3-3.41 10.32-4.93 15.55 21.46.75 42.35-9.2 63.74-7.51 4.46.35 9.49 1.64 11.59 5.59q.18-.13.36-.28a7.02 7.02 0 0 0 .84-9.9 15.53 15.53 0 0 1-1.87-2.02 7.33 7.33 0 0 1-.83-3.55 213.59 213.59 0 0 0-17.94-73.32 13.17 13.17 0 0 0-2.82-4.52c-2.03-2.05-5.26-2.62-7.69-4.17z" data-name="Path 1430" fill="#c81e78"/><circle cx="-501.61" cy="-266.04" data-name="Ellipse 188" fill="#fbbebe" r="19.07" transform="translate(922.536 718.237)"/><circle cx="-501.61" cy="-266.04" data-name="Ellipse 189" fill="#fbbebe" r="19.07" transform="translate(964.768 718.237)"/><path d="M580.89 495.18H318.86a11.55 11.55 0 0 1-11.54-11.54V324.67a11.55 11.55 0 0 1 11.54-11.54h262.03a11.55 11.55 0 0 1 11.54 11.54v158.97a11.55 11.55 0 0 1-11.54 11.54z" data-name="Path 1096" fill="#090814"/><circle cx="-513.05" cy="-277.48" data-name="Ellipse 263" fill="#fff" r="7.64" transform="translate(962.287 681.632)"/><path d="M878.635 463.11H.005v27h51.97v6.28h774.71v-6.28h51.95v-27z" data-name="Path 1097" fill="#f1f1f1"/><path d="m391.026 40.95-11.52-4.61s24.11-26.53 57.63-24.22l-9.43-10.39s23.05-9.23 44.01 15c11.02 12.74 23.76 27.71 31.72 44.57h12.34l-5.15 11.34 18.03 11.35-18.5-2.03a62.78 62.78 0 0 1-1.76 29.38l.51 8.97s-21.46-33.21-21.46-37.82v11.54s-11.53-10.4-11.53-17.32l-6.29 8.08-3.14-12.69-38.77 12.69 6.28-10.39-24.1 3.46 9.43-12.69s-27.25 15-28.29 27.69-14.67 28.84-14.67 28.84l-6.29-11.54s-9.43-51.91 20.95-69.21z" data-name="Path 983" fill="#090814"/><path d="M376.88 138.94c-11.36 0-20.56-9.95-20.56-22.23v-11.12c0-12.28 9.2-22.23 20.56-22.23v55.58z" data-name="Path 1098" fill="#c81e78"/><path d="M508.1 83.37c11.35 0 20.56 9.95 20.56 22.22v11.12c0 12.28-9.2 22.23-20.56 22.23V83.37z" data-name="Path 1099" fill="#c81e78"/><path d="M518.87 107.34h-3.26c0-44.73-33.65-81.12-75.02-81.12s-75.03 36.39-75.03 81.12h-3.26c0-46.67 35.12-84.65 78.29-84.65s78.28 37.98 78.28 84.65z" data-name="Path 1100" fill="#c81e78"/></g></g></svg><svg viewBox="0 0 50 50" id="" xmlns="http://www.w3.org/2000/svg"><path style="stroke:none;fill-rule:nonzero;fill:#000;fill-opacity:1" d="M34.566 15.688h.036c.324 0 .628.101.875.277l-.004-.004a.96.96 0 0 1 .332.629v.004a3.994 3.994 0 0 1 .039.937v-.015c-.352 3.703-1.875 12.68-2.653 16.82-.328 1.758-.972 2.344-1.597 2.398-1.36.13-2.39-.894-3.703-1.757-2.063-1.352-3.227-2.192-5.223-3.508-2.313-1.524-.813-2.36.504-3.727.344-.36 6.328-5.805 6.445-6.297a.475.475 0 0 0-.11-.414.505.505 0 0 0-.288-.086.565.565 0 0 0-.2.04h.004c-.207.046-3.496 2.218-9.867 6.519a4.388 4.388 0 0 1-2.531.937h-.008a16.493 16.493 0 0 1-3.754-.894l.117.035c-1.464-.477-2.628-.73-2.53-1.539.054-.422.632-.852 1.741-1.293 6.82-2.969 11.368-4.93 13.645-5.875 2.512-1.332 5.422-2.43 8.484-3.14l.242-.047ZM24.891 1.601c-12.973.03-23.477 10.554-23.477 23.53 0 12.997 10.535 23.532 23.531 23.532 12.996 0 23.532-10.535 23.532-23.531 0-12.977-10.504-23.5-23.473-23.531h-.114Zm0 0"/></svg><svg viewBox="0 0 50 50" id="" xmlns="http://www.w3.org/2000/svg"><path style="stroke:none;fill-rule:nonzero;fill:#000;fill-opacity:1" d="M25 1C11.746 1 1 11.746 1 25s10.746 24 24 24 24-10.746 24-24S38.254 1 25 1Zm9.23 27.078s2.122 2.094 2.645 3.067c.016.02.023.039.027.05.211.356.262.633.157.844-.172.344-.774.512-.98.527h-3.75c-.259 0-.806-.066-1.466-.52-.504-.355-1.004-.937-1.492-1.507-.73-.844-1.36-1.574-1.992-1.574-.719.191-1.332.879-1.332 2.703 0 .57-.453.898-.77.898H23.56c-.582 0-3.633-.207-6.332-3.054-3.305-3.489-6.278-10.48-6.305-10.547-.188-.453.2-.695.625-.695h3.785c.504 0 .672.308.785.582.137.316.63 1.578 1.442 3 1.32 2.312 2.125 3.253 2.773 3.253 1.191-.558 1.035-3.574.996-4.199 0-.117 0-1.347-.433-1.937-.31-.426-.836-.59-1.157-.649.13-.18.301-.324.496-.422.582-.289 1.625-.332 2.664-.332h.579c1.125.012 1.414.086 1.82.188.824.2.844.73.77 2.555-.02.515-.044 1.101-.044 1.793 0 .148-.007.308-.007.476-.028.93-.055 1.98.597 2.414.516.082 1.2.082 3.055-3.101a24.328 24.328 0 0 0 1.488-3.184c.035-.066.145-.266.278-.344l4.761-.07c.485 0 .817.07.88.258.109.3-.02 1.207-2.052 3.96l-.91 1.196c-1.84 2.414-1.84 2.54.117 4.371Zm0 0"/></svg><svg viewBox="0 0 16 16" id="clip" xmlns="http://www.w3.org/2000/svg"><g class="nlayer"><path d="m1.486 6.033.8-.004.998-.504 3.02 4.485.019 3.8c.002.44.533.668.861.336l3.126-3.155 5.018 3.977-4.023-4.981 3.125-3.155a.5.5 0 0 0-.344-.858l-3.8.018-4.514-2.98.495-1.002-.004-.8a.497.497 0 0 0-.861-.335l-4.26 4.3a.5.5 0 0 0 .344.858z" fill="#000" fill-rule="evenodd"/></g></svg><svg data-name="Layer 0 Image" viewBox="0 0 800 600" id="es" xmlns="http://www.w3.org/2000/svg"><path d="M532.067 430.947h6.633l3.717 5.719 2.66-2.4 7.494 4.21.854 5.54 3.908-2.219 4.449 9.22-2.817.953v4.306c-4.97 1.7-8.737 6.007-14.363 4.534-.33 3.817-3.819 5.072-6.034 5.565-5.253 1.168-9.66 5.308-14.6 5.4-5.767.113-10.143 3.282-15.163 4.715-6.025 1.72-12.228 3.563-18.2 5.865-5.83 2.247-11.956 5.185-18.644 4.971-10.573 6.131-22.857 6.833-34.246 10.32-8.874 2.717-17.821 6.1-27.384 6.8-3.326.244-6.5 3.691-9.967-1.394-2.522 4.619-5.488 7.168-10.445 7a31 31 0 0 0-10.477 1.816c-8.755 2.89-17.877 3.811-26.827 5.652-8.213 1.69-16.663 2.271-24.711 4.053-10.852 2.4-21.517.723-32.228 1.405-1.887.121-3.824-1.413-5.808-1.7-2.148-.316-4.949.751-6.431-.277-1.92-1.332-3.341-.128-4.907-.438-2.315-.458-4.589-1.122-7.344-1.814-1.016-1.785-4.433-2.5-4.424-6.021 0-.884-1.687-2.579-2.52-2.531-6.3.363-7.761-4.825-10.486-9.2-1.056-8.512 3.086-14.48 11.07-18.163a12.868 12.868 0 0 1 3.287-1.126c4.432-.7 9.159-.554 13.25-2.109 4.5-1.709 8.885-1.575 13.4-1.69 4.335-.111 9.447 1.122 12.8-.763 3.727-2.1 8.383 1.229 11.059-2.953 2.938 3.1 5.838-1.538 8.768-.044 3.132-2.693 7.029-1.247 10.475-2.026 3.19-.721 6.48-1.136 9.544-1.944a219.342 219.342 0 0 1 30.635-5.441c4.471-3.917 10.644-.2 15.448-3.657 4.124-2.969 9.65-2.425 14.438-3.485 5.435-1.2 11.137-2.118 16.728-3.031 5.22-.852 10.353-2.292 15.6-3.267 7.734-1.438 15.1-4.79 23.105-5.383 3.367-3.973 8.673-.544 12.693-3.573 3.374-2.541 8.368-2.975 12.457-3.631 9.98-1.6 18.8-6.463 28.509-8.575 2.3-.5 4.592-1.033 7.254-1.633l1.036 6.757ZM374.765 323.934l-1.4 1.4-3.952-6.087c-.6 1.692-.982 2.782-1.6 4.518-2.758-.34-6.494.288-8.444-1.29-3.165-2.562-5.235 1.108-7.981.134-2.491-.884-6.111.283-7.923-1.132-2.953-2.306-5.931-1.015-8.772-1.741a77.051 77.051 0 0 1-8.332-3.144l-5.815 1.829-3.379-6.329-1.8 5.8c-8.629-4.962-18.975-2.15-27.611-6.5l-.915-4.09-1.467 4.286-6.966-1.839-.564-5.119-2.273 1.647-3.871-1.941-1.727 3.893c-2.1-1.48-4.2-2.968-6.689-4.723-.1-.877-.261-2.359-.474-4.28l-6.612 3.319c-3.3-4.779-10.036-6.994-12.152-13.421l2.092-2.3c-1.8-1.8-2.627-1.3-4.54 2.752a12.908 12.908 0 0 1-1.828.089c-.251-.019-.479-.335-1.282-.945q.881-2.017 1.961-4.5l-2.232-5.747 5.66 2.054-1.71-6.732 7.687 3.476-1.678 2.057 5.255 2.677v-6.333l5.9-3 13.648 5.674c2.073-.812 10.024.213 13.628 1.849l2.272-2.065 6.194 2.952-1.74 1.991c.417.308.984 1.014 1.3.915 3.586-1.117 6.962-3.856 10.869-.205.723.676 3.259-.568 4.952-.954 7.744-1.766 14.851-.661 21.1 4.365 1.461-.4 3.063-1.2 4.649-1.17 1.867.036 4.846 1.734 5.389 1.082 2.813-3.373 4.281.736 6.378.762a14.057 14.057 0 0 1 6.1 1.129c3.661 1.667 7.993 2.021 12.092 2.537a232.632 232.632 0 0 1 40.541 8.8c10.268 3.211 20.73 5.861 30.6 10.148 6.65 2.887 13.879 5.565 19.1 10.273 4.721 4.252 10.312 8.016 13.993 14.079-.517.813-1.142 1.8-1.866 2.931l1.613 1.861-6.994 6.62c-2.877-.87-5.877-2.083-7.562-6.224l-.89 5.963h-2.681l-1.306-3.412-3.211 2.046-2.792-2.092-4.528 4.2c-2.283-2.813-3.875-5.333-6.011-7.246-2.073-1.857-6.407-.062-7.391-4.834l1.994-3.088-6.27-.322 3.093 3.479c-2.381-.122-4.356.324-5.695-.4a44.323 44.323 0 0 0-9.873-3.564 60.2 60.2 0 0 0-9.65-1.6c-2.909-.31-5.73-1.42-8.638-1.752-3.073-.352-6.28.19-9.287-.388-2.665-.512-5.151-2.022-7.686-3.078ZM315.962 89.493v-7.908c3.208-3.385 6.916-5.027 12.51-4.476l2.616 4.369c6.215-3.827 8.582 4.476 13.468 3.158 7.011 4.649 12.241 11.121 19.431 15.174a14.093 14.093 0 0 1 2.68 2.618 145.791 145.791 0 0 0 20.3 16.7 125.827 125.827 0 0 1 13.864 11.9 75.192 75.192 0 0 0 15.734 11.955 14.208 14.208 0 0 1 2.683 2.611c3.564 3.49 6.78 7.476 10.81 10.3 3.245 2.277 5.644 5.3 8.519 7.845 4.969 4.393 9.1 9.74 13.533 14.732 4.463 5.025 9.059 9.951 13.2 15.233 1.727 2.2 2.427 5.212 3.641 7.961l-8.712 7.638c-2.661 1.506-4-3.493-7.141-4.644l-2.586 1.986-12.258-2.534c-10.4-8.5-22.5-17.541-33.808-27.668a109.353 109.353 0 0 0-17.924-13.062c-4.629-2.684-8.248-7.119-12.444-10.645-11.117-9.339-22.288-18.924-31.684-29.911-8.823-10.313-19.62-19.087-26.432-33.332Z"/></svg><svg data-name="Layer 0 Image" viewBox="0 0 800 600" id="es2" xmlns="http://www.w3.org/2000/svg"><g class="slayer"><path d="m301.093 466.729-6.049-2.713-1.053-6.739-3.412 1.105-5.112-6.91 1.486-5.407-4.47.426-.285-10.237 2.957.282 1.767-3.928c5.228.478 10.43-1.895 14.967 1.748 1.86-3.35 5.56-3.066 7.78-2.614 5.268 1.094 10.979-.886 15.526 1.052 5.314 2.251 10.601 1.15 15.768 1.894 6.207.9 12.618 1.757 19.002 2.099 6.244.331 13.04.156 19.051 3.086 12.155-1.271 23.654 3.123 35.464 4.592 9.216 1.156 18.761 1.728 27.774 5.005 3.127 1.14 7.442-.705 8.521 5.354 4.194-3.188 7.937-4.296 12.394-2.115M410.62 296.36c.22-.7.41-1.29.6-1.88l6.3 3.61c-.24-1.78-.4-2.92-.63-4.74 2.6-.96 5.64-3.22 8.1-2.7 3.99.83 4.16-3.38 7.04-3.76 2.62-.34 5.31-3.04 7.57-2.61 3.68.71 5.74-1.8 8.6-2.45M474.615 98.569l7.095 3.506c1.61 4.371 1.435 8.432-1.529 13.194-1.007.079-2.87.236-5.073.416.684 7.26-7.81 5.713-8.795 10.681-7.26 4.233-15.395 6.049-22.205 10.702"/></g></svg><svg viewBox="0 0 512 512" id="g" xmlns="http://www.w3.org/2000/svg"><g class="olayer"><path d="M107.669 91.855a120.17 120.17 0 0 0 153.453 184.712l129.064 142.81a10 10 0 1 0 14.839-13.41L276.007 263.21a118.17 118.17 0 0 0 32.541-75.493 120.49 120.49 0 0 0-200.88-95.861zm27.72 83.424c1.83 23.025 15.933 44.327 36.802 55.592a10.001 10.001 0 1 1-9.499 17.602c-26.782-14.452-44.886-41.896-47.236-71.61a10 10 0 0 1 19.94-1.576l-.007-.008z"/></g></svg><svg viewBox="0 0 30 30" id="g" xmlns="http://www.w3.org/2000/svg"><path style="fill:none;stroke-width:2;stroke-linecap:round;stroke-linejoin:round;stroke:#000;stroke-opacity:1;stroke-miterlimit:4" d="M3 5.5C3 14.06 9.94 21 18.5 21c.387 0 .769-.016 1.147-.04.437-.035.653-.05.853-.163.163-.094.319-.263.4-.434.1-.204.1-.444.1-.925v-2.816c0-.406 0-.606-.066-.781a1.03 1.03 0 0 0-.278-.394c-.14-.122-.331-.19-.71-.331l-3.205-1.166c-.441-.16-.663-.24-.872-.225a.978.978 0 0 0-.513.181c-.172.122-.293.322-.534.725L14 16a12.1 12.1 0 0 1-6-6l1.369-.822c.403-.24.603-.362.725-.534a.978.978 0 0 0 .181-.513c.016-.21-.066-.431-.225-.872L8.884 4.053c-.14-.378-.209-.569-.33-.71a1.03 1.03 0 0 0-.395-.277C7.984 3 7.784 3 7.38 3H4.562c-.482 0-.722 0-.925.1-.172.081-.341.237-.435.4-.112.2-.128.416-.162.853C3.016 4.731 3 5.113 3 5.5Zm0 0" transform="scale(1.25)"/></svg><svg viewBox="0 0 60 60" id="pe" xmlns="http://www.w3.org/2000/svg"><path style="stroke:none;fill-rule:nonzero;fill:#000;fill-opacity:1" d="M54.375 50.625H5.625A5.631 5.631 0 0 1 0 45V15a5.631 5.631 0 0 1 5.625-5.625h48.75A5.631 5.631 0 0 1 60 15v30a5.631 5.631 0 0 1-5.625 5.625Zm-48.75-3.75h48.75c1.031 0 1.875-.84 1.875-1.875V15.594L31.219 37.047A1.852 1.852 0 0 1 30 37.5c-.434 0-.867-.148-1.219-.453L3.75 15.594V45c0 1.035.844 1.875 1.875 1.875Zm47.746-33.75H6.63L30 33.156Zm0 0"/></svg><svg viewBox="0 0 60 60" id="svg" xmlns="http://www.w3.org/2000/svg"><path style="fill:none;stroke-width:2;stroke-linecap:round;stroke-linejoin:round;stroke:#000;stroke-opacity:1;stroke-miterlimit:4" d="M6 12h12m0 0-5-5m5 5-5 5" transform="scale(2.5)"/></svg><svg viewBox="0 0 50 50" id="up" xmlns="http://www.w3.org/2000/svg"><path style="stroke:none;fill-rule:evenodd;fill:#000;fill-opacity:1" d="M35.21 25.844c-.608.61-1.597.61-2.21 0l-6.438-6.453v16.547c0 .859-.699 1.562-1.562 1.562a1.565 1.565 0 0 1-1.563-1.563V19.392L17 25.844c-.613.61-1.602.61-2.21 0a1.575 1.575 0 0 1 0-2.219l8.835-8.844c.375-.375.89-.484 1.375-.39.484-.094 1 .015 1.375.39l8.836 8.844c.61.61.61 1.594 0 2.219ZM25 0C11.191 0 0 11.188 0 25c0 13.813 11.191 25 25 25s25-11.188 25-25C50 11.187 38.809 0 25 0Zm0 0"/></svg><svg xml:space="preserve" viewBox="0 0 32 32" id="vg" xmlns="http://www.w3.org/2000/svg"><g class="glayer"><path d="M24.75 29.185a.5.5 0 0 0 .5-.5v-10a.5.5 0 0 0-.5-.5h-5.71l-.77-8.8a2.97 2.97 0 0 0 .98-2.2c0-1.65-1.35-3-3-3s-3 1.35-3 3c0 .85.35 1.64.98 2.2l-.77 8.8H7.75a.5.5 0 0 0-.5.5v10a.5.5 0 0 0 .5.5h17zm-.5-1h-16v-7h16v7zm0-8h-5.04l-.09-1h5.13v1zm-6.04 0H14.3l.08-1h3.74l.09 1zm-4.92 0H8.25v-1h5.13l-.09 1zm4.74-2h-3.56l.78-8.97a.5.5 0 0 0-.2-.44c-.51-.39-.8-.97-.8-1.59 0-1.1.9-2 2-2s2 .9 2 2c0 .62-.29 1.2-.8 1.59a.5.5 0 0 0-.2.44l.78 8.97z" fill="#010101"/><path stroke="#000" d="M7.72 20.75H24.1v7.06H7.72z"/></g></svg><svg viewBox="0 0 60 60" id="vg" xmlns="http://www.w3.org/2000/svg"><path style="fill:none;stroke-width:2;stroke-linecap:round;stroke-linejoin:round;stroke:#000;stroke-opacity:1;stroke-miterlimit:4" d="M6 12h12M6 12l5-5m-5 5 5 5" transform="scale(2.5)"/></svg><svg data-name="Layer 0 Image" viewBox="0 0 800 600" id="y" xmlns="http://www.w3.org/2000/svg"><path d="M146.684 499.4c2.585-33.9 11.36-68.709 21.052-103.34a690.546 690.546 0 0 1 101.158-213.5c32.188-45.643 69.525-85.451 120.443-111.12 16.315-8.224 30.434-6.459 45.13 1.487 8.24 4.454 10.9 17.585 3.8 20.292-18.024 6.87-26.258 23.292-38.108 35.985-35.924 38.479-70.6 77.984-98.315 123.135-33.654 54.824-58.122 113.593-77.116 174.818-8.918 28.745-18.448 57.314-25.126 86.72-.878 3.864-6.339 6.263-3.938 11.494.256.557-.874 1.815-1.459 2.683-1.862 2.767-29.652 7.361-32.465 5.393-13.179-9.209-15.563-14.247-15.056-34.047Zm22.23-45.958c30.324-119.233 80.036-228.658 162.946-321.284-88.148 89.975-136.923 199.875-162.946 321.288ZM488.971 221.8c4.531 13.245-3.355 18.994-11.37 25.828-7.568 6.453-10.325 16.968-17.52 24.456-8.879 9.239-18.134 19.3-24.115 29.869-4.579 8.092-13.83 12.114-15.867 22.458-1.636 8.31-6.668 16.735-15.45 21.2-3.673 1.87-3.585 5.915-4.95 9.211-3.5 8.454-6.051 17.674-15.276 22.367-1.418.722-3.2 2.746-3.126 4.066.764 12.716-10.846 18.793-15.2 28.749-2.015 4.612-6.659 6.2-11.74 6.457-4.393.226-11.921 2.631-12.61 1.284-3.774-7.379-9.4-13.58-6.712-24.212 9.447-37.406 28.543-69.625 50.147-100.757 21.818-31.442 47.767-59.224 76.226-84.661 11.013-9.843 23.039-18.474 36.571-24.748 9.649-4.473 18.677-1.482 27.617 2.253 3.415 1.426 4.724 4.366 4.559 7.913-.154 3.31-2.483 4.856-5.131 6.414-9.433 5.549-20.823 8.884-23.585 21.959-.571 2.7-3.451 5.9-6.973 6.022-3.378.124-.337-4.787-5.495-6.128Zm-82.524 62.321c-23.312 29.458-44.267 60.442-56.725 96.357 15.518-34.084 35.856-65.305 56.725-96.355Zm31.763-35.785-2.244-1.889-18.251 21.3 1.893 1.6ZM580.113 322.541c6.51 5.641 3.635 7.907-.794 13.349-6.858 8.425-13.132 18.041-21.8 23.863-11.092 7.451-13.246 21.111-23.813 28.419-9.007 6.228-22.362 5.628-29.733-.759-6.386-5.535-2.983-10.665-1.084-15.689 10-26.464 27.99-47.3 48.3-66.234 14.683-13.689 31.417-24.813 47.834-36.3 5.326-3.727 6.813-1.328 7.465 3.81.289 2.28-.77 5.2 2.875 7.084 2.1-3.734 4.148-7.331 6.153-10.951.482-.87 1.391-2.012 1.151-2.694-2.673-7.6-1.583-9.139 8.745-11.13-.653 3.7-5.173 4.845-5.03 8.715 3.327 3.685 4.521-6.483 8.217-1.557 3.129 4.17 1.888 10.606-.165 12.017-7.692 5.286-8.334 14.931-14.656 20.944-1.927 1.833 1.64 8-5.209 7.985-3.769-.011-6.651 7.5-11.379 1.5 1.373 4.567-3.78 5.893-4.5 8.195-1.98 6.401-7.09 7.33-12.577 9.433Zm-32.426.9c-16.2 16.74-31.2 34.358-38.661 57.085 11.002-20.326 25.136-38.472 38.661-57.086Zm24.947-24.576c7.274-3.811 13.151-3.254 16.612-7.91 1.4-1.886 4.786-4.056 1.845-6.718-2.384-2.157-5.589-1.2-7.662 1.106-3.047 3.391-5.729 7.114-10.795 13.521ZM631.92 257.8c5.76 1.2 10.342 6.174 12.525-2.063.957-3.612 4.086-1.576 5.513.832 2.205 3.719 5.061 8.056 2.25 12.01-3.285 4.62-7.406 10.333-12.227 11.634-3.8 1.024-6-5.68-5.563-10.506.344-3.782 2.545-7.591-2.498-11.907Z"/></svg><svg data-name="Layer 0 Image" viewBox="0 0 800 600" id="y2" xmlns="http://www.w3.org/2000/svg"><g class="jlayer"><path d="m409.752 523.33-2.111-6.146 1.03-2.09c-1.146-3.942-2.29-7.728-3.346-11.536-.886-3.224-1.473-6.535-2.525-9.695-1.178-3.513-1.937-7.13-3.295-10.642-1.23-3.16-3.448-6.192-3.464-9.667-.01-4.052-3.058-6.78-3.746-10.52a102.05 102.05 0 0 0-2.9-10.157l-1.204.41c-4.27-9.662-8.316-19.482-15.66-28.106l.232-2.484-2.1.46c-3.584-4.944-7.547-9.75-10.967-14.78-4.217-6.192-9.824-11.33-13.142-18.237a27.59 27.59 0 0 0-7.593-9.048c-1.851-1.492-.775-2.634-1.008-4.109l-3.017.286-8.782-12.109 3.034-1.18c-.385-2.386 1.084-5.208-3.003-8.136l6.1.743-2.116-5.524-3.138.282-2.626-3.858c.382-.548.673-1.318.972-1.316 2.232-.048 4.464.06 6.687.118 2.307-3.1-1.189-4.443-1.935-6.594l1.728-.587-.029-3.381 7.686-1.163c6.186 2.491 13.093 5.94 20.408 7.927 3.762 1.03 7.305 3.455 10.865 3.515 4.415.068 7.198 3.446 10.939 3.75 4.12.326 7.28 3.009 10.95 3.546 4.024.59 7.263 3.089 10.93 3.635 8.719 1.31 16.713 5.672 25.676 5.674 2.778 2.461 7.364 1.232 9.625 4.742 4.353-.463 8.417.882 12.533 1.962 5.814 1.527 12.028 1.134 17.657 3.829 1.587.76 3.758.291 6.871.443l-16.864-15.39-1.185-5.355-5.892-1.052c-5.257-5.712-13.026-9.808-16.07-18.02-3.515 1.613-5.647-1.979-8.35-2.397-5.765-7.712-13.788-12.178-21.45-18.685-.046-.157-.411-1.429-.767-2.652-2.53-2.718-6.617-2.748-8.79-6.327-1.584-2.598-4.928-4.635-7.922-5.732a18.85 18.85 0 0 1-8.445-6.502c-2.344-3.184-5.754-3.504-8.554-5.943-.251-.87-.634-2.152-1.15-3.934-7.476-2.859-14.021-7.812-21.237-12.08l-.807-4.178-7.4-3.646 3.515-1.5c-3.882-1.468-5.026-4.484-5.634-8.206.713-.474 1.537-1.038 2.237-1.507l-5.32-16.355c1.49-1.641 2.627-2.886 4.09-4.496l3.054.023.83-1.687-2.37-2.36c1.786-4.416 5.699-6 9.833-7.173 3.638 1.079 3.638 1.079 7.976-1.979l-3.907.215c.152-.738.326-1.567.565-2.73l4.929 1.58c-.212-.996-.354-1.657-.46-2.144l13.84-7.316 3.21 1.582-.714-2.849 3.138.42 1.507-3.059 3.428-1.164c.924 2.083 3.348 3.59 2.434 6.394 3.888-2.075 1.613-4.924.86-8.171l3.873 1.507c3.253-2.076 6.899-3.457 9.026-7.481 1.774-3.351 5.974-3.367 10.045-3.077l-.522-2.855 4.264 1.165c.123-.363.3-.9.836-2.51 2.278-1.229 5.925-2.409 8.478-4.762 3.652-3.362 8.863-2.512 12.54-6.017 3.216-3.064 7.44-5.141 11.848-6.871 6.006-2.37 11.453-6.162 17.551-9.579l-3.955-1.949c-.664.532-1.616 1.289-2.92 2.33l-2.163-3.508a55.83 55.83 0 0 0-7.304.593c-2.033.414-4.674-.72-5.982 1.958-2.382-2.066-4.848-.773-7.218.01l-.546-1.629c-8.718 2.828-17.666 3-26.702 2.517l-8.243 3.017-2.395-1.18-12.318 2.035c-.11-1.882-.189-3.215-.293-4.927l-7.434.45-1.264 5.71-17.652 2.316c2.016-2.485 3.823-2.509 5.469-3.27-1.99-3.154-4.148-.382-6.12-.295-.457-.86-.904-1.716-1.863-3.549l-2.914 3.38-.578-1.61.268 3.687-6.297.019-1.016-2.44-2.357.688c-.6 2.146-1.245 4.426-1.832 6.5-7.474.554-14.6 1.078-21.717 1.607q-.154-.433-.295-.87l3.027-1.62-11.056-3.128c.545-3.165 1.052-6.093 1.787-10.346l-1.625-3.398c9.573-1.125 18.173-4.211 26.853-6.645 11.992-3.366 24.29-4.386 36.359-6.956 12.578-2.676 25.497-3.69 38.268-5.468 7.275-1.009 14.521-2.254 21.806-3.124 10.23-1.213 20.463-2.592 30.742-3.067 4.52-.214 8.709-2.063 13.489-1.425 4.1.549 8.496-1.02 12.754-1.697 10.866-1.736 21.774-3.15 32.441-6.11 6.939-1.932 14.142-2.954 22.272-4.589l8.611 4.244c-.967 2.12-1.26 4.774-4.683 5.93l5.054 3.227c.532 7.608-2.01 14.26-6.58 21.227l-6.103 1.006-5.293-.412c-.298 2.663-.519 4.672-.732 6.552-3.197 1.646-6.28 3.516-9.573 4.859-2.815 1.143-4.582 5.022-8.846 2.296l1.033 3.04c-3.983-.357-5.739 5.333-10.353 3.137-.771 1.18-1.467 2.253-2.292 3.52l-2.194-.525c-7.491 6.967-16.99 10.703-26.29 15.14-.26.529-.429 1.55-1.003 1.924-2.335 1.503-4.896 4.053-7.2 3.888-3.745-.273-5.873 4.475-9.845 2.128-.96 1.7-1.859 3.275-2.81 4.958l-3.124-.335c-.474.825-.974 1.727-1.758 3.114l-8.888 2.766c.033-1.99.058-3.171.093-4.804-2.104 1.216-4.003 2.309-5.906 3.411.095.939.19 1.877.346 3.37-1.484.116-2.938-.054-4.152.418-1.053.418-1.825 1.553-2.71 2.355l.508 3.494-5.087.37-3.089-2.782-1.44 2.924c-3.095.103-5.268.147-7.506 2.99-3.804 4.826-9.497 7.896-14.494 11.565-.766.56-2.285.09-3.447.096l.348 1.443c-3.185 1.374-5.984 3.071-8.999 3.737-3.073.671-6.37.328-10.373.463-1.424 1.26-.11 2.42 4.189 3.558l-6.132 1.36-2.723-3.594-.507 5.781-2.359 1.213c.364.959.526 2.778 1.239 3.029 3.482 1.214 5.193 4.008 6.96 6.484 5.964 1.222 9.157 6.419 13.785 9.379A93.72 93.72 0 0 1 407.68 271.7c4.16 4 8.312 8.198 13.101 11.127 5.08 3.105 8.997 7.42 13.748 10.81a101.87 101.87 0 0 1 13.41 11.925c4.022 4.122 8.901 7.162 12.906 11.387a106.28 106.28 0 0 0 13.348 11.962c4.693 3.506 8.092 8.146 12.492 11.841 4.382 3.687 8.586 7.598 12.67 11.617 4.246 4.166 8.199 8.61 12.347 12.884 3.99 4.096 8.066 8.11 12.434 12.504l2.348 6.887-2.012.825c-1.745 2.976.928 4.248 1.96 5.771-.95 3.378-1.853 6.545-2.813 9.963l-1.802.695c1.516 5.43-2.636 7.385-6.159 9.15-3.558 1.792-7.56 2.696-11.63 4.08-7.434-2.449-16.238.214-23.116-5.828l-1.975 2.538-15-4.56c-.129.15-.782.842-1.262 1.363-4.558-.863-8.994-1.589-13.382-2.592-1.72-.401-3.977-.956-4.812-2.226a8.36 8.36 0 0 0-8.45-4.163c-1.757.126-3.611-1.2-5.854-.856l5.66 2.789c-.842.666-1.33 1.206-1.452 1.135-3.604-2.21-7.805-2.486-11.752-3.026-3.33-.46-6.785-1.526-8.291-3.718-1.944-2.842-4.829-2.847-7.784-5.786l.528 3.18c-5.622.642-7.787.534-10.333-2.783-2.037-2.654-4.78-2.723-7.582-3.346l6.724 4.317-13.88-3.529c8.869 10.758 13.881 22.146 20.08 32.848 6.301 10.898 8.707 17.033 10.864 27.249.391 1.854 1.965 3.432 2.504 5.28.935 3.215 1.22 6.621 2.27 9.781.979 2.902 3.069 5.448 3.869 8.372 2.115 7.743 2.922 15.81 5.565 23.456.255.75-.686 1.913-1.118 2.994.713 1.132 1.976 2.3 2.18 3.628.982 6.47 2.134 12.979 2.341 19.503.174 5.19.763 10.353.516 15.65-.247 5.229-2.125 9.81-3.018 14.677-.928 5.028-4.482 9.185-8.897 12.74-2.925-6.893-10.46-3.706-15.44-6.539l6.978 4.141-.638 1.113-4.78-2.356c-1.445-.712-2.88-1.441-4.329-2.121-1.632-.76-3.188-2.129-5.157-.847.15-2.568-2.823-.923-3.251-2.316-.793-2.486-3.328.713-4.312-1.567a8.3 8.3 0 0 0-3.206-3.062 43.48 43.48 0 0 0-4.741-2.392l.482-3.943-2.68 2.659-3.273-1.278-2.284-6.722-3.125-1.328-2.58 2.452c.018-1.507.03-2.66.05-3.81l-1.588-.783-2.902 2.316c-3.482-3.388-6.393-7.23-10.985-9.36-2.076-.967-3.428-3.494-5.291-5.505l-1.126.226-10.455-9.143 5.015-1.152a12.19 12.19 0 0 0-6.565-2.287 6.47 6.47 0 0 1-.344-.683c-.19-.495-.35-1.008-.555-1.611-.486.195-.977.4-1.477.577a7.17 7.17 0 0 1-.777.174l-5.307-5.18 3.125-6.341-.744-.957c-1.043.623-2.081 1.237-3.56 2.113l.184 4.06-7.65-6.445.604-2.445c-4.844.668-6.536-2.64-8.229-6.083a10.73 10.73 0 0 0-2.222-2.98c-1.988-1.893-4.109-3.652-6.59-5.833.026-.099.152-.828.407-2.341l-5.671-2.338c.235.54.115-.233-.34-.691-3.648-3.727-7.737-7.012-11.083-11.036-.316-.378-.925-.5-1.316-.837-2.548-2.159-2.014-6.545-5.578-7.933-3.142-1.225-3.846-4.548-5.99-6.62-2.322-2.236-4.429-4.679-6.585-7.068a19.85 19.85 0 0 0-1.82-2.346 19.04 19.04 0 0 0-3.297-1.68l-.756-3.94-4.89-2.41c-1.403-4.459-2.735-8.995-7.697-11.005a1.97 1.97 0 0 1-1.12-.964c-1.81-6.69-8.295-9.885-11.566-15.622-3.163-5.527-8.148-9.979-11.806-15.27-4.84-7.012-9.175-14.366-13.694-21.598a4.87 4.87 0 0 1-.765-2.272c-.274-7.203-.473-14.402-.667-20.93 2.437-3.203 4.438-5.84 7.012-9.231l6.392-.597c3.12 3.4 6.322 6.538 9.119 10.001a88.5 88.5 0 0 1 7.743 10.983c4.897 8.456 11.57 15.59 17.046 23.595 3.234 4.749 7.894 8.527 9.698 14.232 7.372 6.42 12.679 14.587 18.862 22.015 2.667 3.209 4.88 6.863 8.116 9.684 2.975 2.604 5.547 5.665 8.314 8.512 8.62 8.907 17.214 17.846 25.901 26.687q6.798 6.906 13.894 13.501c4.78 4.418 10.102 8.412 14.57 12.943 7.84 7.955 17.528 13.408 25.586 20.991 4.259 4.005 9.94 6.548 15.162 9.433 5.083 2.806 10.406 5.195 17.125 8.505z"/></g></svg></svg>