<svg xmlns="http://www.w3.org/2000/svg" width="50" height="50"><path d="M25 1C11.746 1 1 11.746 1 25s10.746 24 24 24 24-10.746 24-24S38.254 1 25 1zm9.23 27.078s2.122 2.094 2.645 3.067c.016.02.023.039.027.05.211.356.262.633.157.844-.172.344-.774.512-.98.527h-3.75c-.259 0-.806-.066-1.466-.52-.504-.355-1.004-.937-1.492-1.507-.73-.844-1.36-1.574-1.992-1.574-.719.191-1.332.879-1.332 2.703 0 .57-.453.898-.77.898H23.56c-.582 0-3.633-.207-6.332-3.054-3.305-3.489-6.278-10.48-6.305-10.547-.188-.453.2-.695.625-.695h3.785c.504 0 .672.308.785.582.137.316.63 1.578 1.442 3 1.32 2.312 2.125 3.253 2.773 3.253 1.191-.558 1.035-3.574.996-4.199 0-.117 0-1.347-.433-1.937-.31-.426-.836-.59-1.157-.649.13-.18.301-.324.496-.422.582-.289 1.625-.332 2.664-.332h.579c1.125.012 1.414.086 1.82.188.824.2.844.73.77 2.555-.02.515-.044 1.101-.044 1.793 0 .148-.007.308-.007.476-.028.93-.055 1.98.597 2.414.516.082 1.2.082 3.055-3.101a24.328 24.328 0 001.488-3.184c.035-.066.145-.266.278-.344l4.761-.07c.485 0 .817.07.88.258.109.3-.02 1.207-2.052 3.96l-.91 1.196c-1.84 2.414-1.84 2.54.117 4.371zm0 0"/></svg>